{"glyphs":{"0":{"ha":685,"x_min":99,"x_max":586,"o":"m 343 935 q 586 458 586 935 q 343 -14 586 -14 q 99 461 99 -14 q 343 935 99 935 m 343 906 q 184 797 238 906 q 131 461 131 689 q 184 124 131 233 q 343 15 238 15 q 501 123 449 15 q 554 458 554 231 q 501 797 554 688 q 343 906 449 906 z "},"1":{"ha":493,"x_min":63,"x_max":324,"o":"m 324 918 l 324 0 l 293 0 l 293 881 l 78 729 l 63 753 l 300 918 l 324 918 z "},"2":{"ha":574,"x_min":44,"x_max":500,"o":"m 269 935 q 424 872 367 935 q 481 708 481 808 q 447 534 481 615 q 338 351 413 453 q 88 31 264 250 l 500 31 l 493 0 l 50 0 l 50 29 q 305 354 226 246 q 416 541 383 463 q 449 707 449 619 q 401 851 449 797 q 269 906 353 906 q 157 877 206 906 q 68 794 108 849 l 44 810 q 147 904 93 874 q 269 935 200 935 z "},"3":{"ha":594,"x_min":35,"x_max":506,"o":"m 271 935 q 426 873 368 935 q 483 710 483 811 q 434 558 483 613 q 307 490 385 503 q 451 425 396 485 q 506 254 506 365 q 440 60 506 133 q 264 -14 374 -14 q 137 14 190 -14 q 35 101 83 42 l 57 117 q 151 38 103 61 q 263 14 199 14 q 417 80 360 14 q 475 253 475 146 q 417 419 475 364 q 257 475 358 475 l 210 475 l 213 503 l 256 503 q 351 525 306 503 q 424 594 396 547 q 453 710 453 642 q 403 853 453 800 q 271 907 354 907 q 169 885 215 907 q 76 817 124 864 l 58 833 q 156 910 104 885 q 271 935 208 935 z "},"4":{"ha":631,"x_min":64,"x_max":581,"o":"m 581 288 l 581 260 l 465 260 l 465 0 l 435 0 l 435 260 l 64 260 l 64 285 l 321 935 l 347 925 l 96 288 l 435 288 l 439 581 l 465 581 l 465 288 l 581 288 z "},"5":{"ha":593,"x_min":53,"x_max":519,"o":"m 488 890 l 139 890 l 139 522 q 293 576 206 576 q 459 503 399 576 q 519 297 519 429 q 453 72 519 157 q 272 -14 388 -14 q 53 90 142 -14 l 76 108 q 163 39 115 63 q 274 15 211 15 q 431 92 374 15 q 488 297 488 168 q 435 483 488 419 q 290 547 382 547 q 208 534 243 547 q 133 492 172 521 l 110 492 l 110 918 l 494 918 l 488 890 z "},"6":{"ha":647,"x_min":99,"x_max":569,"o":"m 357 593 q 511 521 453 593 q 569 308 569 449 q 509 69 569 153 q 346 -14 449 -14 q 158 99 218 -14 q 99 400 99 213 q 133 687 99 567 q 230 871 167 807 q 382 935 293 935 q 456 922 424 935 q 521 883 489 908 l 503 861 q 446 894 475 883 q 381 906 417 906 q 198 777 264 906 q 129 433 132 649 q 357 593 219 593 m 346 15 q 489 93 439 15 q 539 307 539 171 q 490 499 539 435 q 357 564 440 564 q 228 517 285 564 q 129 386 171 469 q 183 113 132 211 q 346 15 235 15 z "},"7":{"ha":542,"x_min":47,"x_max":488,"o":"m 488 918 l 488 893 l 144 -8 l 115 3 l 456 890 l 47 890 l 47 918 l 488 918 z "},"8":{"ha":661,"x_min":79,"x_max":582,"o":"m 388 481 q 538 378 494 432 q 582 232 582 325 q 513 52 582 118 q 331 -14 444 -14 q 147 53 215 -14 q 79 233 79 119 q 275 503 79 424 q 153 589 190 542 q 117 713 117 636 q 146 833 117 782 q 224 909 175 883 q 332 935 274 935 q 485 877 422 935 q 547 711 547 819 q 510 581 547 635 q 388 481 472 528 m 147 711 q 181 599 147 642 q 307 515 215 557 l 364 490 q 480 588 444 538 q 515 710 515 638 q 465 857 515 807 q 332 907 414 907 q 200 856 253 907 q 147 711 147 804 m 331 15 q 491 71 431 15 q 551 232 551 126 q 531 335 551 294 q 468 406 510 376 q 353 468 426 435 l 303 489 q 157 387 203 447 q 111 233 111 326 q 171 72 111 128 q 331 15 231 15 z "},"9":{"ha":638,"x_min":76,"x_max":547,"o":"m 313 935 q 490 838 433 935 q 547 551 547 742 q 502 273 547 383 q 372 94 457 163 q 157 -21 288 25 l 147 4 q 344 108 265 47 q 467 265 424 169 q 517 503 511 361 q 297 354 429 354 q 138 430 199 354 q 76 638 76 506 q 142 856 76 778 q 313 935 207 935 m 299 383 q 419 424 367 383 q 517 547 471 465 q 468 817 515 728 q 314 906 421 906 q 163 837 218 906 q 108 636 108 768 q 160 450 108 517 q 299 383 211 383 z "},"\r":{"ha":368,"x_min":0,"x_max":0,"o":""}," ":{"ha":368,"x_min":0,"x_max":0,"o":""},"A":{"ha":707,"x_min":39,"x_max":668,"o":"m 636 0 l 550 282 l 156 282 l 69 0 l 39 0 l 333 946 l 372 946 l 668 0 l 636 0 m 165 311 l 540 311 l 353 921 l 165 311 z "},"Á":{"ha":707,"x_min":39,"x_max":668,"o":"m 636 0 l 550 282 l 156 282 l 69 0 l 39 0 l 333 946 l 372 946 l 668 0 l 636 0 m 165 311 l 540 311 l 353 921 l 165 311 m 454 1193 l 469 1163 l 246 1061 l 236 1082 l 454 1193 z "},"Ă":{"ha":707,"x_min":39,"x_max":668,"o":"m 636 0 l 550 282 l 156 282 l 69 0 l 39 0 l 333 946 l 372 946 l 668 0 l 636 0 m 165 311 l 540 311 l 353 921 l 165 311 m 354 1071 q 263 1101 300 1071 q 217 1176 225 1131 l 239 1182 q 281 1122 251 1144 q 354 1100 311 1100 q 426 1122 396 1100 q 469 1182 457 1144 l 490 1176 q 445 1101 482 1131 q 354 1071 408 1071 z "},"Ắ":{"ha":707,"x_min":39,"x_max":668,"o":"m 636 0 l 550 282 l 156 282 l 69 0 l 39 0 l 333 946 l 372 946 l 668 0 l 636 0 m 165 311 l 540 311 l 353 921 l 165 311 m 354 1024 q 263 1053 300 1024 q 217 1129 225 1083 l 239 1135 q 281 1075 251 1097 q 354 1053 311 1053 q 426 1075 396 1053 q 469 1135 457 1097 l 490 1129 q 445 1053 482 1083 q 354 1024 408 1024 m 461 1350 l 488 1329 l 357 1171 l 339 1185 l 461 1350 z "},"Ặ":{"ha":707,"x_min":39,"x_max":668,"o":"m 636 0 l 550 282 l 156 282 l 69 0 l 39 0 l 333 946 l 372 946 l 668 0 l 636 0 m 165 311 l 540 311 l 353 921 l 165 311 m 354 1071 q 263 1101 300 1071 q 217 1176 225 1131 l 239 1182 q 281 1122 251 1144 q 354 1100 311 1100 q 426 1122 396 1100 q 469 1182 457 1144 l 490 1176 q 445 1101 482 1131 q 354 1071 408 1071 m 354 -192 q 334 -183 342 -192 q 326 -164 326 -175 q 334 -145 326 -153 q 354 -137 342 -137 q 374 -145 367 -137 q 382 -164 382 -153 q 374 -183 382 -175 q 354 -192 367 -192 z "},"Ằ":{"ha":707,"x_min":39,"x_max":668,"o":"m 636 0 l 550 282 l 156 282 l 69 0 l 39 0 l 333 946 l 372 946 l 668 0 l 636 0 m 165 311 l 540 311 l 353 921 l 165 311 m 353 1024 q 261 1053 299 1024 q 215 1129 224 1083 l 238 1135 q 280 1075 250 1097 q 353 1053 310 1053 q 425 1075 394 1053 q 468 1135 456 1097 l 489 1129 q 444 1053 481 1083 q 353 1024 407 1024 m 258 1350 l 382 1185 l 364 1171 l 233 1329 l 258 1350 z "},"Ẳ":{"ha":707,"x_min":39,"x_max":668,"o":"m 636 0 l 550 282 l 156 282 l 69 0 l 39 0 l 333 946 l 372 946 l 668 0 l 636 0 m 165 311 l 540 311 l 353 921 l 165 311 m 356 1024 q 264 1053 301 1024 q 218 1129 226 1083 l 240 1135 q 283 1075 253 1097 q 356 1053 313 1053 q 428 1075 397 1053 q 471 1135 458 1097 l 492 1129 q 447 1053 483 1083 q 356 1024 410 1024 m 336 1214 q 419 1286 419 1217 q 402 1333 419 1317 q 354 1350 385 1350 q 285 1331 317 1350 l 272 1353 q 357 1378 311 1378 q 426 1353 400 1378 q 451 1286 451 1328 q 365 1194 451 1204 l 365 1135 l 336 1135 l 336 1214 z "},"Ẵ":{"ha":707,"x_min":39,"x_max":668,"o":"m 636 0 l 550 282 l 156 282 l 69 0 l 39 0 l 333 946 l 372 946 l 668 0 l 636 0 m 165 311 l 540 311 l 353 921 l 165 311 m 357 1024 q 265 1053 303 1024 q 219 1129 228 1083 l 242 1135 q 284 1075 254 1097 q 357 1053 314 1053 q 429 1075 399 1053 q 472 1135 460 1097 l 493 1129 q 448 1053 485 1083 q 357 1024 411 1024 m 431 1215 q 392 1224 410 1215 q 346 1249 374 1232 q 311 1269 325 1263 q 283 1276 297 1276 q 246 1265 263 1276 q 210 1228 229 1254 l 190 1239 q 235 1287 213 1271 q 283 1303 257 1303 q 315 1296 300 1303 q 357 1274 331 1289 q 397 1251 379 1258 q 431 1243 414 1243 q 468 1256 451 1243 q 504 1299 485 1268 l 524 1289 q 481 1233 503 1250 q 431 1215 458 1215 z "},"Ǎ":{"ha":707,"x_min":39,"x_max":668,"o":"m 636 0 l 550 282 l 156 282 l 69 0 l 39 0 l 333 946 l 372 946 l 668 0 l 636 0 m 165 311 l 540 311 l 353 921 l 165 311 m 497 1199 l 513 1182 l 361 1056 l 344 1056 l 194 1182 l 208 1199 l 353 1088 l 497 1199 z "},"Â":{"ha":707,"x_min":39,"x_max":668,"o":"m 636 0 l 550 282 l 156 282 l 69 0 l 39 0 l 333 946 l 372 946 l 668 0 l 636 0 m 165 311 l 540 311 l 353 921 l 165 311 m 210 1065 l 194 1082 l 344 1207 l 361 1207 l 513 1082 l 497 1065 l 353 1175 l 210 1065 z "},"Ấ":{"ha":707,"x_min":39,"x_max":668,"o":"m 636 0 l 550 282 l 156 282 l 69 0 l 39 0 l 333 946 l 372 946 l 668 0 l 636 0 m 165 311 l 540 311 l 353 921 l 165 311 m 213 1025 l 197 1042 l 347 1167 l 364 1167 l 515 1042 l 500 1025 l 356 1135 l 213 1025 m 582 1324 l 608 1303 l 478 1144 l 460 1158 l 582 1324 z "},"Ậ":{"ha":707,"x_min":39,"x_max":668,"o":"m 636 0 l 550 282 l 156 282 l 69 0 l 39 0 l 333 946 l 372 946 l 668 0 l 636 0 m 165 311 l 540 311 l 353 921 l 165 311 m 210 1065 l 194 1082 l 344 1207 l 361 1207 l 513 1082 l 497 1065 l 353 1175 l 210 1065 m 354 -192 q 334 -183 342 -192 q 326 -164 326 -175 q 334 -145 326 -153 q 354 -137 342 -137 q 374 -145 367 -137 q 382 -164 382 -153 q 374 -183 382 -175 q 354 -192 367 -192 z "},"Ầ":{"ha":707,"x_min":39,"x_max":668,"o":"m 636 0 l 550 282 l 156 282 l 69 0 l 39 0 l 333 946 l 372 946 l 668 0 l 636 0 m 165 311 l 540 311 l 353 921 l 165 311 m 210 1025 l 194 1042 l 344 1167 l 361 1167 l 513 1042 l 497 1025 l 353 1135 l 210 1025 m 132 1324 l 256 1158 l 238 1144 l 107 1303 l 132 1324 z "},"Ẩ":{"ha":707,"x_min":39,"x_max":668,"o":"m 636 0 l 550 282 l 156 282 l 69 0 l 39 0 l 333 946 l 372 946 l 668 0 l 636 0 m 165 311 l 540 311 l 353 921 l 165 311 m 210 1025 l 194 1042 l 344 1167 l 361 1167 l 513 1042 l 497 1025 l 353 1135 l 210 1025 m 471 1196 q 554 1268 554 1199 q 537 1315 554 1299 q 489 1332 519 1332 q 419 1313 451 1332 l 407 1335 q 492 1360 446 1360 q 560 1335 535 1360 q 586 1268 586 1310 q 500 1176 586 1186 l 500 1117 l 471 1117 l 471 1196 z "},"Ẫ":{"ha":707,"x_min":39,"x_max":668,"o":"m 636 0 l 550 282 l 156 282 l 69 0 l 39 0 l 333 946 l 372 946 l 668 0 l 636 0 m 165 311 l 540 311 l 353 921 l 165 311 m 210 1025 l 194 1042 l 344 1167 l 361 1167 l 513 1042 l 497 1025 l 353 1135 l 210 1025 m 426 1231 q 388 1239 406 1231 q 342 1264 369 1247 q 307 1285 321 1278 q 279 1292 293 1292 q 242 1281 258 1292 q 206 1243 225 1269 l 186 1254 q 231 1302 208 1286 q 279 1318 253 1318 q 311 1311 296 1318 q 353 1289 326 1304 q 392 1266 375 1274 q 426 1258 410 1258 q 464 1271 447 1258 q 500 1314 481 1283 l 519 1304 q 476 1248 499 1265 q 426 1231 454 1231 z "},"Ȁ":{"ha":707,"x_min":39,"x_max":668,"o":"m 636 0 l 550 282 l 156 282 l 69 0 l 39 0 l 333 946 l 372 946 l 668 0 l 636 0 m 165 311 l 540 311 l 353 921 l 165 311 m 207 1274 l 297 1092 l 275 1081 l 178 1260 l 207 1274 m 346 1272 l 428 1096 l 407 1086 l 317 1257 l 346 1272 z "},"Ä":{"ha":707,"x_min":39,"x_max":668,"o":"m 636 0 l 550 282 l 156 282 l 69 0 l 39 0 l 333 946 l 372 946 l 668 0 l 636 0 m 165 311 l 540 311 l 353 921 l 165 311 m 253 1164 q 273 1156 265 1164 q 281 1136 281 1149 q 273 1117 281 1125 q 253 1110 265 1110 q 234 1117 242 1110 q 226 1136 226 1125 q 234 1156 226 1147 q 253 1164 242 1164 m 463 1164 q 483 1156 475 1164 q 490 1136 490 1147 q 483 1117 490 1125 q 463 1110 475 1110 q 442 1117 450 1110 q 435 1136 435 1125 q 442 1156 435 1147 q 463 1164 450 1164 z "},"Ǟ":{"ha":707,"x_min":39,"x_max":668,"o":"m 636 0 l 550 282 l 156 282 l 69 0 l 39 0 l 333 946 l 372 946 l 668 0 l 636 0 m 165 311 l 540 311 l 353 921 l 165 311 m 249 1085 q 269 1077 261 1085 q 276 1057 276 1069 q 269 1038 276 1046 q 249 1031 261 1031 q 230 1038 238 1031 q 222 1057 222 1046 q 230 1076 222 1068 q 249 1085 238 1085 m 458 1085 q 478 1076 471 1085 q 486 1057 486 1068 q 478 1038 486 1046 q 458 1031 471 1031 q 438 1038 446 1031 q 431 1057 431 1046 q 438 1076 431 1068 q 458 1085 446 1085 m 486 1181 l 224 1181 l 224 1210 l 486 1210 l 486 1181 z "},"Ȧ":{"ha":707,"x_min":39,"x_max":668,"o":"m 636 0 l 550 282 l 156 282 l 69 0 l 39 0 l 333 946 l 372 946 l 668 0 l 636 0 m 165 311 l 540 311 l 353 921 l 165 311 m 356 1181 q 376 1172 368 1181 q 383 1153 383 1164 q 376 1134 383 1142 q 356 1126 368 1126 q 335 1134 343 1126 q 328 1153 328 1142 q 335 1172 328 1164 q 356 1181 343 1181 z "},"Ạ":{"ha":707,"x_min":39,"x_max":668,"o":"m 636 0 l 550 282 l 156 282 l 69 0 l 39 0 l 333 946 l 372 946 l 668 0 l 636 0 m 165 311 l 540 311 l 353 921 l 165 311 m 354 -192 q 334 -183 342 -192 q 326 -164 326 -175 q 334 -145 326 -153 q 354 -137 342 -137 q 374 -145 367 -137 q 382 -164 382 -153 q 374 -183 382 -175 q 354 -192 367 -192 z "},"Ǡ":{"ha":707,"x_min":39,"x_max":668,"o":"m 636 0 l 550 282 l 156 282 l 69 0 l 39 0 l 333 946 l 372 946 l 668 0 l 636 0 m 165 311 l 540 311 l 353 921 l 165 311 m 354 1092 q 374 1083 367 1092 q 382 1064 382 1075 q 374 1045 382 1053 q 354 1038 367 1038 q 334 1045 342 1038 q 326 1064 326 1053 q 334 1083 326 1075 q 354 1092 342 1092 m 486 1179 l 224 1179 l 224 1208 l 486 1208 l 486 1179 z "},"À":{"ha":707,"x_min":39,"x_max":668,"o":"m 636 0 l 550 282 l 156 282 l 69 0 l 39 0 l 333 946 l 372 946 l 668 0 l 636 0 m 165 311 l 540 311 l 353 921 l 165 311 m 256 1193 l 472 1081 l 463 1060 l 239 1163 l 256 1193 z "},"Ả":{"ha":707,"x_min":39,"x_max":668,"o":"m 636 0 l 550 282 l 156 282 l 69 0 l 39 0 l 333 946 l 372 946 l 668 0 l 636 0 m 165 311 l 540 311 l 353 921 l 165 311 m 340 1165 q 424 1238 424 1168 q 406 1285 424 1268 q 358 1301 389 1301 q 289 1282 321 1301 l 276 1304 q 361 1329 315 1329 q 430 1304 404 1329 q 456 1238 456 1279 q 369 1146 456 1156 l 369 1086 l 340 1086 l 340 1165 z "},"Ȃ":{"ha":707,"x_min":39,"x_max":668,"o":"m 636 0 l 550 282 l 156 282 l 69 0 l 39 0 l 333 946 l 372 946 l 668 0 l 636 0 m 165 311 l 540 311 l 353 921 l 165 311 m 354 1232 q 445 1199 408 1232 q 490 1113 482 1167 l 468 1107 q 428 1178 457 1154 q 354 1203 399 1203 q 239 1107 261 1203 l 217 1113 q 262 1199 225 1167 q 354 1232 299 1232 z "},"Ɑ":{"ha":829,"x_min":97,"x_max":735,"o":"m 671 128 q 685 60 671 82 q 735 19 699 38 l 724 -7 q 662 38 681 11 q 640 113 643 65 q 543 18 597 50 q 415 -14 489 -14 q 251 38 322 -14 q 138 197 179 90 q 97 457 97 303 q 139 734 97 621 q 253 903 181 847 q 421 960 326 960 q 642 853 556 960 l 643 946 l 671 946 l 671 128 m 415 17 q 640 156 556 17 l 640 811 q 547 899 603 868 q 422 931 490 931 q 270 878 336 931 q 167 721 204 826 q 129 457 129 615 q 208 128 129 239 q 415 17 288 17 z "},"Ā":{"ha":707,"x_min":39,"x_max":668,"o":"m 636 0 l 550 282 l 156 282 l 69 0 l 39 0 l 333 946 l 372 946 l 668 0 l 636 0 m 165 311 l 540 311 l 353 921 l 165 311 m 486 1126 l 224 1126 l 224 1156 l 486 1156 l 486 1126 z "},"Ą":{"ha":707,"x_min":39,"x_max":668,"o":"m 511 -171 q 533 -231 511 -210 q 599 -251 556 -251 q 668 -242 631 -251 l 665 -272 q 597 -282 628 -282 q 510 -251 540 -282 q 479 -171 479 -221 q 519 -72 479 -114 q 633 7 558 -31 l 550 282 l 156 282 l 69 0 l 39 0 l 333 946 l 372 946 l 668 0 q 551 -76 590 -37 q 511 -171 511 -114 m 165 311 l 540 311 l 353 921 l 165 311 z "},"Å":{"ha":707,"x_min":39,"x_max":668,"o":"m 636 0 l 550 282 l 156 282 l 69 0 l 39 0 l 333 946 l 372 946 l 668 0 l 636 0 m 165 311 l 540 311 l 353 921 l 165 311 m 354 1288 q 428 1258 400 1288 q 456 1179 456 1229 q 428 1099 456 1128 q 354 1069 400 1069 q 281 1099 308 1069 q 254 1178 254 1128 q 281 1258 254 1229 q 354 1288 308 1288 m 354 1263 q 301 1241 319 1263 q 282 1178 282 1219 q 301 1115 282 1136 q 354 1094 319 1094 q 409 1116 390 1094 q 428 1179 428 1138 q 354 1263 428 1263 z "},"Ǻ":{"ha":707,"x_min":39,"x_max":668,"o":"m 636 0 l 550 282 l 156 282 l 69 0 l 39 0 l 333 946 l 372 946 l 668 0 l 636 0 m 165 311 l 540 311 l 353 921 l 165 311 m 357 1232 q 431 1203 403 1232 q 458 1124 458 1174 q 431 1043 458 1072 q 357 1014 403 1014 q 284 1043 311 1014 q 257 1122 257 1072 q 284 1203 257 1174 q 357 1232 311 1232 m 357 1207 q 303 1185 322 1207 q 285 1122 285 1164 q 303 1060 285 1081 q 357 1039 322 1039 q 412 1060 393 1039 q 431 1124 431 1082 q 357 1207 431 1207 m 458 1392 l 474 1361 l 250 1260 l 240 1281 l 458 1392 z "},"Ⱥ":{"ha":707,"x_min":39,"x_max":668,"o":"m 636 0 l 550 282 l 332 282 l 244 -92 l 221 -86 l 308 282 l 156 282 l 69 0 l 39 0 l 333 946 l 372 946 l 425 776 l 483 1024 l 506 1018 l 439 733 l 668 0 l 636 0 m 165 311 l 315 311 l 413 725 l 353 921 l 165 311 m 339 311 l 540 311 l 426 682 l 339 311 z "},"Ã":{"ha":707,"x_min":39,"x_max":668,"o":"m 636 0 l 550 282 l 156 282 l 69 0 l 39 0 l 333 946 l 372 946 l 668 0 l 636 0 m 165 311 l 540 311 l 353 921 l 165 311 m 428 1117 q 389 1125 407 1117 q 343 1150 371 1133 q 308 1171 322 1164 q 281 1178 294 1178 q 243 1167 260 1178 q 207 1129 226 1156 l 188 1140 q 232 1188 210 1172 q 281 1204 254 1204 q 313 1197 297 1204 q 354 1175 329 1190 q 394 1152 378 1160 q 428 1144 410 1144 q 465 1157 449 1144 q 501 1200 482 1169 l 521 1190 q 478 1134 500 1151 q 428 1117 456 1117 z "},"Æ":{"ha":947,"x_min":15,"x_max":893,"o":"m 604 29 l 893 29 l 893 0 l 579 0 l 515 272 l 139 272 l 46 0 l 15 0 l 344 946 l 826 946 l 822 917 l 394 917 l 490 514 l 817 514 l 817 485 l 496 485 l 604 29 m 150 303 l 508 303 l 363 921 l 150 303 z "},"Ǽ":{"ha":947,"x_min":15,"x_max":893,"o":"m 604 29 l 893 29 l 893 0 l 579 0 l 515 272 l 139 272 l 46 0 l 15 0 l 344 946 l 826 946 l 822 917 l 394 917 l 490 514 l 817 514 l 817 485 l 496 485 l 604 29 m 150 303 l 508 303 l 363 921 l 150 303 m 660 1193 l 675 1163 l 451 1061 l 442 1082 l 660 1193 z "},"Ǣ":{"ha":947,"x_min":15,"x_max":893,"o":"m 604 29 l 893 29 l 893 0 l 579 0 l 515 272 l 139 272 l 46 0 l 15 0 l 344 946 l 826 946 l 822 917 l 394 917 l 490 514 l 817 514 l 817 485 l 496 485 l 604 29 m 150 303 l 508 303 l 363 921 l 150 303 m 692 1126 l 429 1126 l 429 1156 l 692 1156 l 692 1126 z "},"B":{"ha":735,"x_min":153,"x_max":658,"o":"m 440 501 q 598 433 538 494 q 658 256 658 372 q 581 65 658 129 q 367 0 504 0 l 153 0 l 153 946 l 324 946 q 540 886 464 946 q 615 713 615 826 q 569 570 615 624 q 440 501 524 517 m 185 917 l 185 514 l 378 514 q 527 569 472 514 q 582 711 582 624 q 517 865 582 813 q 328 917 453 917 l 185 917 m 368 29 q 558 85 490 29 q 626 256 626 142 q 562 427 626 368 q 385 486 497 486 l 185 486 l 185 29 l 368 29 z "},"Ḃ":{"ha":735,"x_min":153,"x_max":658,"o":"m 440 501 q 598 433 538 494 q 658 256 658 372 q 581 65 658 129 q 367 0 504 0 l 153 0 l 153 946 l 324 946 q 540 886 464 946 q 615 713 615 826 q 569 570 615 624 q 440 501 524 517 m 185 917 l 185 514 l 378 514 q 527 569 472 514 q 582 711 582 624 q 517 865 582 813 q 328 917 453 917 l 185 917 m 368 29 q 558 85 490 29 q 626 256 626 142 q 562 427 626 368 q 385 486 497 486 l 185 486 l 185 29 l 368 29 m 363 1181 q 383 1172 375 1181 q 390 1153 390 1164 q 383 1134 390 1142 q 363 1126 375 1126 q 342 1134 350 1126 q 335 1153 335 1142 q 342 1172 335 1164 q 363 1181 350 1181 z "},"Ḅ":{"ha":735,"x_min":153,"x_max":658,"o":"m 440 501 q 598 433 538 494 q 658 256 658 372 q 581 65 658 129 q 367 0 504 0 l 153 0 l 153 946 l 324 946 q 540 886 464 946 q 615 713 615 826 q 569 570 615 624 q 440 501 524 517 m 185 917 l 185 514 l 378 514 q 527 569 472 514 q 582 711 582 624 q 517 865 582 813 q 328 917 453 917 l 185 917 m 368 29 q 558 85 490 29 q 626 256 626 142 q 562 427 626 368 q 385 486 497 486 l 185 486 l 185 29 l 368 29 m 388 -192 q 367 -183 375 -192 q 360 -164 360 -175 q 367 -145 360 -153 q 388 -137 375 -137 q 408 -145 400 -137 q 415 -164 415 -153 q 408 -183 415 -175 q 388 -192 400 -192 z "},"Ꞵ":{"ha":735,"x_min":153,"x_max":658,"o":"m 440 501 q 599 436 539 494 q 658 265 658 378 q 584 68 658 136 q 385 0 510 0 q 185 40 278 0 l 185 -267 l 153 -267 l 153 946 l 324 946 q 540 886 464 946 q 615 713 615 826 q 569 569 615 622 q 440 501 524 517 m 385 29 q 561 89 496 29 q 626 265 626 149 q 563 430 626 374 q 385 486 499 486 l 292 486 l 296 514 l 378 514 q 527 568 472 514 q 582 711 582 622 q 517 865 582 813 q 328 917 453 917 l 185 917 l 185 69 q 385 29 279 29 z "},"Ɓ":{"ha":789,"x_min":28,"x_max":713,"o":"m 494 501 q 652 433 592 494 q 713 256 713 372 q 635 65 713 129 q 421 0 558 0 l 207 0 l 207 918 l 169 918 q 86 890 114 918 q 58 813 58 861 q 67 756 58 781 q 92 706 75 732 l 68 692 q 38 748 49 722 q 28 813 28 774 q 65 910 28 875 q 172 946 101 946 l 378 946 q 594 886 518 946 q 669 713 669 826 q 624 570 669 624 q 494 501 578 517 m 239 917 l 239 514 l 432 514 q 581 569 526 514 q 636 711 636 624 q 572 865 636 813 q 382 917 507 917 l 239 917 m 422 29 q 613 85 544 29 q 681 256 681 142 q 616 427 681 368 q 439 486 551 486 l 239 486 l 239 29 l 422 29 z "},"Ƀ":{"ha":729,"x_min":33,"x_max":654,"o":"m 436 501 q 594 433 533 494 q 654 256 654 372 q 577 65 654 129 q 363 0 500 0 l 149 0 l 149 254 l 33 254 l 33 283 l 149 283 l 149 946 l 319 946 q 535 886 460 946 q 611 713 611 826 q 565 570 611 624 q 436 501 519 517 m 181 917 l 181 514 l 374 514 q 523 569 468 514 q 578 711 578 624 q 513 865 578 813 q 324 917 449 917 l 181 917 m 364 29 q 554 85 486 29 q 622 256 622 142 q 558 427 622 368 q 381 486 493 486 l 181 486 l 181 283 l 418 283 l 418 254 l 181 254 l 181 29 l 364 29 z "},"Ƃ":{"ha":706,"x_min":153,"x_max":629,"o":"m 338 563 q 554 494 479 563 q 629 293 629 426 q 552 73 629 146 q 339 0 475 0 l 153 0 l 153 946 l 550 946 l 544 917 l 185 917 l 185 563 l 338 563 m 346 29 q 531 94 465 29 q 596 293 596 160 q 531 474 596 414 q 340 533 465 533 l 185 533 l 185 29 l 346 29 z "},"C":{"ha":674,"x_min":97,"x_max":643,"o":"m 431 960 q 543 940 496 960 q 632 879 590 919 l 615 858 q 530 913 571 896 q 432 931 489 931 q 213 817 296 931 q 129 472 129 704 q 168 220 129 322 q 274 67 207 118 q 429 17 342 17 q 536 37 493 17 q 624 96 579 57 l 643 74 q 428 -14 550 -14 q 256 41 331 -14 q 139 205 181 96 q 97 472 97 314 q 140 744 97 635 q 258 907 183 854 q 431 960 333 960 z "},"Ć":{"ha":674,"x_min":97,"x_max":643,"o":"m 431 960 q 543 940 496 960 q 632 879 590 919 l 615 858 q 530 913 571 896 q 432 931 489 931 q 213 817 296 931 q 129 472 129 704 q 168 220 129 322 q 274 67 207 118 q 429 17 342 17 q 536 37 493 17 q 624 96 579 57 l 643 74 q 428 -14 550 -14 q 256 41 331 -14 q 139 205 181 96 q 97 472 97 314 q 140 744 97 635 q 258 907 183 854 q 431 960 333 960 m 528 1193 l 543 1163 l 319 1061 l 310 1082 l 528 1193 z "},"Č":{"ha":674,"x_min":97,"x_max":643,"o":"m 431 960 q 543 940 496 960 q 632 879 590 919 l 615 858 q 530 913 571 896 q 432 931 489 931 q 213 817 296 931 q 129 472 129 704 q 168 220 129 322 q 274 67 207 118 q 429 17 342 17 q 536 37 493 17 q 624 96 579 57 l 643 74 q 428 -14 550 -14 q 256 41 331 -14 q 139 205 181 96 q 97 472 97 314 q 140 744 97 635 q 258 907 183 854 q 431 960 333 960 m 571 1199 l 586 1182 l 435 1056 l 418 1056 l 268 1182 l 282 1199 l 426 1088 l 571 1199 z "},"Ç":{"ha":674,"x_min":97,"x_max":643,"o":"m 429 -103 q 543 -196 543 -111 q 512 -269 543 -243 q 436 -294 481 -294 q 350 -269 388 -294 l 364 -247 q 436 -268 396 -268 q 491 -250 469 -268 q 513 -196 513 -232 q 485 -143 513 -160 q 400 -125 458 -126 l 407 -14 q 245 50 315 -7 q 136 214 175 107 q 97 472 97 321 q 140 744 97 635 q 258 907 183 854 q 431 960 333 960 q 543 940 496 960 q 632 879 590 919 l 615 858 q 530 913 571 896 q 432 931 489 931 q 213 817 296 931 q 129 472 129 704 q 168 220 129 322 q 274 67 207 118 q 429 17 342 17 q 536 37 493 17 q 624 96 579 57 l 643 74 q 549 10 600 33 q 431 -14 497 -14 l 429 -103 z "},"Ĉ":{"ha":674,"x_min":97,"x_max":643,"o":"m 431 960 q 543 940 496 960 q 632 879 590 919 l 615 858 q 530 913 571 896 q 432 931 489 931 q 213 817 296 931 q 129 472 129 704 q 168 220 129 322 q 274 67 207 118 q 429 17 342 17 q 536 37 493 17 q 624 96 579 57 l 643 74 q 428 -14 550 -14 q 256 41 331 -14 q 139 205 181 96 q 97 472 97 314 q 140 744 97 635 q 258 907 183 854 q 431 960 333 960 m 283 1065 l 268 1082 l 418 1207 l 435 1207 l 586 1082 l 571 1065 l 426 1175 l 283 1065 z "},"Ċ":{"ha":674,"x_min":97,"x_max":643,"o":"m 431 960 q 543 940 496 960 q 632 879 590 919 l 615 858 q 530 913 571 896 q 432 931 489 931 q 213 817 296 931 q 129 472 129 704 q 168 220 129 322 q 274 67 207 118 q 429 17 342 17 q 536 37 493 17 q 624 96 579 57 l 643 74 q 428 -14 550 -14 q 256 41 331 -14 q 139 205 181 96 q 97 472 97 314 q 140 744 97 635 q 258 907 183 854 q 431 960 333 960 m 429 1181 q 449 1172 442 1181 q 457 1153 457 1164 q 449 1134 457 1142 q 429 1126 442 1126 q 409 1134 417 1126 q 401 1153 401 1142 q 409 1172 401 1164 q 429 1181 417 1181 z "},"Ꭓ":{"ha":599,"x_min":19,"x_max":579,"o":"m 315 447 l 579 -137 l 544 -137 l 296 428 l 54 -137 l 19 -137 l 278 446 l 50 946 l 86 946 l 297 465 l 506 946 l 540 946 l 315 447 z "},"Ƈ":{"ha":674,"x_min":97,"x_max":838,"o":"m 726 1131 q 838 1089 788 1131 l 822 1068 q 777 1094 799 1085 q 726 1103 756 1103 q 658 1074 683 1103 q 632 983 632 1046 l 632 879 l 614 860 q 530 913 571 896 q 432 931 489 931 q 213 817 296 931 q 129 472 129 704 q 168 220 129 322 q 274 67 207 118 q 429 17 342 17 q 536 37 493 17 q 624 96 579 57 l 643 74 q 428 -14 550 -14 q 256 41 331 -14 q 139 205 181 96 q 97 472 97 314 q 140 744 97 635 q 258 907 183 854 q 431 960 333 960 q 601 901 532 960 l 601 985 q 635 1093 601 1056 q 726 1131 669 1131 z "},"Ȼ":{"ha":674,"x_min":97,"x_max":643,"o":"m 643 74 q 428 -14 550 -14 q 301 14 361 -14 l 276 -92 l 254 -86 l 281 25 q 146 189 194 75 q 97 472 97 303 q 140 744 97 635 q 258 907 183 854 q 431 960 333 960 q 499 953 464 960 l 515 1024 l 539 1018 l 522 947 q 632 879 581 928 l 615 858 q 515 918 564 903 l 308 44 q 429 17 367 17 q 536 37 493 17 q 624 96 579 57 l 643 74 m 129 472 q 171 210 129 315 q 288 57 213 106 l 492 925 q 432 931 468 931 q 213 817 296 931 q 129 472 129 704 z "},"D":{"ha":776,"x_min":153,"x_max":679,"o":"m 306 946 q 575 847 471 946 q 679 483 679 747 q 573 108 679 215 q 311 0 467 0 l 153 0 l 153 946 l 306 946 m 185 917 l 185 29 l 313 29 q 551 130 457 29 q 646 483 646 231 q 551 826 646 736 q 304 917 456 917 l 185 917 z "},"Ǳ":{"ha":1379,"x_min":153,"x_max":1317,"o":"m 306 946 q 575 847 471 946 q 679 483 679 747 q 573 108 679 215 q 311 0 467 0 l 153 0 l 153 946 l 306 946 m 185 917 l 185 29 l 313 29 q 551 130 457 29 q 646 483 646 231 q 551 826 646 736 q 304 917 456 917 l 185 917 m 1317 946 l 1317 919 l 828 31 l 1300 31 l 1296 0 l 793 0 l 793 29 l 1282 917 l 840 917 l 840 946 l 1317 946 z "},"Ǆ":{"ha":1379,"x_min":153,"x_max":1317,"o":"m 306 946 q 575 847 471 946 q 679 483 679 747 q 573 108 679 215 q 311 0 467 0 l 153 0 l 153 946 l 306 946 m 185 917 l 185 29 l 313 29 q 551 130 457 29 q 646 483 646 231 q 551 826 646 736 q 304 917 456 917 l 185 917 m 1317 946 l 1317 919 l 828 31 l 1300 31 l 1296 0 l 793 0 l 793 29 l 1282 917 l 840 917 l 840 946 l 1317 946 m 1204 1199 l 1219 1182 l 1068 1056 l 1051 1056 l 901 1182 l 915 1199 l 1060 1088 l 1204 1199 z "},"Ɖ":{"ha":774,"x_min":33,"x_max":676,"o":"m 303 946 q 572 847 468 946 q 676 483 676 747 q 570 108 676 215 q 308 0 464 0 l 150 0 l 150 474 l 33 474 l 33 504 l 150 504 l 150 946 l 303 946 m 310 29 q 549 130 454 29 q 643 483 643 231 q 548 826 643 736 q 301 917 453 917 l 182 917 l 182 504 l 419 504 l 419 474 l 182 474 l 182 29 l 310 29 z "},"Ð":{"ha":774,"x_min":33,"x_max":676,"o":"m 303 946 q 572 847 468 946 q 676 483 676 747 q 570 108 676 215 q 308 0 464 0 l 150 0 l 150 474 l 33 474 l 33 504 l 150 504 l 150 946 l 303 946 m 310 29 q 549 130 454 29 q 643 483 643 231 q 548 826 643 736 q 301 917 453 917 l 182 917 l 182 504 l 419 504 l 419 474 l 182 474 l 182 29 l 310 29 z "},"Ď":{"ha":776,"x_min":153,"x_max":679,"o":"m 306 946 q 575 847 471 946 q 679 483 679 747 q 573 108 679 215 q 311 0 467 0 l 153 0 l 153 946 l 306 946 m 185 917 l 185 29 l 313 29 q 551 130 457 29 q 646 483 646 231 q 551 826 646 736 q 304 917 456 917 l 185 917 m 511 1199 l 526 1182 l 375 1056 l 358 1056 l 208 1182 l 222 1199 l 367 1088 l 511 1199 z "},"Ḓ":{"ha":776,"x_min":153,"x_max":679,"o":"m 306 946 q 575 847 471 946 q 679 483 679 747 q 573 108 679 215 q 311 0 467 0 l 153 0 l 153 946 l 306 946 m 185 917 l 185 29 l 313 29 q 551 130 457 29 q 646 483 646 231 q 551 826 646 736 q 304 917 456 917 l 185 917 m 236 -254 l 221 -237 l 371 -104 l 389 -104 l 539 -237 l 522 -254 l 379 -136 l 236 -254 z "},"Đ":{"ha":774,"x_min":33,"x_max":676,"o":"m 303 946 q 572 847 468 946 q 676 483 676 747 q 570 108 676 215 q 308 0 464 0 l 150 0 l 150 474 l 33 474 l 33 504 l 150 504 l 150 946 l 303 946 m 310 29 q 549 130 454 29 q 643 483 643 231 q 548 826 643 736 q 301 917 453 917 l 182 917 l 182 504 l 419 504 l 419 474 l 182 474 l 182 29 l 310 29 z "},"Ḋ":{"ha":776,"x_min":153,"x_max":679,"o":"m 306 946 q 575 847 471 946 q 679 483 679 747 q 573 108 679 215 q 311 0 467 0 l 153 0 l 153 946 l 306 946 m 185 917 l 185 29 l 313 29 q 551 130 457 29 q 646 483 646 231 q 551 826 646 736 q 304 917 456 917 l 185 917 m 369 1181 q 390 1172 382 1181 q 397 1153 397 1164 q 390 1134 397 1142 q 369 1126 382 1126 q 349 1134 357 1126 q 342 1153 342 1142 q 349 1172 342 1164 q 369 1181 357 1181 z "},"Ḍ":{"ha":776,"x_min":153,"x_max":679,"o":"m 306 946 q 575 847 471 946 q 679 483 679 747 q 573 108 679 215 q 311 0 467 0 l 153 0 l 153 946 l 306 946 m 185 917 l 185 29 l 313 29 q 551 130 457 29 q 646 483 646 231 q 551 826 646 736 q 304 917 456 917 l 185 917 m 379 -192 q 359 -183 367 -192 q 351 -164 351 -175 q 359 -145 351 -153 q 379 -137 367 -137 q 399 -145 392 -137 q 407 -164 407 -153 q 399 -183 407 -175 q 379 -192 392 -192 z "},"Ɗ":{"ha":831,"x_min":28,"x_max":733,"o":"m 360 946 q 629 847 525 946 q 733 483 733 747 q 627 108 733 215 q 365 0 521 0 l 207 0 l 207 918 l 169 918 q 86 890 114 918 q 58 813 58 861 q 67 756 58 781 q 92 706 75 732 l 68 692 q 38 748 49 722 q 28 813 28 774 q 65 910 28 875 q 172 946 101 946 l 360 946 m 367 29 q 606 130 511 29 q 700 483 700 231 q 605 826 700 736 q 358 917 510 917 l 239 917 l 239 29 l 367 29 z "},"Ḏ":{"ha":776,"x_min":153,"x_max":679,"o":"m 306 946 q 575 847 471 946 q 679 483 679 747 q 573 108 679 215 q 311 0 467 0 l 153 0 l 153 946 l 306 946 m 185 917 l 185 29 l 313 29 q 551 130 457 29 q 646 483 646 231 q 551 826 646 736 q 304 917 456 917 l 185 917 m 511 -193 l 249 -193 l 249 -164 l 511 -164 l 511 -193 z "},"Ƌ":{"ha":706,"x_min":76,"x_max":553,"o":"m 551 944 l 551 0 l 363 0 q 152 69 228 0 q 76 276 76 139 q 155 489 76 415 q 379 563 233 563 l 521 563 l 521 917 l 157 917 l 157 946 l 553 946 l 551 944 m 521 29 l 521 533 l 379 533 q 177 468 246 533 q 108 276 108 403 q 174 90 108 151 q 364 29 240 29 l 521 29 z "},"ǲ":{"ha":1276,"x_min":153,"x_max":1231,"o":"m 306 946 q 575 847 471 946 q 679 483 679 747 q 573 108 679 215 q 311 0 467 0 l 153 0 l 153 946 l 306 946 m 185 917 l 185 29 l 313 29 q 551 130 457 29 q 646 483 646 231 q 551 826 646 736 q 304 917 456 917 l 185 917 m 1231 721 l 1231 696 l 838 29 l 1222 29 l 1219 0 l 801 0 l 801 25 l 1196 693 l 835 693 l 835 721 l 1231 721 z "},"ǅ":{"ha":1276,"x_min":153,"x_max":1231,"o":"m 306 946 q 575 847 471 946 q 679 483 679 747 q 573 108 679 215 q 311 0 467 0 l 153 0 l 153 946 l 306 946 m 185 917 l 185 29 l 313 29 q 551 130 457 29 q 646 483 646 231 q 551 826 646 736 q 304 917 456 917 l 185 917 m 1231 721 l 1231 696 l 838 29 l 1222 29 l 1219 0 l 801 0 l 801 25 l 1196 693 l 835 693 l 835 721 l 1231 721 m 1174 1040 l 1190 1024 l 1039 890 l 1022 890 l 872 1024 l 888 1040 l 1031 922 l 1174 1040 z "},"E":{"ha":619,"x_min":153,"x_max":565,"o":"m 556 946 l 551 917 l 185 917 l 185 514 l 501 514 l 501 485 l 185 485 l 185 29 l 565 29 l 565 0 l 153 0 l 153 946 l 556 946 z "},"É":{"ha":619,"x_min":153,"x_max":565,"o":"m 556 946 l 551 917 l 185 917 l 185 514 l 501 514 l 501 485 l 185 485 l 185 29 l 565 29 l 565 0 l 153 0 l 153 946 l 556 946 m 458 1193 l 474 1163 l 250 1061 l 240 1082 l 458 1193 z "},"Ĕ":{"ha":619,"x_min":153,"x_max":565,"o":"m 556 946 l 551 917 l 185 917 l 185 514 l 501 514 l 501 485 l 185 485 l 185 29 l 565 29 l 565 0 l 153 0 l 153 946 l 556 946 m 358 1071 q 267 1101 304 1071 q 221 1176 229 1131 l 243 1182 q 285 1122 256 1144 q 358 1100 315 1100 q 431 1122 400 1100 q 474 1182 461 1144 l 494 1176 q 449 1101 486 1131 q 358 1071 413 1071 z "},"Ě":{"ha":619,"x_min":153,"x_max":565,"o":"m 556 946 l 551 917 l 185 917 l 185 514 l 501 514 l 501 485 l 185 485 l 185 29 l 565 29 l 565 0 l 153 0 l 153 946 l 556 946 m 501 1199 l 517 1182 l 365 1056 l 349 1056 l 199 1182 l 213 1199 l 357 1088 l 501 1199 z "},"Ȩ":{"ha":619,"x_min":153,"x_max":565,"o":"m 358 0 l 357 -103 q 471 -196 471 -111 q 440 -269 471 -243 q 364 -294 408 -294 q 278 -269 315 -294 l 292 -247 q 364 -268 324 -268 q 419 -250 397 -268 q 440 -196 440 -232 q 413 -143 440 -160 q 328 -125 386 -126 l 335 0 l 153 0 l 153 946 l 556 946 l 551 917 l 185 917 l 185 514 l 501 514 l 501 485 l 185 485 l 185 29 l 565 29 l 565 0 l 358 0 z "},"Ê":{"ha":619,"x_min":153,"x_max":565,"o":"m 556 946 l 551 917 l 185 917 l 185 514 l 501 514 l 501 485 l 185 485 l 185 29 l 565 29 l 565 0 l 153 0 l 153 946 l 556 946 m 214 1065 l 199 1082 l 349 1207 l 365 1207 l 517 1082 l 501 1065 l 357 1175 l 214 1065 z "},"Ế":{"ha":619,"x_min":153,"x_max":613,"o":"m 556 946 l 551 917 l 185 917 l 185 514 l 501 514 l 501 485 l 185 485 l 185 29 l 565 29 l 565 0 l 153 0 l 153 946 l 556 946 m 217 1025 l 201 1042 l 351 1167 l 368 1167 l 519 1042 l 504 1025 l 360 1135 l 217 1025 m 586 1324 l 613 1303 l 482 1144 l 464 1158 l 586 1324 z "},"Ệ":{"ha":619,"x_min":153,"x_max":565,"o":"m 556 946 l 551 917 l 185 917 l 185 514 l 501 514 l 501 485 l 185 485 l 185 29 l 565 29 l 565 0 l 153 0 l 153 946 l 556 946 m 214 1065 l 199 1082 l 349 1207 l 365 1207 l 517 1082 l 501 1065 l 357 1175 l 214 1065 m 354 -192 q 334 -183 342 -192 q 326 -164 326 -175 q 334 -145 326 -153 q 354 -137 342 -137 q 374 -145 367 -137 q 382 -164 382 -153 q 374 -183 382 -175 q 354 -192 367 -192 z "},"Ề":{"ha":619,"x_min":111,"x_max":565,"o":"m 556 946 l 551 917 l 185 917 l 185 514 l 501 514 l 501 485 l 185 485 l 185 29 l 565 29 l 565 0 l 153 0 l 153 946 l 556 946 m 214 1025 l 199 1042 l 349 1167 l 365 1167 l 517 1042 l 501 1025 l 357 1135 l 214 1025 m 136 1324 l 260 1158 l 242 1144 l 111 1303 l 136 1324 z "},"Ể":{"ha":619,"x_min":153,"x_max":590,"o":"m 556 946 l 551 917 l 185 917 l 185 514 l 501 514 l 501 485 l 185 485 l 185 29 l 565 29 l 565 0 l 153 0 l 153 946 l 556 946 m 214 1025 l 199 1042 l 349 1167 l 365 1167 l 517 1042 l 501 1025 l 357 1135 l 214 1025 m 475 1196 q 558 1268 558 1199 q 541 1315 558 1299 q 493 1332 524 1332 q 424 1313 456 1332 l 411 1335 q 496 1360 450 1360 q 565 1335 539 1360 q 590 1268 590 1310 q 504 1176 590 1186 l 504 1117 l 475 1117 l 475 1196 z "},"Ễ":{"ha":619,"x_min":153,"x_max":565,"o":"m 556 946 l 551 917 l 185 917 l 185 514 l 501 514 l 501 485 l 185 485 l 185 29 l 565 29 l 565 0 l 153 0 l 153 946 l 556 946 m 214 1025 l 199 1042 l 349 1167 l 365 1167 l 517 1042 l 501 1025 l 357 1135 l 214 1025 m 431 1231 q 392 1239 410 1231 q 346 1264 374 1247 q 311 1285 325 1278 q 283 1292 297 1292 q 246 1281 263 1292 q 210 1243 229 1269 l 190 1254 q 235 1302 213 1286 q 283 1318 257 1318 q 315 1311 300 1318 q 357 1289 331 1304 q 397 1266 379 1274 q 431 1258 414 1258 q 468 1271 451 1258 q 504 1314 485 1283 l 524 1304 q 481 1248 503 1265 q 431 1231 458 1231 z "},"Ȅ":{"ha":619,"x_min":153,"x_max":565,"o":"m 556 946 l 551 917 l 185 917 l 185 514 l 501 514 l 501 485 l 185 485 l 185 29 l 565 29 l 565 0 l 153 0 l 153 946 l 556 946 m 211 1274 l 301 1092 l 279 1081 l 182 1260 l 211 1274 m 350 1272 l 432 1096 l 411 1086 l 321 1257 l 350 1272 z "},"Ë":{"ha":619,"x_min":153,"x_max":565,"o":"m 556 946 l 551 917 l 185 917 l 185 514 l 501 514 l 501 485 l 185 485 l 185 29 l 565 29 l 565 0 l 153 0 l 153 946 l 556 946 m 257 1164 q 277 1156 269 1164 q 285 1136 285 1149 q 277 1117 285 1125 q 257 1110 269 1110 q 238 1117 246 1110 q 231 1136 231 1125 q 238 1156 231 1147 q 257 1164 246 1164 m 467 1164 q 487 1156 479 1164 q 494 1136 494 1147 q 487 1117 494 1125 q 467 1110 479 1110 q 447 1117 454 1110 q 439 1136 439 1125 q 447 1156 439 1147 q 467 1164 454 1164 z "},"Ė":{"ha":619,"x_min":153,"x_max":565,"o":"m 556 946 l 551 917 l 185 917 l 185 514 l 501 514 l 501 485 l 185 485 l 185 29 l 565 29 l 565 0 l 153 0 l 153 946 l 556 946 m 360 1181 q 380 1172 372 1181 q 388 1153 388 1164 q 380 1134 388 1142 q 360 1126 372 1126 q 340 1134 347 1126 q 332 1153 332 1142 q 340 1172 332 1164 q 360 1181 347 1181 z "},"Ẹ":{"ha":619,"x_min":153,"x_max":565,"o":"m 556 946 l 551 917 l 185 917 l 185 514 l 501 514 l 501 485 l 185 485 l 185 29 l 565 29 l 565 0 l 153 0 l 153 946 l 556 946 m 354 -192 q 334 -183 342 -192 q 326 -164 326 -175 q 334 -145 326 -153 q 354 -137 342 -137 q 374 -145 367 -137 q 382 -164 382 -153 q 374 -183 382 -175 q 354 -192 367 -192 z "},"È":{"ha":619,"x_min":153,"x_max":565,"o":"m 556 946 l 551 917 l 185 917 l 185 514 l 501 514 l 501 485 l 185 485 l 185 29 l 565 29 l 565 0 l 153 0 l 153 946 l 556 946 m 260 1193 l 476 1081 l 467 1060 l 243 1163 l 260 1193 z "},"Ẻ":{"ha":619,"x_min":153,"x_max":565,"o":"m 556 946 l 551 917 l 185 917 l 185 514 l 501 514 l 501 485 l 185 485 l 185 29 l 565 29 l 565 0 l 153 0 l 153 946 l 556 946 m 344 1165 q 428 1238 428 1168 q 410 1285 428 1268 q 363 1301 393 1301 q 293 1282 325 1301 l 281 1304 q 365 1329 319 1329 q 434 1304 408 1329 q 460 1238 460 1279 q 374 1146 460 1156 l 374 1086 l 344 1086 l 344 1165 z "},"Ȇ":{"ha":619,"x_min":153,"x_max":565,"o":"m 556 946 l 551 917 l 185 917 l 185 514 l 501 514 l 501 485 l 185 485 l 185 29 l 565 29 l 565 0 l 153 0 l 153 946 l 556 946 m 358 1232 q 449 1199 413 1232 q 494 1113 486 1167 l 472 1107 q 432 1178 461 1154 q 358 1203 403 1203 q 243 1107 265 1203 l 221 1113 q 266 1199 229 1167 q 358 1232 303 1232 z "},"Ē":{"ha":619,"x_min":153,"x_max":565,"o":"m 556 946 l 551 917 l 185 917 l 185 514 l 501 514 l 501 485 l 185 485 l 185 29 l 565 29 l 565 0 l 153 0 l 153 946 l 556 946 m 490 1126 l 228 1126 l 228 1156 l 490 1156 l 490 1126 z "},"Ę":{"ha":619,"x_min":153,"x_max":565,"o":"m 565 29 l 565 0 l 532 0 q 415 -76 454 -37 q 375 -171 375 -114 q 397 -231 375 -210 q 463 -251 419 -251 q 532 -242 494 -251 l 529 -272 q 461 -282 492 -282 q 374 -251 404 -282 q 343 -171 343 -221 q 378 -76 343 -117 q 483 0 414 -36 l 153 0 l 153 946 l 556 946 l 551 917 l 185 917 l 185 514 l 501 514 l 501 485 l 185 485 l 185 29 l 565 29 z "},"Ɛ":{"ha":644,"x_min":76,"x_max":604,"o":"m 335 960 q 465 931 407 960 q 576 844 524 901 l 557 825 q 455 903 508 876 q 336 931 401 931 q 189 876 243 931 q 135 733 135 822 q 193 581 135 635 q 347 528 251 528 l 417 528 l 413 499 l 342 500 q 170 440 232 501 q 108 269 108 379 q 174 83 108 150 q 346 17 239 17 q 475 46 418 17 q 582 133 532 75 l 604 115 q 346 -14 494 -14 q 151 62 225 -14 q 76 271 76 138 q 133 444 76 381 q 275 515 189 507 q 151 583 199 529 q 103 732 103 638 q 165 897 103 835 q 335 960 228 960 z "},"Ǝ":{"ha":619,"x_min":54,"x_max":467,"o":"m 64 946 l 467 946 l 467 0 l 54 0 l 54 29 l 435 29 l 435 485 l 118 485 l 118 514 l 435 514 l 435 917 l 64 917 l 64 946 z "},"Ʃ":{"ha":607,"x_min":65,"x_max":542,"o":"m 542 946 l 542 917 l 110 917 l 397 478 l 397 464 l 110 29 l 542 29 l 542 0 l 65 0 l 65 17 l 364 471 l 65 929 l 65 946 l 542 946 z "},"Ɇ":{"ha":619,"x_min":153,"x_max":565,"o":"m 565 29 l 565 0 l 261 0 l 239 -92 l 217 -87 l 238 0 l 153 0 l 153 946 l 461 946 l 479 1024 l 500 1018 l 483 946 l 556 946 l 551 917 l 476 917 l 382 514 l 501 514 l 501 485 l 375 485 l 267 29 l 565 29 m 185 917 l 185 514 l 358 514 l 454 917 l 185 917 m 185 29 l 244 29 l 351 485 l 185 485 l 185 29 z "},"Ẽ":{"ha":619,"x_min":153,"x_max":565,"o":"m 556 946 l 551 917 l 185 917 l 185 514 l 501 514 l 501 485 l 185 485 l 185 29 l 565 29 l 565 0 l 153 0 l 153 946 l 556 946 m 432 1117 q 393 1125 411 1117 q 347 1150 375 1133 q 313 1171 326 1164 q 285 1178 299 1178 q 247 1167 264 1178 q 211 1129 231 1156 l 192 1140 q 236 1188 214 1172 q 285 1204 258 1204 q 317 1197 301 1204 q 358 1175 333 1190 q 398 1152 382 1160 q 432 1144 414 1144 q 469 1157 453 1144 q 506 1200 486 1169 l 525 1190 q 482 1134 504 1151 q 432 1117 460 1117 z "},"Ʒ":{"ha":592,"x_min":28,"x_max":529,"o":"m 256 518 q 460 451 390 518 q 529 253 529 385 q 461 60 529 133 q 272 -14 393 -14 q 133 15 192 -14 q 28 100 75 43 l 49 118 q 148 40 96 64 q 272 17 200 17 q 439 81 381 17 q 497 251 497 146 q 435 431 497 374 q 254 489 374 489 l 161 489 l 161 518 l 458 918 l 46 918 l 46 946 l 497 946 l 497 919 l 196 518 l 256 518 z "},"Ǯ":{"ha":592,"x_min":28,"x_max":529,"o":"m 256 518 q 460 451 390 518 q 529 253 529 385 q 461 60 529 133 q 272 -14 393 -14 q 133 15 192 -14 q 28 100 75 43 l 49 118 q 148 40 96 64 q 272 17 200 17 q 439 81 381 17 q 497 251 497 146 q 435 431 497 374 q 254 489 374 489 l 161 489 l 161 518 l 458 918 l 46 918 l 46 946 l 497 946 l 497 919 l 196 518 l 256 518 m 415 1199 l 431 1182 l 279 1056 l 263 1056 l 113 1182 l 126 1199 l 271 1088 l 415 1199 z "},"Ƹ":{"ha":592,"x_min":63,"x_max":564,"o":"m 564 100 q 455 15 514 43 q 313 -14 396 -14 q 130 57 197 -14 q 63 246 63 128 q 133 448 63 378 q 338 518 203 518 l 396 518 l 94 919 l 94 946 l 546 946 l 546 918 l 133 918 l 431 518 l 431 489 l 338 489 q 157 428 219 489 q 94 246 94 368 q 152 78 94 139 q 314 17 210 17 q 441 40 389 17 q 542 118 493 64 l 564 100 z "},"F":{"ha":590,"x_min":153,"x_max":550,"o":"m 153 0 l 153 946 l 550 946 l 546 917 l 185 917 l 185 494 l 496 494 l 496 465 l 185 465 l 185 0 l 153 0 z "},"Ḟ":{"ha":590,"x_min":153,"x_max":550,"o":"m 153 0 l 153 946 l 550 946 l 546 917 l 185 917 l 185 494 l 496 494 l 496 465 l 185 465 l 185 0 l 153 0 m 365 1181 q 385 1172 378 1181 q 393 1153 393 1164 q 385 1134 393 1142 q 365 1126 378 1126 q 345 1134 353 1126 q 338 1153 338 1142 q 345 1172 338 1164 q 365 1181 353 1181 z "},"Ƒ":{"ha":590,"x_min":-51,"x_max":550,"o":"m 185 917 l 185 494 l 496 494 l 496 465 l 185 465 l 185 0 l 183 0 l 183 -132 q 150 -237 183 -201 q 61 -274 117 -274 q -51 -232 -4 -274 l -36 -210 q 7 -235 -15 -226 q 60 -244 29 -244 q 127 -217 101 -244 q 153 -132 153 -190 l 153 946 l 550 946 l 546 917 l 185 917 z "},"G":{"ha":758,"x_min":97,"x_max":667,"o":"m 436 960 q 549 940 500 960 q 647 878 599 921 l 628 856 q 538 913 582 894 q 436 931 493 931 q 286 885 356 931 q 173 738 217 839 q 129 479 129 636 q 212 131 129 246 q 440 17 294 17 q 547 31 500 17 q 636 74 593 46 l 636 463 l 456 463 l 451 492 l 667 492 l 667 57 q 442 -14 560 -14 q 190 110 282 -14 q 97 479 97 233 q 145 750 97 642 q 270 909 193 858 q 436 960 347 960 z "},"Ǵ":{"ha":758,"x_min":97,"x_max":667,"o":"m 436 960 q 549 940 500 960 q 647 878 599 921 l 628 856 q 538 913 582 894 q 436 931 493 931 q 286 885 356 931 q 173 738 217 839 q 129 479 129 636 q 212 131 129 246 q 440 17 294 17 q 547 31 500 17 q 636 74 593 46 l 636 463 l 456 463 l 451 492 l 667 492 l 667 57 q 442 -14 560 -14 q 190 110 282 -14 q 97 479 97 233 q 145 750 97 642 q 270 909 193 858 q 436 960 347 960 m 532 1193 l 547 1163 l 324 1061 l 314 1082 l 532 1193 z "},"Ɣ":{"ha":678,"x_min":39,"x_max":639,"o":"m 358 75 q 415 -78 400 -31 q 431 -172 431 -126 q 407 -246 431 -218 q 340 -274 383 -274 q 274 -246 299 -274 q 250 -172 250 -218 q 265 -81 250 -128 q 321 75 279 -35 l 39 946 l 71 946 l 340 99 l 607 946 l 639 946 l 358 75 m 400 -171 q 389 -94 400 -133 q 350 25 378 -54 q 346 37 349 31 q 340 51 343 43 l 329 21 q 291 -96 301 -58 q 281 -171 281 -133 q 340 -246 281 -246 q 400 -171 400 -246 z "},"Ğ":{"ha":758,"x_min":97,"x_max":667,"o":"m 436 960 q 549 940 500 960 q 647 878 599 921 l 628 856 q 538 913 582 894 q 436 931 493 931 q 286 885 356 931 q 173 738 217 839 q 129 479 129 636 q 212 131 129 246 q 440 17 294 17 q 547 31 500 17 q 636 74 593 46 l 636 463 l 456 463 l 451 492 l 667 492 l 667 57 q 442 -14 560 -14 q 190 110 282 -14 q 97 479 97 233 q 145 750 97 642 q 270 909 193 858 q 436 960 347 960 m 432 1071 q 340 1101 378 1071 q 294 1176 303 1131 l 317 1182 q 359 1122 329 1144 q 432 1100 389 1100 q 504 1122 474 1100 q 547 1182 535 1144 l 568 1176 q 523 1101 560 1131 q 432 1071 486 1071 z "},"Ǧ":{"ha":758,"x_min":97,"x_max":667,"o":"m 436 960 q 549 940 500 960 q 647 878 599 921 l 628 856 q 538 913 582 894 q 436 931 493 931 q 286 885 356 931 q 173 738 217 839 q 129 479 129 636 q 212 131 129 246 q 440 17 294 17 q 547 31 500 17 q 636 74 593 46 l 636 463 l 456 463 l 451 492 l 667 492 l 667 57 q 442 -14 560 -14 q 190 110 282 -14 q 97 479 97 233 q 145 750 97 642 q 270 909 193 858 q 436 960 347 960 m 575 1199 l 590 1182 l 439 1056 l 422 1056 l 272 1182 l 286 1199 l 431 1088 l 575 1199 z "},"Ĝ":{"ha":758,"x_min":97,"x_max":667,"o":"m 436 960 q 549 940 500 960 q 647 878 599 921 l 628 856 q 538 913 582 894 q 436 931 493 931 q 286 885 356 931 q 173 738 217 839 q 129 479 129 636 q 212 131 129 246 q 440 17 294 17 q 547 31 500 17 q 636 74 593 46 l 636 463 l 456 463 l 451 492 l 667 492 l 667 57 q 442 -14 560 -14 q 190 110 282 -14 q 97 479 97 233 q 145 750 97 642 q 270 909 193 858 q 436 960 347 960 m 288 1065 l 272 1082 l 422 1207 l 439 1207 l 590 1082 l 575 1065 l 431 1175 l 288 1065 z "},"Ģ":{"ha":758,"x_min":97,"x_max":667,"o":"m 436 960 q 549 940 500 960 q 647 878 599 921 l 628 856 q 538 913 582 894 q 436 931 493 931 q 286 885 356 931 q 173 738 217 839 q 129 479 129 636 q 212 131 129 246 q 440 17 294 17 q 547 31 500 17 q 636 74 593 46 l 636 463 l 456 463 l 451 492 l 667 492 l 667 57 q 442 -14 560 -14 q 190 110 282 -14 q 97 479 97 233 q 145 750 97 642 q 270 909 193 858 q 436 960 347 960 m 419 -133 q 444 -142 435 -133 q 453 -165 453 -151 q 445 -199 453 -179 q 435 -226 438 -218 l 390 -358 l 369 -358 l 408 -197 q 386 -165 386 -189 q 395 -142 386 -151 q 419 -133 404 -133 z "},"Ġ":{"ha":758,"x_min":97,"x_max":667,"o":"m 436 960 q 549 940 500 960 q 647 878 599 921 l 628 856 q 538 913 582 894 q 436 931 493 931 q 286 885 356 931 q 173 738 217 839 q 129 479 129 636 q 212 131 129 246 q 440 17 294 17 q 547 31 500 17 q 636 74 593 46 l 636 463 l 456 463 l 451 492 l 667 492 l 667 57 q 442 -14 560 -14 q 190 110 282 -14 q 97 479 97 233 q 145 750 97 642 q 270 909 193 858 q 436 960 347 960 m 433 1181 q 453 1172 446 1181 q 461 1153 461 1164 q 453 1134 461 1142 q 433 1126 446 1126 q 413 1134 421 1126 q 406 1153 406 1142 q 413 1172 406 1164 q 433 1181 421 1181 z "},"Ɠ":{"ha":689,"x_min":97,"x_max":853,"o":"m 742 1131 q 853 1089 803 1131 l 836 1068 q 742 1103 792 1103 q 673 1074 699 1103 q 647 983 647 1046 l 647 878 l 629 858 q 538 913 583 896 q 436 931 493 931 q 287 884 357 931 q 173 736 217 838 q 129 479 129 635 q 212 132 129 247 q 442 17 294 17 q 547 31 500 17 q 636 74 593 46 l 636 463 l 456 463 l 451 492 l 667 492 l 667 57 q 442 -14 560 -14 q 190 110 282 -14 q 97 479 97 235 q 145 749 97 640 q 270 908 193 857 q 436 960 347 960 q 533 945 489 960 q 617 901 576 931 l 617 985 q 651 1093 617 1056 q 742 1131 685 1131 z "},"Ɂ":{"ha":563,"x_min":24,"x_max":514,"o":"m 203 401 l 292 426 q 433 510 385 453 q 482 685 482 568 q 425 863 482 794 q 267 931 368 931 q 149 903 201 931 q 44 825 96 876 l 24 844 q 137 931 79 903 q 268 960 194 960 q 448 883 382 960 q 514 685 514 806 q 457 490 514 553 q 296 399 400 428 l 235 381 l 235 0 l 203 0 l 203 401 z "},"Ǥ":{"ha":775,"x_min":97,"x_max":761,"o":"m 761 294 l 667 294 l 667 57 q 442 -14 560 -14 q 190 110 282 -14 q 97 479 97 233 q 145 750 97 642 q 269 909 193 858 q 435 960 346 960 q 549 940 499 960 q 647 878 599 921 l 628 857 q 537 913 582 896 q 435 931 492 931 q 286 885 356 931 q 173 738 217 839 q 129 479 129 636 q 212 131 129 246 q 440 17 294 17 q 547 31 500 17 q 636 74 593 46 l 636 294 l 456 294 l 456 324 l 636 324 l 636 463 l 456 463 l 451 492 l 667 492 l 667 324 l 761 324 l 761 294 z "},"Ȝ":{"ha":617,"x_min":40,"x_max":542,"o":"m 286 960 q 453 894 392 960 q 515 722 515 829 q 467 571 515 626 q 339 501 419 515 q 486 438 431 493 q 542 283 542 382 q 498 116 542 188 q 354 -12 454 44 q 83 -111 254 -68 l 81 -81 q 334 11 240 -40 q 468 128 428 63 q 508 283 508 194 q 447 433 508 379 q 274 486 386 488 l 201 485 l 206 514 l 268 514 q 424 568 365 514 q 482 724 482 622 q 430 874 482 818 q 285 931 378 931 q 165 903 218 931 q 60 824 113 876 l 40 844 q 155 931 97 903 q 286 960 213 960 z "},"H":{"ha":825,"x_min":153,"x_max":672,"o":"m 642 0 l 642 485 l 185 485 l 185 0 l 153 0 l 153 946 l 185 946 l 185 514 l 642 514 l 642 946 l 672 946 l 672 0 l 642 0 z "},"Ħ":{"ha":831,"x_min":81,"x_max":750,"o":"m 750 747 l 750 722 l 675 722 l 675 0 l 644 0 l 644 485 l 188 485 l 188 0 l 156 0 l 156 722 l 81 722 l 81 747 l 156 747 l 156 946 l 188 946 l 188 747 l 644 747 l 644 946 l 675 946 l 675 747 l 750 747 m 644 514 l 644 722 l 188 722 l 188 514 l 644 514 z "},"Ȟ":{"ha":825,"x_min":153,"x_max":672,"o":"m 642 0 l 642 485 l 185 485 l 185 0 l 153 0 l 153 946 l 185 946 l 185 514 l 642 514 l 642 946 l 672 946 l 672 0 l 642 0 m 554 1199 l 569 1182 l 418 1056 l 401 1056 l 251 1182 l 265 1199 l 410 1088 l 554 1199 z "},"Ĥ":{"ha":825,"x_min":153,"x_max":672,"o":"m 642 0 l 642 485 l 185 485 l 185 0 l 153 0 l 153 946 l 185 946 l 185 514 l 642 514 l 642 946 l 672 946 l 672 0 l 642 0 m 267 1065 l 251 1082 l 401 1207 l 418 1207 l 569 1082 l 554 1065 l 410 1175 l 267 1065 z "},"Ḥ":{"ha":825,"x_min":153,"x_max":672,"o":"m 642 0 l 642 485 l 185 485 l 185 0 l 153 0 l 153 946 l 185 946 l 185 514 l 642 514 l 642 946 l 672 946 l 672 0 l 642 0 m 413 -192 q 392 -183 400 -192 q 385 -164 385 -175 q 392 -145 385 -153 q 413 -137 400 -137 q 433 -145 425 -137 q 440 -164 440 -153 q 433 -183 440 -175 q 413 -192 425 -192 z "},"Ɦ":{"ha":881,"x_min":28,"x_max":728,"o":"m 728 946 l 728 0 l 697 0 l 697 485 l 240 485 l 240 0 l 208 0 l 208 918 l 169 918 q 86 890 114 918 q 58 813 58 861 q 67 756 58 781 q 92 706 75 732 l 68 692 q 38 748 49 722 q 28 813 28 774 q 65 910 28 875 q 172 946 101 946 l 240 946 l 240 514 l 697 514 l 697 946 l 728 946 z "},"Ɥ":{"ha":721,"x_min":65,"x_max":568,"o":"m 568 946 l 568 0 l 538 0 l 538 442 q 299 321 440 321 q 129 384 193 321 q 65 560 65 447 l 65 946 l 97 946 l 97 561 q 152 405 97 460 q 301 350 207 350 q 435 385 374 350 q 538 479 497 419 l 538 946 l 568 946 z "},"Ƕ":{"ha":1201,"x_min":153,"x_max":1083,"o":"m 1050 721 q 1083 361 1083 515 q 1015 79 1083 172 q 838 -14 947 -14 q 697 42 751 -14 q 642 200 642 99 l 642 485 l 185 485 l 185 0 l 153 0 l 153 946 l 185 946 l 185 515 l 642 515 l 642 946 l 672 946 l 672 201 q 717 63 672 110 q 838 15 763 15 q 992 97 932 15 q 1051 361 1051 179 q 1019 721 1051 524 l 1050 721 z "},"I":{"ha":338,"x_min":153,"x_max":185,"o":"m 185 946 l 185 0 l 153 0 l 153 946 l 185 946 z "},"Ĳ":{"ha":686,"x_min":153,"x_max":540,"o":"m 185 946 l 185 0 l 153 0 l 153 946 l 185 946 m 540 121 q 527 4 540 49 q 478 -73 514 -40 q 375 -139 443 -106 l 365 -117 q 455 -56 425 -86 q 497 16 485 -25 q 508 124 508 57 l 508 946 l 540 946 l 540 121 z "},"Í":{"ha":338,"x_min":50,"x_max":283,"o":"m 185 946 l 185 0 l 153 0 l 153 946 l 185 946 m 268 1193 l 283 1163 l 60 1061 l 50 1082 l 268 1193 z "},"Ĭ":{"ha":338,"x_min":31,"x_max":304,"o":"m 185 946 l 185 0 l 153 0 l 153 946 l 185 946 m 168 1071 q 76 1101 114 1071 q 31 1176 39 1131 l 53 1182 q 95 1122 65 1144 q 168 1100 125 1100 q 240 1122 210 1100 q 283 1182 271 1144 l 304 1176 q 259 1101 296 1131 q 168 1071 222 1071 z "},"Ǐ":{"ha":338,"x_min":8,"x_max":326,"o":"m 185 946 l 185 0 l 153 0 l 153 946 l 185 946 m 311 1199 l 326 1182 l 175 1056 l 158 1056 l 8 1182 l 22 1199 l 167 1088 l 311 1199 z "},"Î":{"ha":338,"x_min":8,"x_max":326,"o":"m 185 946 l 185 0 l 153 0 l 153 946 l 185 946 m 24 1065 l 8 1082 l 158 1207 l 175 1207 l 326 1082 l 311 1065 l 167 1175 l 24 1065 z "},"Ȉ":{"ha":338,"x_min":-8,"x_max":242,"o":"m 185 946 l 185 0 l 153 0 l 153 946 l 185 946 m 21 1274 l 111 1092 l 89 1081 l -8 1260 l 21 1274 m 160 1272 l 242 1096 l 221 1086 l 131 1257 l 160 1272 z "},"Ï":{"ha":338,"x_min":40,"x_max":304,"o":"m 185 946 l 185 0 l 153 0 l 153 946 l 185 946 m 67 1164 q 87 1156 79 1164 q 94 1136 94 1149 q 87 1117 94 1125 q 67 1110 79 1110 q 48 1117 56 1110 q 40 1136 40 1125 q 48 1156 40 1147 q 67 1164 56 1164 m 276 1164 q 297 1156 289 1164 q 304 1136 304 1147 q 297 1117 304 1125 q 276 1110 289 1110 q 256 1117 264 1110 q 249 1136 249 1125 q 256 1156 249 1147 q 276 1164 264 1164 z "},"Ḯ":{"ha":338,"x_min":36,"x_max":300,"o":"m 185 946 l 185 0 l 153 0 l 153 946 l 185 946 m 264 1279 l 290 1258 l 160 1100 l 142 1114 l 264 1279 m 63 1085 q 83 1077 75 1085 q 90 1058 90 1069 q 83 1038 90 1046 q 63 1031 75 1031 q 44 1039 51 1031 q 36 1058 36 1047 q 44 1077 36 1069 q 63 1085 51 1085 m 272 1085 q 292 1077 285 1085 q 300 1058 300 1069 q 292 1039 300 1047 q 272 1031 285 1031 q 252 1039 260 1031 q 244 1058 244 1047 q 252 1077 244 1069 q 272 1085 260 1085 z "},"İ":{"ha":338,"x_min":142,"x_max":197,"o":"m 185 946 l 185 0 l 153 0 l 153 946 l 185 946 m 169 1181 q 190 1172 182 1181 q 197 1153 197 1164 q 190 1134 197 1142 q 169 1126 182 1126 q 149 1134 157 1126 q 142 1153 142 1142 q 149 1172 142 1164 q 169 1181 157 1181 z "},"Ị":{"ha":338,"x_min":142,"x_max":197,"o":"m 185 946 l 185 0 l 153 0 l 153 946 l 185 946 m 169 -192 q 149 -183 157 -192 q 142 -164 142 -175 q 149 -145 142 -153 q 169 -137 157 -137 q 190 -145 182 -137 q 197 -164 197 -153 q 190 -183 197 -175 q 169 -192 182 -192 z "},"Ì":{"ha":338,"x_min":53,"x_max":286,"o":"m 185 946 l 185 0 l 153 0 l 153 946 l 185 946 m 69 1193 l 286 1081 l 276 1060 l 53 1163 l 69 1193 z "},"Ỉ":{"ha":338,"x_min":90,"x_max":269,"o":"m 185 946 l 185 0 l 153 0 l 153 946 l 185 946 m 154 1165 q 238 1238 238 1168 q 220 1285 238 1268 q 172 1301 203 1301 q 103 1282 135 1301 l 90 1304 q 175 1329 129 1329 q 244 1304 218 1329 q 269 1238 269 1279 q 183 1146 269 1156 l 183 1086 l 154 1086 l 154 1165 z "},"Ȋ":{"ha":338,"x_min":31,"x_max":304,"o":"m 185 946 l 185 0 l 153 0 l 153 946 l 185 946 m 168 1232 q 259 1199 222 1232 q 304 1113 296 1167 l 282 1107 q 242 1178 271 1154 q 168 1203 213 1203 q 53 1107 75 1203 l 31 1113 q 76 1199 39 1167 q 168 1232 113 1232 z "},"Ī":{"ha":338,"x_min":38,"x_max":300,"o":"m 185 946 l 185 0 l 153 0 l 153 946 l 185 946 m 300 1126 l 38 1126 l 38 1156 l 300 1156 l 300 1126 z "},"Į":{"ha":338,"x_min":-4,"x_max":185,"o":"m 185 0 q 67 -76 107 -37 q 28 -171 28 -114 q 50 -231 28 -210 q 115 -251 72 -251 q 185 -242 147 -251 l 182 -272 q 114 -282 144 -282 q 26 -251 57 -282 q -4 -171 -4 -221 q 35 -71 -4 -112 q 153 8 75 -29 l 153 946 l 185 946 l 185 0 z "},"Ɩ":{"ha":407,"x_min":139,"x_max":374,"o":"m 374 28 q 261 -14 326 -14 q 172 22 206 -14 q 139 128 139 58 l 139 946 l 171 946 l 171 260 l 169 260 l 169 128 q 195 42 169 69 q 263 15 221 15 q 315 24 293 15 q 358 50 338 33 l 374 28 z "},"Ɨ":{"ha":390,"x_min":43,"x_max":349,"o":"m 349 515 l 349 486 l 211 486 l 211 0 l 179 0 l 179 486 l 43 486 l 43 515 l 179 515 l 179 946 l 211 946 l 211 515 l 349 515 z "},"Ĩ":{"ha":338,"x_min":1,"x_max":335,"o":"m 185 946 l 185 0 l 153 0 l 153 946 l 185 946 m 242 1117 q 203 1125 221 1117 q 157 1150 185 1133 q 122 1171 136 1164 q 94 1178 108 1178 q 57 1167 74 1178 q 21 1129 40 1156 l 1 1140 q 46 1188 24 1172 q 94 1204 68 1204 q 127 1197 111 1204 q 168 1175 143 1190 q 208 1152 192 1160 q 242 1144 224 1144 q 279 1157 263 1144 q 315 1200 296 1169 l 335 1190 q 292 1134 314 1151 q 242 1117 269 1117 z "},"J":{"ha":349,"x_min":28,"x_max":203,"o":"m 203 121 q 190 4 203 49 q 141 -73 176 -40 q 38 -139 106 -106 l 28 -117 q 117 -56 88 -86 q 159 16 147 -25 q 171 124 171 57 l 171 946 l 203 946 l 203 121 z "},"Ĵ":{"ha":349,"x_min":26,"x_max":344,"o":"m 203 121 q 190 4 203 49 q 141 -73 176 -40 q 38 -139 106 -106 l 28 -117 q 117 -56 88 -86 q 159 16 147 -25 q 171 124 171 57 l 171 946 l 203 946 l 203 121 m 42 1065 l 26 1082 l 176 1207 l 193 1207 l 344 1082 l 329 1065 l 185 1175 l 42 1065 z "},"Ʝ":{"ha":367,"x_min":-90,"x_max":331,"o":"m 319 -108 q 214 -65 261 -78 l 214 -67 q 172 -220 214 -167 q 46 -274 131 -274 q -54 -241 -18 -274 q -90 -151 -90 -208 q -46 -55 -90 -90 q 74 -19 -1 -19 q 182 -31 135 -19 l 182 946 l 214 946 l 214 -37 q 331 -85 276 -56 l 319 -108 m 46 -246 q 149 -202 117 -246 q 182 -64 182 -158 l 182 -58 q 74 -46 131 -46 q -26 -74 8 -46 q -60 -151 -60 -101 q -33 -222 -60 -197 q 46 -246 -6 -246 z "},"Ɉ":{"ha":372,"x_min":28,"x_max":339,"o":"m 339 461 l 203 461 l 203 121 q 190 4 203 49 q 141 -73 176 -40 q 38 -139 106 -106 l 28 -117 q 117 -56 88 -86 q 159 16 147 -25 q 171 124 171 57 l 171 461 l 33 461 l 33 490 l 171 490 l 171 946 l 203 946 l 203 490 l 339 490 l 339 461 z "},"K":{"ha":649,"x_min":153,"x_max":636,"o":"m 185 946 l 185 0 l 153 0 l 153 946 l 185 946 m 617 946 l 226 510 l 636 0 l 600 0 l 189 510 l 581 946 l 617 946 z "},"Ǩ":{"ha":649,"x_min":153,"x_max":636,"o":"m 185 946 l 185 0 l 153 0 l 153 946 l 185 946 m 617 946 l 226 510 l 636 0 l 600 0 l 189 510 l 581 946 l 617 946 m 506 1199 l 521 1182 l 369 1056 l 353 1056 l 203 1182 l 217 1199 l 361 1088 l 506 1199 z "},"Ķ":{"ha":649,"x_min":153,"x_max":636,"o":"m 185 946 l 185 0 l 153 0 l 153 946 l 185 946 m 617 946 l 226 510 l 636 0 l 600 0 l 189 510 l 581 946 l 617 946 m 368 -133 q 392 -142 383 -133 q 401 -165 401 -151 q 394 -199 401 -179 q 383 -226 386 -218 l 339 -358 l 318 -358 l 357 -197 q 335 -165 335 -189 q 344 -142 335 -151 q 368 -133 353 -133 z "},"Ƙ":{"ha":692,"x_min":153,"x_max":679,"o":"m 189 510 l 442 872 q 504 940 474 919 q 576 960 535 960 q 679 911 633 960 l 661 893 q 622 923 642 913 q 576 933 603 933 q 520 917 544 933 q 464 856 496 901 l 226 510 l 636 0 l 600 0 l 189 510 m 185 946 l 185 0 l 153 0 l 153 946 l 185 946 z "},"L":{"ha":571,"x_min":153,"x_max":544,"o":"m 185 946 l 185 31 l 544 31 l 539 0 l 153 0 l 153 946 l 185 946 z "},"Ǉ":{"ha":899,"x_min":153,"x_max":753,"o":"m 185 946 l 185 31 l 544 31 l 539 0 l 153 0 l 153 946 l 185 946 m 753 121 q 740 4 753 49 q 691 -73 726 -40 q 588 -139 656 -106 l 578 -117 q 667 -56 638 -86 q 709 16 697 -25 q 721 124 721 57 l 721 946 l 753 946 l 753 121 z "},"Ĺ":{"ha":571,"x_min":51,"x_max":544,"o":"m 185 946 l 185 31 l 544 31 l 539 0 l 153 0 l 153 946 l 185 946 m 269 1193 l 285 1163 l 61 1061 l 51 1082 l 269 1193 z "},"Ƚ":{"ha":597,"x_min":43,"x_max":571,"o":"m 211 31 l 571 31 l 565 0 l 179 0 l 179 489 l 43 489 l 43 518 l 179 518 l 179 946 l 211 946 l 211 518 l 349 518 l 349 489 l 211 489 l 211 31 z "},"Ɬ":{"ha":603,"x_min":36,"x_max":576,"o":"m 576 31 l 571 0 l 185 0 l 185 388 q 74 417 113 388 q 36 504 36 446 q 67 585 36 556 q 149 615 99 615 q 185 613 165 615 l 185 946 l 217 946 l 217 415 q 363 429 285 417 l 365 404 q 217 389 279 390 l 217 31 l 576 31 m 67 506 q 97 437 67 458 q 185 415 126 415 l 185 586 q 150 589 165 589 q 90 567 113 589 q 67 506 67 546 z "},"Ľ":{"ha":571,"x_min":153,"x_max":544,"o":"m 185 946 l 185 31 l 544 31 l 539 0 l 153 0 l 153 946 l 185 946 m 299 746 l 333 947 l 301 950 l 278 750 l 299 746 z "},"Ḽ":{"ha":571,"x_min":153,"x_max":544,"o":"m 185 946 l 185 31 l 544 31 l 539 0 l 153 0 l 153 946 l 185 946 m 207 -254 l 192 -237 l 342 -104 l 360 -104 l 510 -237 l 493 -254 l 350 -136 l 207 -254 z "},"Ļ":{"ha":571,"x_min":153,"x_max":544,"o":"m 185 946 l 185 31 l 544 31 l 539 0 l 153 0 l 153 946 l 185 946 m 347 -133 q 372 -142 363 -133 q 381 -165 381 -151 q 373 -199 381 -179 q 363 -226 365 -218 l 318 -358 l 297 -358 l 336 -197 q 314 -165 314 -189 q 323 -142 314 -151 q 347 -133 332 -133 z "},"Ŀ":{"ha":571,"x_min":153,"x_max":544,"o":"m 185 946 l 185 31 l 544 31 l 539 0 l 153 0 l 153 946 l 185 946 m 442 519 q 462 511 454 519 q 469 492 469 503 q 462 473 469 481 q 442 465 454 465 q 422 473 429 465 q 414 492 414 481 q 422 511 414 503 q 442 519 429 519 z "},"Ḷ":{"ha":571,"x_min":153,"x_max":544,"o":"m 185 946 l 185 31 l 544 31 l 539 0 l 153 0 l 153 946 l 185 946 m 350 -192 q 330 -183 338 -192 q 322 -164 322 -175 q 330 -145 322 -153 q 350 -137 338 -137 q 370 -145 363 -137 q 378 -164 378 -153 q 370 -183 378 -175 q 350 -192 363 -192 z "},"ǈ":{"ha":874,"x_min":153,"x_max":739,"o":"m 185 946 l 185 31 l 544 31 l 539 0 l 153 0 l 153 946 l 185 946 m 728 -15 q 713 -136 728 -90 q 668 -211 697 -182 q 585 -271 639 -240 l 575 -249 q 647 -194 622 -221 q 685 -125 672 -167 q 697 -14 697 -83 l 697 721 l 728 721 l 728 -15 m 711 1006 q 731 997 724 1006 q 739 978 739 989 q 731 959 739 967 q 711 951 724 951 q 691 959 699 951 q 683 978 683 967 q 691 997 683 989 q 711 1006 699 1006 z "},"Ł":{"ha":578,"x_min":56,"x_max":551,"o":"m 192 31 l 551 31 l 546 0 l 160 0 l 160 428 l 68 364 l 56 388 l 160 458 l 160 946 l 192 946 l 192 481 l 440 653 l 453 629 l 192 449 l 192 31 z "},"M":{"ha":956,"x_min":97,"x_max":857,"o":"m 857 0 l 828 0 l 779 479 l 738 917 l 493 117 l 461 117 l 213 917 q 179 565 208 849 q 172 492 178 538 l 128 0 l 97 0 l 189 946 l 235 946 l 478 156 l 718 946 l 764 946 l 857 0 z "},"Ḿ":{"ha":956,"x_min":97,"x_max":857,"o":"m 857 0 l 828 0 l 779 479 l 738 917 l 493 117 l 461 117 l 213 917 q 179 565 208 849 q 172 492 178 538 l 128 0 l 97 0 l 189 946 l 235 946 l 478 156 l 718 946 l 764 946 l 857 0 m 576 1193 l 592 1163 l 368 1061 l 358 1082 l 576 1193 z "},"Ṁ":{"ha":956,"x_min":97,"x_max":857,"o":"m 857 0 l 828 0 l 779 479 l 738 917 l 493 117 l 461 117 l 213 917 q 179 565 208 849 q 172 492 178 538 l 128 0 l 97 0 l 189 946 l 235 946 l 478 156 l 718 946 l 764 946 l 857 0 m 478 1181 q 498 1172 490 1181 q 506 1153 506 1164 q 498 1134 506 1142 q 478 1126 490 1126 q 458 1134 465 1126 q 450 1153 450 1142 q 458 1172 450 1164 q 478 1181 465 1181 z "},"Ɯ":{"ha":1153,"x_min":139,"x_max":1000,"o":"m 1000 946 l 1000 0 l 972 0 l 969 150 q 872 31 929 75 q 744 -14 815 -14 q 624 31 671 -14 q 561 156 576 75 q 460 32 518 78 q 329 -14 401 -14 q 190 51 240 -14 q 139 229 139 115 l 139 946 l 171 946 l 171 225 q 213 71 171 126 q 331 15 254 15 q 456 63 401 15 q 556 199 510 111 q 554 231 554 208 l 554 946 l 586 946 l 586 225 q 628 71 586 126 q 746 15 669 15 q 968 200 879 15 l 968 946 l 1000 946 z "},"N":{"ha":828,"x_min":153,"x_max":675,"o":"m 675 0 l 635 0 l 179 910 q 183 663 183 839 l 183 0 l 153 0 l 153 946 l 193 946 l 649 36 q 644 285 644 203 l 644 946 l 675 946 l 675 0 z "},"Ǌ":{"ha":1176,"x_min":153,"x_max":1031,"o":"m 675 0 l 635 0 l 179 910 q 183 663 183 839 l 183 0 l 153 0 l 153 946 l 193 946 l 649 36 q 644 285 644 203 l 644 946 l 675 946 l 675 0 m 1031 121 q 1017 4 1031 49 q 969 -73 1004 -40 q 865 -139 933 -106 l 856 -117 q 945 -56 915 -86 q 987 16 975 -25 q 999 124 999 57 l 999 946 l 1031 946 l 1031 121 z "},"Ń":{"ha":828,"x_min":153,"x_max":675,"o":"m 675 0 l 635 0 l 179 910 q 183 663 183 839 l 183 0 l 153 0 l 153 946 l 193 946 l 649 36 q 644 285 644 203 l 644 946 l 675 946 l 675 0 m 522 1193 l 538 1163 l 314 1061 l 304 1082 l 522 1193 z "},"Ň":{"ha":828,"x_min":153,"x_max":675,"o":"m 675 0 l 635 0 l 179 910 q 183 663 183 839 l 183 0 l 153 0 l 153 946 l 193 946 l 649 36 q 644 285 644 203 l 644 946 l 675 946 l 675 0 m 565 1199 l 581 1182 l 429 1056 l 413 1056 l 263 1182 l 276 1199 l 421 1088 l 565 1199 z "},"Ṋ":{"ha":828,"x_min":153,"x_max":675,"o":"m 675 0 l 635 0 l 179 910 q 183 663 183 839 l 183 0 l 153 0 l 153 946 l 193 946 l 649 36 q 644 285 644 203 l 644 946 l 675 946 l 675 0 m 269 -254 l 254 -237 l 404 -104 l 422 -104 l 572 -237 l 556 -254 l 413 -136 l 269 -254 z "},"Ņ":{"ha":828,"x_min":153,"x_max":675,"o":"m 675 0 l 635 0 l 179 910 q 183 663 183 839 l 183 0 l 153 0 l 153 946 l 193 946 l 649 36 q 644 285 644 203 l 644 946 l 675 946 l 675 0 m 410 -133 q 434 -142 425 -133 q 443 -165 443 -151 q 435 -199 443 -179 q 425 -226 428 -218 l 381 -358 l 360 -358 l 399 -197 q 376 -165 376 -189 q 385 -142 376 -151 q 410 -133 394 -133 z "},"Ṅ":{"ha":828,"x_min":153,"x_max":675,"o":"m 675 0 l 635 0 l 179 910 q 183 663 183 839 l 183 0 l 153 0 l 153 946 l 193 946 l 649 36 q 644 285 644 203 l 644 946 l 675 946 l 675 0 m 424 1181 q 444 1172 436 1181 q 451 1153 451 1164 q 444 1134 451 1142 q 424 1126 436 1126 q 403 1134 411 1126 q 396 1153 396 1142 q 403 1172 396 1164 q 424 1181 411 1181 z "},"Ṇ":{"ha":828,"x_min":153,"x_max":675,"o":"m 675 0 l 635 0 l 179 910 q 183 663 183 839 l 183 0 l 153 0 l 153 946 l 193 946 l 649 36 q 644 285 644 203 l 644 946 l 675 946 l 675 0 m 413 -192 q 392 -183 400 -192 q 385 -164 385 -175 q 392 -145 385 -153 q 413 -137 400 -137 q 433 -145 425 -137 q 440 -164 440 -153 q 433 -183 440 -175 q 413 -192 425 -192 z "},"Ǹ":{"ha":828,"x_min":153,"x_max":675,"o":"m 675 0 l 635 0 l 179 910 q 183 663 183 839 l 183 0 l 153 0 l 153 946 l 193 946 l 649 36 q 644 285 644 203 l 644 946 l 675 946 l 675 0 m 324 1193 l 540 1081 l 531 1060 l 307 1163 l 324 1193 z "},"Ŋ":{"ha":828,"x_min":153,"x_max":675,"o":"m 675 0 l 674 0 l 674 -132 q 640 -237 674 -201 q 551 -274 607 -274 q 439 -232 486 -274 l 454 -210 q 497 -235 475 -226 q 550 -244 519 -244 q 617 -217 592 -244 q 643 -132 643 -190 l 643 0 l 635 0 l 179 910 q 183 663 183 839 l 183 0 l 153 0 l 153 946 l 193 946 l 649 36 q 644 285 644 203 l 644 946 l 675 946 l 675 0 z "},"Ɲ":{"ha":828,"x_min":-53,"x_max":675,"o":"m 675 946 l 675 0 l 635 0 l 179 910 q 183 663 183 839 l 183 -132 q 149 -237 183 -201 q 60 -274 115 -274 q -53 -232 -3 -274 l -36 -211 q 60 -246 7 -246 q 127 -219 101 -246 q 153 -132 153 -192 l 153 946 l 193 946 l 649 36 q 644 285 644 203 l 644 946 l 675 946 z "},"ǋ":{"ha":1151,"x_min":153,"x_max":1017,"o":"m 675 0 l 635 0 l 179 910 q 183 663 183 839 l 183 0 l 153 0 l 153 946 l 193 946 l 649 36 q 644 285 644 203 l 644 946 l 675 946 l 675 0 m 1006 -15 q 990 -136 1006 -90 q 946 -211 975 -182 q 863 -271 917 -240 l 853 -249 q 925 -194 900 -221 q 963 -125 950 -167 q 975 -14 975 -83 l 975 721 l 1006 721 l 1006 -15 m 989 1006 q 1009 997 1001 1006 q 1017 978 1017 989 q 1009 959 1017 967 q 989 951 1001 951 q 969 959 976 951 q 961 978 961 967 q 969 997 961 989 q 989 1006 976 1006 z "},"Ƞ":{"ha":813,"x_min":153,"x_max":671,"o":"m 460 960 q 615 895 560 960 q 671 707 671 831 l 671 -267 l 639 -267 l 639 701 q 592 874 639 817 q 458 931 544 931 q 307 883 372 931 q 185 754 242 836 l 185 0 l 153 0 l 153 946 l 181 946 l 183 796 q 460 960 300 960 z "},"Ñ":{"ha":828,"x_min":153,"x_max":675,"o":"m 675 0 l 635 0 l 179 910 q 183 663 183 839 l 183 0 l 153 0 l 153 946 l 193 946 l 649 36 q 644 285 644 203 l 644 946 l 675 946 l 675 0 m 496 1117 q 457 1125 475 1117 q 411 1150 439 1133 q 376 1171 390 1164 q 349 1178 363 1178 q 311 1167 328 1178 q 275 1129 294 1156 l 256 1140 q 300 1188 278 1172 q 349 1204 322 1204 q 381 1197 365 1204 q 422 1175 397 1190 q 462 1152 446 1160 q 496 1144 478 1144 q 533 1157 517 1144 q 569 1200 550 1169 l 589 1190 q 546 1134 568 1151 q 496 1117 524 1117 z "},"O":{"ha":861,"x_min":97,"x_max":765,"o":"m 431 960 q 676 835 586 960 q 765 472 765 711 q 677 112 765 238 q 431 -14 589 -14 q 254 42 329 -14 q 138 206 179 97 q 97 471 97 315 q 139 738 97 628 q 256 903 181 847 q 431 960 331 960 m 431 931 q 210 813 292 931 q 129 471 129 696 q 210 133 129 249 q 431 17 292 17 q 653 132 575 17 q 732 472 732 247 q 652 815 732 700 q 431 931 572 931 z "},"Ȣ":{"ha":788,"x_min":97,"x_max":692,"o":"m 494 533 q 641 440 590 510 q 692 265 692 369 q 615 63 692 140 q 394 -14 539 -14 q 174 63 251 -14 q 97 263 97 139 q 149 435 97 364 q 296 532 201 507 q 158 746 158 574 l 158 946 l 189 946 l 189 746 q 394 546 189 546 q 603 746 603 546 l 603 946 l 633 946 l 633 746 q 600 613 633 669 q 494 533 567 556 m 394 17 q 592 84 526 17 q 658 265 658 151 q 592 451 658 385 q 394 517 526 517 q 198 449 267 517 q 129 263 129 381 q 197 83 129 150 q 394 17 265 17 z "},"Ó":{"ha":861,"x_min":97,"x_max":765,"o":"m 431 960 q 676 835 586 960 q 765 472 765 711 q 677 112 765 238 q 431 -14 589 -14 q 254 42 329 -14 q 138 206 179 97 q 97 471 97 315 q 139 738 97 628 q 256 903 181 847 q 431 960 331 960 m 431 931 q 210 813 292 931 q 129 471 129 696 q 210 133 129 249 q 431 17 292 17 q 653 132 575 17 q 732 472 732 247 q 652 815 732 700 q 431 931 572 931 m 531 1193 l 546 1163 l 322 1061 l 313 1082 l 531 1193 z "},"Ŏ":{"ha":861,"x_min":97,"x_max":765,"o":"m 431 960 q 676 835 586 960 q 765 472 765 711 q 677 112 765 238 q 431 -14 589 -14 q 254 42 329 -14 q 138 206 179 97 q 97 471 97 315 q 139 738 97 628 q 256 903 181 847 q 431 960 331 960 m 431 931 q 210 813 292 931 q 129 471 129 696 q 210 133 129 249 q 431 17 292 17 q 653 132 575 17 q 732 472 732 247 q 652 815 732 700 q 431 931 572 931 m 431 1071 q 339 1101 376 1071 q 293 1176 301 1131 l 315 1182 q 358 1122 328 1144 q 431 1100 388 1100 q 503 1122 472 1100 q 546 1182 533 1144 l 567 1176 q 522 1101 558 1131 q 431 1071 485 1071 z "},"Ǒ":{"ha":861,"x_min":97,"x_max":765,"o":"m 431 960 q 676 835 586 960 q 765 472 765 711 q 677 112 765 238 q 431 -14 589 -14 q 254 42 329 -14 q 138 206 179 97 q 97 471 97 315 q 139 738 97 628 q 256 903 181 847 q 431 960 331 960 m 431 931 q 210 813 292 931 q 129 471 129 696 q 210 133 129 249 q 431 17 292 17 q 653 132 575 17 q 732 472 732 247 q 652 815 732 700 q 431 931 572 931 m 574 1199 l 589 1182 l 438 1056 l 421 1056 l 271 1182 l 285 1199 l 429 1088 l 574 1199 z "},"Ɵ":{"ha":861,"x_min":97,"x_max":765,"o":"m 431 960 q 676 835 586 960 q 765 472 765 711 q 677 112 765 238 q 431 -14 589 -14 q 254 41 329 -14 q 138 205 179 96 q 97 471 97 314 q 139 738 97 628 q 256 903 181 847 q 431 960 331 960 m 431 931 q 215 819 296 931 q 129 496 135 708 l 732 496 q 648 821 728 711 q 431 931 568 931 m 431 17 q 653 131 575 17 q 732 468 731 244 l 129 468 q 211 132 131 247 q 431 17 292 17 z "},"Ô":{"ha":861,"x_min":97,"x_max":765,"o":"m 431 960 q 676 835 586 960 q 765 472 765 711 q 677 112 765 238 q 431 -14 589 -14 q 254 42 329 -14 q 138 206 179 97 q 97 471 97 315 q 139 738 97 628 q 256 903 181 847 q 431 960 331 960 m 431 931 q 210 813 292 931 q 129 471 129 696 q 210 133 129 249 q 431 17 292 17 q 653 132 575 17 q 732 472 732 247 q 652 815 732 700 q 431 931 572 931 m 286 1065 l 271 1082 l 421 1207 l 438 1207 l 589 1082 l 574 1065 l 429 1175 l 286 1065 z "},"Ố":{"ha":861,"x_min":97,"x_max":765,"o":"m 431 960 q 676 835 586 960 q 765 472 765 711 q 677 112 765 238 q 431 -14 589 -14 q 254 42 329 -14 q 138 206 179 97 q 97 471 97 315 q 139 738 97 628 q 256 903 181 847 q 431 960 331 960 m 431 931 q 210 813 292 931 q 129 471 129 696 q 210 133 129 249 q 431 17 292 17 q 653 132 575 17 q 732 472 732 247 q 652 815 732 700 q 431 931 572 931 m 289 1025 l 274 1042 l 424 1167 l 440 1167 l 592 1042 l 576 1025 l 432 1135 l 289 1025 m 658 1324 l 685 1303 l 554 1144 l 536 1158 l 658 1324 z "},"Ộ":{"ha":861,"x_min":97,"x_max":765,"o":"m 431 960 q 676 835 586 960 q 765 472 765 711 q 677 112 765 238 q 431 -14 589 -14 q 254 42 329 -14 q 138 206 179 97 q 97 471 97 315 q 139 738 97 628 q 256 903 181 847 q 431 960 331 960 m 431 931 q 210 813 292 931 q 129 471 129 696 q 210 133 129 249 q 431 17 292 17 q 653 132 575 17 q 732 472 732 247 q 652 815 732 700 q 431 931 572 931 m 286 1065 l 271 1082 l 421 1207 l 438 1207 l 589 1082 l 574 1065 l 429 1175 l 286 1065 m 431 -192 q 410 -183 418 -192 q 403 -164 403 -175 q 410 -145 403 -153 q 431 -137 418 -137 q 451 -145 443 -137 q 458 -164 458 -153 q 451 -183 458 -175 q 431 -192 443 -192 z "},"Ồ":{"ha":861,"x_min":97,"x_max":765,"o":"m 431 960 q 676 835 586 960 q 765 472 765 711 q 677 112 765 238 q 431 -14 589 -14 q 254 42 329 -14 q 138 206 179 97 q 97 471 97 315 q 139 738 97 628 q 256 903 181 847 q 431 960 331 960 m 431 931 q 210 813 292 931 q 129 471 129 696 q 210 133 129 249 q 431 17 292 17 q 653 132 575 17 q 732 472 732 247 q 652 815 732 700 q 431 931 572 931 m 286 1025 l 271 1042 l 421 1167 l 438 1167 l 589 1042 l 574 1025 l 429 1135 l 286 1025 m 208 1324 l 332 1158 l 314 1144 l 183 1303 l 208 1324 z "},"Ổ":{"ha":861,"x_min":97,"x_max":765,"o":"m 431 960 q 676 835 586 960 q 765 472 765 711 q 677 112 765 238 q 431 -14 589 -14 q 254 42 329 -14 q 138 206 179 97 q 97 471 97 315 q 139 738 97 628 q 256 903 181 847 q 431 960 331 960 m 431 931 q 210 813 292 931 q 129 471 129 696 q 210 133 129 249 q 431 17 292 17 q 653 132 575 17 q 732 472 732 247 q 652 815 732 700 q 431 931 572 931 m 286 1025 l 271 1042 l 421 1167 l 438 1167 l 589 1042 l 574 1025 l 429 1135 l 286 1025 m 547 1196 q 631 1268 631 1199 q 613 1315 631 1299 q 565 1332 596 1332 q 496 1313 528 1332 l 483 1335 q 568 1360 522 1360 q 637 1335 611 1360 q 663 1268 663 1310 q 576 1176 663 1186 l 576 1117 l 547 1117 l 547 1196 z "},"Ỗ":{"ha":861,"x_min":97,"x_max":765,"o":"m 431 960 q 676 835 586 960 q 765 472 765 711 q 677 112 765 238 q 431 -14 589 -14 q 254 42 329 -14 q 138 206 179 97 q 97 471 97 315 q 139 738 97 628 q 256 903 181 847 q 431 960 331 960 m 431 931 q 210 813 292 931 q 129 471 129 696 q 210 133 129 249 q 431 17 292 17 q 653 132 575 17 q 732 472 732 247 q 652 815 732 700 q 431 931 572 931 m 286 1025 l 271 1042 l 421 1167 l 438 1167 l 589 1042 l 574 1025 l 429 1135 l 286 1025 m 503 1231 q 464 1239 482 1231 q 418 1264 446 1247 q 383 1285 397 1278 q 356 1292 369 1292 q 318 1281 335 1292 q 282 1243 301 1269 l 263 1254 q 307 1302 285 1286 q 356 1318 329 1318 q 388 1311 372 1318 q 429 1289 403 1304 q 469 1266 451 1274 q 503 1258 486 1258 q 540 1271 524 1258 q 576 1314 557 1283 l 596 1304 q 553 1248 575 1265 q 503 1231 531 1231 z "},"Ȍ":{"ha":861,"x_min":97,"x_max":765,"o":"m 431 960 q 676 835 586 960 q 765 472 765 711 q 677 112 765 238 q 431 -14 589 -14 q 254 42 329 -14 q 138 206 179 97 q 97 471 97 315 q 139 738 97 628 q 256 903 181 847 q 431 960 331 960 m 431 931 q 210 813 292 931 q 129 471 129 696 q 210 133 129 249 q 431 17 292 17 q 653 132 575 17 q 732 472 732 247 q 652 815 732 700 q 431 931 572 931 m 283 1274 l 374 1092 l 351 1081 l 254 1260 l 283 1274 m 422 1272 l 504 1096 l 483 1086 l 393 1257 l 422 1272 z "},"Ö":{"ha":861,"x_min":97,"x_max":765,"o":"m 431 960 q 676 835 586 960 q 765 472 765 711 q 677 112 765 238 q 431 -14 589 -14 q 254 42 329 -14 q 138 206 179 97 q 97 471 97 315 q 139 738 97 628 q 256 903 181 847 q 431 960 331 960 m 431 931 q 210 813 292 931 q 129 471 129 696 q 210 133 129 249 q 431 17 292 17 q 653 132 575 17 q 732 472 732 247 q 652 815 732 700 q 431 931 572 931 m 329 1164 q 349 1156 342 1164 q 357 1136 357 1149 q 349 1117 357 1125 q 329 1110 342 1110 q 310 1117 318 1110 q 303 1136 303 1125 q 310 1156 303 1147 q 329 1164 318 1164 m 539 1164 q 559 1156 551 1164 q 567 1136 567 1147 q 559 1117 567 1125 q 539 1110 551 1110 q 519 1117 526 1110 q 511 1136 511 1125 q 519 1156 511 1147 q 539 1164 526 1164 z "},"Ȫ":{"ha":861,"x_min":97,"x_max":765,"o":"m 431 960 q 676 835 586 960 q 765 472 765 711 q 677 112 765 238 q 431 -14 589 -14 q 254 42 329 -14 q 138 206 179 97 q 97 471 97 315 q 139 738 97 628 q 256 903 181 847 q 431 960 331 960 m 431 931 q 210 813 292 931 q 129 471 129 696 q 210 133 129 249 q 431 17 292 17 q 653 132 575 17 q 732 472 732 247 q 652 815 732 700 q 431 931 572 931 m 325 1085 q 345 1077 338 1085 q 353 1057 353 1069 q 345 1038 353 1046 q 325 1031 338 1031 q 306 1038 314 1031 q 299 1057 299 1046 q 306 1076 299 1068 q 325 1085 314 1085 m 535 1085 q 555 1076 547 1085 q 563 1057 563 1068 q 555 1038 563 1046 q 535 1031 547 1031 q 515 1038 522 1031 q 507 1057 507 1046 q 515 1076 507 1068 q 535 1085 522 1085 m 563 1181 l 300 1181 l 300 1210 l 563 1210 l 563 1181 z "},"Ȯ":{"ha":861,"x_min":97,"x_max":765,"o":"m 431 960 q 676 835 586 960 q 765 472 765 711 q 677 112 765 238 q 431 -14 589 -14 q 254 42 329 -14 q 138 206 179 97 q 97 471 97 315 q 139 738 97 628 q 256 903 181 847 q 431 960 331 960 m 431 931 q 210 813 292 931 q 129 471 129 696 q 210 133 129 249 q 431 17 292 17 q 653 132 575 17 q 732 472 732 247 q 652 815 732 700 q 431 931 572 931 m 432 1181 q 452 1172 444 1181 q 460 1153 460 1164 q 452 1134 460 1142 q 432 1126 444 1126 q 412 1134 419 1126 q 404 1153 404 1142 q 412 1172 404 1164 q 432 1181 419 1181 z "},"Ȱ":{"ha":861,"x_min":97,"x_max":765,"o":"m 431 960 q 676 835 586 960 q 765 472 765 711 q 677 112 765 238 q 431 -14 589 -14 q 254 42 329 -14 q 138 206 179 97 q 97 471 97 315 q 139 738 97 628 q 256 903 181 847 q 431 960 331 960 m 431 931 q 210 813 292 931 q 129 471 129 696 q 210 133 129 249 q 431 17 292 17 q 653 132 575 17 q 732 472 732 247 q 652 815 732 700 q 431 931 572 931 m 431 1092 q 451 1083 443 1092 q 458 1064 458 1075 q 451 1045 458 1053 q 431 1038 443 1038 q 410 1045 418 1038 q 403 1064 403 1053 q 410 1083 403 1075 q 431 1092 418 1092 m 563 1179 l 300 1179 l 300 1208 l 563 1208 l 563 1179 z "},"Ọ":{"ha":861,"x_min":97,"x_max":765,"o":"m 431 960 q 676 835 586 960 q 765 472 765 711 q 677 112 765 238 q 431 -14 589 -14 q 254 42 329 -14 q 138 206 179 97 q 97 471 97 315 q 139 738 97 628 q 256 903 181 847 q 431 960 331 960 m 431 931 q 210 813 292 931 q 129 471 129 696 q 210 133 129 249 q 431 17 292 17 q 653 132 575 17 q 732 472 732 247 q 652 815 732 700 q 431 931 572 931 m 431 -192 q 410 -183 418 -192 q 403 -164 403 -175 q 410 -145 403 -153 q 431 -137 418 -137 q 451 -145 443 -137 q 458 -164 458 -153 q 451 -183 458 -175 q 431 -192 443 -192 z "},"Ò":{"ha":861,"x_min":97,"x_max":765,"o":"m 431 960 q 676 835 586 960 q 765 472 765 711 q 677 112 765 238 q 431 -14 589 -14 q 254 42 329 -14 q 138 206 179 97 q 97 471 97 315 q 139 738 97 628 q 256 903 181 847 q 431 960 331 960 m 431 931 q 210 813 292 931 q 129 471 129 696 q 210 133 129 249 q 431 17 292 17 q 653 132 575 17 q 732 472 732 247 q 652 815 732 700 q 431 931 572 931 m 332 1193 l 549 1081 l 539 1060 l 315 1163 l 332 1193 z "},"Ỏ":{"ha":861,"x_min":97,"x_max":765,"o":"m 431 960 q 676 835 586 960 q 765 472 765 711 q 677 112 765 238 q 431 -14 589 -14 q 254 42 329 -14 q 138 206 179 97 q 97 471 97 315 q 139 738 97 628 q 256 903 181 847 q 431 960 331 960 m 431 931 q 210 813 292 931 q 129 471 129 696 q 210 133 129 249 q 431 17 292 17 q 653 132 575 17 q 732 472 732 247 q 652 815 732 700 q 431 931 572 931 m 417 1165 q 500 1238 500 1168 q 483 1285 500 1268 q 435 1301 465 1301 q 365 1282 397 1301 l 353 1304 q 438 1329 392 1329 q 506 1304 481 1329 q 532 1238 532 1279 q 446 1146 532 1156 l 446 1086 l 417 1086 l 417 1165 z "},"Ơ":{"ha":861,"x_min":97,"x_max":765,"o":"m 667 847 q 765 472 765 719 q 677 112 765 238 q 431 -14 589 -14 q 254 42 329 -14 q 138 206 179 97 q 97 471 97 315 q 139 738 97 628 q 256 903 181 847 q 431 960 331 960 q 650 868 565 960 q 708 894 690 874 q 725 953 725 914 q 707 1053 725 999 l 731 1063 q 753 953 753 1007 q 731 879 753 904 q 667 847 710 854 m 431 17 q 653 132 575 17 q 732 472 732 247 q 652 815 732 700 q 431 931 572 931 q 210 813 292 931 q 129 471 129 696 q 210 133 129 249 q 431 17 292 17 z "},"Ớ":{"ha":861,"x_min":97,"x_max":765,"o":"m 546 1163 l 322 1061 l 313 1082 l 531 1193 l 546 1163 m 667 847 q 765 472 765 719 q 677 112 765 238 q 431 -14 589 -14 q 254 42 329 -14 q 138 206 179 97 q 97 471 97 315 q 139 738 97 628 q 256 903 181 847 q 431 960 331 960 q 650 868 565 960 q 708 894 690 874 q 725 953 725 914 q 707 1053 725 999 l 731 1063 q 753 953 753 1007 q 731 879 753 904 q 667 847 710 854 m 431 17 q 653 132 575 17 q 732 472 732 247 q 652 815 732 700 q 431 931 572 931 q 210 813 292 931 q 129 471 129 696 q 210 133 129 249 q 431 17 292 17 z "},"Ợ":{"ha":861,"x_min":97,"x_max":765,"o":"m 667 847 q 765 472 765 719 q 677 112 765 238 q 431 -14 589 -14 q 254 42 329 -14 q 138 206 179 97 q 97 471 97 315 q 139 738 97 628 q 256 903 181 847 q 431 960 331 960 q 650 868 565 960 q 708 894 690 874 q 725 953 725 914 q 707 1053 725 999 l 731 1063 q 753 953 753 1007 q 731 879 753 904 q 667 847 710 854 m 431 17 q 653 132 575 17 q 732 472 732 247 q 652 815 732 700 q 431 931 572 931 q 210 813 292 931 q 129 471 129 696 q 210 133 129 249 q 431 17 292 17 m 431 -137 q 451 -145 443 -137 q 458 -164 458 -153 q 451 -183 458 -175 q 431 -192 443 -192 q 410 -183 418 -192 q 403 -164 403 -175 q 410 -145 403 -153 q 431 -137 418 -137 z "},"Ờ":{"ha":861,"x_min":97,"x_max":765,"o":"m 549 1081 l 539 1060 l 315 1163 l 332 1193 l 549 1081 m 667 847 q 765 472 765 719 q 677 112 765 238 q 431 -14 589 -14 q 254 42 329 -14 q 138 206 179 97 q 97 471 97 315 q 139 738 97 628 q 256 903 181 847 q 431 960 331 960 q 650 868 565 960 q 708 894 690 874 q 725 953 725 914 q 707 1053 725 999 l 731 1063 q 753 953 753 1007 q 731 879 753 904 q 667 847 710 854 m 431 17 q 653 132 575 17 q 732 472 732 247 q 652 815 732 700 q 431 931 572 931 q 210 813 292 931 q 129 471 129 696 q 210 133 129 249 q 431 17 292 17 z "},"Ở":{"ha":861,"x_min":97,"x_max":765,"o":"m 435 1301 q 365 1282 397 1301 l 353 1304 q 438 1329 392 1329 q 506 1304 481 1329 q 532 1238 532 1279 q 446 1146 532 1156 l 446 1086 l 417 1086 l 417 1165 q 500 1238 500 1168 q 483 1285 500 1268 q 435 1301 465 1301 m 667 847 q 765 472 765 719 q 677 112 765 238 q 431 -14 589 -14 q 254 42 329 -14 q 138 206 179 97 q 97 471 97 315 q 139 738 97 628 q 256 903 181 847 q 431 960 331 960 q 650 868 565 960 q 708 894 690 874 q 725 953 725 914 q 707 1053 725 999 l 731 1063 q 753 953 753 1007 q 731 879 753 904 q 667 847 710 854 m 431 17 q 653 132 575 17 q 732 472 732 247 q 652 815 732 700 q 431 931 572 931 q 210 813 292 931 q 129 471 129 696 q 210 133 129 249 q 431 17 292 17 z "},"Ỡ":{"ha":861,"x_min":97,"x_max":765,"o":"m 357 1178 q 319 1167 336 1178 q 283 1129 303 1156 l 264 1140 q 308 1188 286 1172 q 357 1204 331 1204 q 389 1197 374 1204 q 431 1175 404 1190 q 470 1152 453 1160 q 504 1144 488 1144 q 542 1157 525 1144 q 578 1200 558 1169 l 597 1190 q 554 1134 576 1151 q 504 1117 532 1117 q 465 1125 483 1117 q 419 1150 447 1133 q 385 1171 399 1164 q 357 1178 371 1178 m 667 847 q 765 472 765 719 q 677 112 765 238 q 431 -14 589 -14 q 254 42 329 -14 q 138 206 179 97 q 97 471 97 315 q 139 738 97 628 q 256 903 181 847 q 431 960 331 960 q 650 868 565 960 q 708 894 690 874 q 725 953 725 914 q 707 1053 725 999 l 731 1063 q 753 953 753 1007 q 731 879 753 904 q 667 847 710 854 m 431 17 q 653 132 575 17 q 732 472 732 247 q 652 815 732 700 q 431 931 572 931 q 210 813 292 931 q 129 471 129 696 q 210 133 129 249 q 431 17 292 17 z "},"Ő":{"ha":861,"x_min":97,"x_max":765,"o":"m 431 960 q 676 835 586 960 q 765 472 765 711 q 677 112 765 238 q 431 -14 589 -14 q 254 42 329 -14 q 138 206 179 97 q 97 471 97 315 q 139 738 97 628 q 256 903 181 847 q 431 960 331 960 m 431 931 q 210 813 292 931 q 129 471 129 696 q 210 133 129 249 q 431 17 292 17 q 653 132 575 17 q 732 472 732 247 q 652 815 732 700 q 431 931 572 931 m 564 1274 l 593 1260 l 496 1081 l 474 1092 l 564 1274 m 425 1272 l 454 1257 l 364 1086 l 343 1096 l 425 1272 z "},"Ƣ":{"ha":1103,"x_min":97,"x_max":951,"o":"m 801 960 q 913 918 874 960 q 951 793 951 876 l 951 -267 l 919 -267 l 919 792 q 801 933 919 933 q 719 919 757 933 q 639 879 681 906 q 733 716 700 818 q 765 472 765 614 q 677 112 765 238 q 431 -14 589 -14 q 254 42 329 -14 q 138 206 179 97 q 97 471 97 315 q 139 738 97 628 q 256 903 181 847 q 431 960 331 960 q 619 897 540 960 q 708 943 664 926 q 801 960 751 960 m 732 472 q 652 815 732 700 q 431 931 572 931 q 210 813 292 931 q 129 471 129 696 q 210 133 129 249 q 431 17 292 17 q 653 132 575 17 q 732 472 732 247 z "},"Ȏ":{"ha":861,"x_min":97,"x_max":765,"o":"m 431 960 q 676 835 586 960 q 765 472 765 711 q 677 112 765 238 q 431 -14 589 -14 q 254 42 329 -14 q 138 206 179 97 q 97 471 97 315 q 139 738 97 628 q 256 903 181 847 q 431 960 331 960 m 431 931 q 210 813 292 931 q 129 471 129 696 q 210 133 129 249 q 431 17 292 17 q 653 132 575 17 q 732 472 732 247 q 652 815 732 700 q 431 931 572 931 m 431 1232 q 522 1199 485 1232 q 567 1113 558 1167 l 544 1107 q 504 1178 533 1154 q 431 1203 475 1203 q 315 1107 338 1203 l 293 1113 q 338 1199 301 1167 q 431 1232 375 1232 z "},"Ō":{"ha":861,"x_min":97,"x_max":765,"o":"m 431 960 q 676 835 586 960 q 765 472 765 711 q 677 112 765 238 q 431 -14 589 -14 q 254 42 329 -14 q 138 206 179 97 q 97 471 97 315 q 139 738 97 628 q 256 903 181 847 q 431 960 331 960 m 431 931 q 210 813 292 931 q 129 471 129 696 q 210 133 129 249 q 431 17 292 17 q 653 132 575 17 q 732 472 732 247 q 652 815 732 700 q 431 931 572 931 m 563 1126 l 300 1126 l 300 1156 l 563 1156 l 563 1126 z "},"Ṓ":{"ha":861,"x_min":97,"x_max":765,"o":"m 431 960 q 676 835 586 960 q 765 472 765 711 q 677 112 765 238 q 431 -14 589 -14 q 254 42 329 -14 q 138 206 179 97 q 97 471 97 315 q 139 738 97 628 q 256 903 181 847 q 431 960 331 960 m 431 931 q 210 813 292 931 q 129 471 129 696 q 210 133 129 249 q 431 17 292 17 q 653 132 575 17 q 732 472 732 247 q 652 815 732 700 q 431 931 572 931 m 563 1065 l 300 1065 l 300 1094 l 563 1094 l 563 1065 m 528 1304 l 543 1274 l 319 1172 l 310 1193 l 528 1304 z "},"Ṑ":{"ha":861,"x_min":97,"x_max":765,"o":"m 338 1304 l 554 1192 l 544 1171 l 321 1274 l 338 1304 m 567 1065 l 304 1065 l 304 1094 l 567 1094 l 567 1065 m 431 960 q 676 835 586 960 q 765 472 765 711 q 677 112 765 238 q 431 -14 589 -14 q 254 42 329 -14 q 138 206 179 97 q 97 471 97 315 q 139 738 97 628 q 256 903 181 847 q 431 960 331 960 m 431 931 q 210 813 292 931 q 129 471 129 696 q 210 133 129 249 q 431 17 292 17 q 653 132 575 17 q 732 472 732 247 q 652 815 732 700 q 431 931 572 931 z "},"Ꞷ":{"ha":1051,"x_min":106,"x_max":946,"o":"m 856 946 q 924 674 903 796 q 946 396 946 551 q 884 77 946 168 q 711 -14 822 -14 q 585 29 631 -14 q 525 160 540 72 q 462 29 508 72 q 336 -14 415 -14 q 163 81 221 -14 q 106 397 106 175 q 128 672 106 551 q 199 946 150 792 l 232 946 q 160 672 183 796 q 138 397 138 547 q 162 166 138 250 q 229 49 186 82 q 336 17 272 17 q 463 72 418 17 q 508 256 508 126 l 508 550 l 542 550 l 542 254 q 586 71 542 125 q 711 17 631 17 q 861 100 808 17 q 914 396 914 183 q 892 672 914 547 q 822 946 869 797 l 856 946 z "},"Ǫ":{"ha":861,"x_min":97,"x_max":765,"o":"m 521 -1 q 407 -76 446 -39 q 368 -171 368 -114 q 390 -231 368 -210 q 456 -251 413 -251 q 525 -242 488 -251 l 522 -272 q 454 -282 485 -282 q 367 -251 397 -282 q 336 -171 336 -221 q 366 -83 336 -121 q 453 -14 396 -46 l 431 -14 q 254 42 329 -14 q 138 206 179 97 q 97 471 97 315 q 139 738 97 628 q 256 903 181 847 q 431 960 331 960 q 676 835 586 960 q 765 472 765 711 q 701 153 765 274 q 521 -1 638 32 m 129 471 q 210 133 129 249 q 431 17 292 17 q 653 132 575 17 q 732 472 732 247 q 652 815 732 700 q 431 931 572 931 q 210 813 292 931 q 129 471 129 696 z "},"Ǭ":{"ha":861,"x_min":97,"x_max":765,"o":"m 563 1156 l 563 1126 l 300 1126 l 300 1156 l 563 1156 m 521 -1 q 407 -76 446 -39 q 368 -171 368 -114 q 390 -231 368 -210 q 456 -251 413 -251 q 525 -242 488 -251 l 522 -272 q 454 -282 485 -282 q 367 -251 397 -282 q 336 -171 336 -221 q 366 -83 336 -121 q 453 -14 396 -46 l 431 -14 q 254 42 329 -14 q 138 206 179 97 q 97 471 97 315 q 139 738 97 628 q 256 903 181 847 q 431 960 331 960 q 676 835 586 960 q 765 472 765 711 q 701 153 765 274 q 521 -1 638 32 m 129 471 q 210 133 129 249 q 431 17 292 17 q 653 132 575 17 q 732 472 732 247 q 652 815 732 700 q 431 931 572 931 q 210 813 292 931 q 129 471 129 696 z "},"Ɔ":{"ha":674,"x_min":32,"x_max":578,"o":"m 264 960 q 493 838 408 960 q 578 472 578 717 q 535 206 578 315 q 419 41 493 96 q 251 -14 346 -14 q 128 10 181 -14 q 32 75 75 33 l 50 96 q 142 37 96 57 q 250 17 188 17 q 401 67 335 17 q 506 220 468 118 q 544 472 544 322 q 469 819 544 707 q 263 931 393 931 q 153 913 201 931 q 58 857 106 894 l 42 879 q 264 960 139 960 z "},"Ø":{"ha":861,"x_min":97,"x_max":765,"o":"m 565 931 q 713 769 660 885 q 765 472 765 653 q 677 112 765 238 q 431 -14 589 -14 q 319 6 374 -14 l 279 -154 l 249 -144 l 294 17 q 149 179 201 64 q 97 471 97 294 q 139 738 97 628 q 256 903 181 847 q 431 960 331 960 q 540 942 492 960 l 583 1108 l 614 1100 l 565 931 m 129 471 q 175 197 129 304 q 306 46 221 90 l 533 913 q 431 931 489 931 q 210 813 292 931 q 129 471 129 696 m 431 17 q 653 132 575 17 q 732 472 732 247 q 687 751 732 643 q 557 901 642 858 l 328 36 q 431 17 372 17 z "},"Ǿ":{"ha":861,"x_min":97,"x_max":765,"o":"m 565 931 q 713 769 660 885 q 765 472 765 653 q 677 112 765 238 q 431 -14 589 -14 q 319 6 374 -14 l 279 -154 l 249 -144 l 294 17 q 149 179 201 64 q 97 471 97 294 q 139 738 97 628 q 256 903 181 847 q 431 960 331 960 q 540 942 492 960 l 583 1108 l 614 1100 l 565 931 m 129 471 q 175 197 129 304 q 306 46 221 90 l 533 913 q 431 931 489 931 q 210 813 292 931 q 129 471 129 696 m 431 17 q 653 132 575 17 q 732 472 732 247 q 687 751 732 643 q 557 901 642 858 l 328 36 q 431 17 372 17 m 521 1207 l 536 1176 l 313 1075 l 303 1096 l 521 1207 z "},"Õ":{"ha":861,"x_min":97,"x_max":765,"o":"m 431 960 q 676 835 586 960 q 765 472 765 711 q 677 112 765 238 q 431 -14 589 -14 q 254 42 329 -14 q 138 206 179 97 q 97 471 97 315 q 139 738 97 628 q 256 903 181 847 q 431 960 331 960 m 431 931 q 210 813 292 931 q 129 471 129 696 q 210 133 129 249 q 431 17 292 17 q 653 132 575 17 q 732 472 732 247 q 652 815 732 700 q 431 931 572 931 m 504 1117 q 465 1125 483 1117 q 419 1150 447 1133 q 385 1171 399 1164 q 357 1178 371 1178 q 319 1167 336 1178 q 283 1129 303 1156 l 264 1140 q 308 1188 286 1172 q 357 1204 331 1204 q 390 1197 374 1204 q 431 1175 406 1190 q 470 1152 454 1160 q 504 1144 486 1144 q 542 1157 525 1144 q 578 1200 558 1169 l 597 1190 q 554 1134 576 1151 q 504 1117 532 1117 z "},"Ṍ":{"ha":861,"x_min":97,"x_max":765,"o":"m 431 960 q 676 835 586 960 q 765 472 765 711 q 677 112 765 238 q 431 -14 589 -14 q 254 42 329 -14 q 138 206 179 97 q 97 471 97 315 q 139 738 97 628 q 256 903 181 847 q 431 960 331 960 m 431 931 q 210 813 292 931 q 129 471 129 696 q 210 133 129 249 q 431 17 292 17 q 653 132 575 17 q 732 472 732 247 q 652 815 732 700 q 431 931 572 931 m 504 1051 q 465 1060 483 1051 q 419 1085 447 1068 q 385 1106 399 1099 q 357 1113 371 1113 q 319 1101 336 1113 q 283 1064 303 1090 l 264 1075 q 308 1123 286 1107 q 357 1139 331 1139 q 390 1132 374 1139 q 431 1110 406 1125 q 470 1087 454 1094 q 504 1079 486 1079 q 542 1092 525 1079 q 578 1135 558 1104 l 597 1125 q 554 1069 576 1086 q 504 1051 532 1051 m 531 1328 l 546 1297 l 322 1196 l 313 1217 l 531 1328 z "},"Ȭ":{"ha":861,"x_min":97,"x_max":765,"o":"m 431 960 q 676 835 586 960 q 765 472 765 711 q 677 112 765 238 q 431 -14 589 -14 q 254 42 329 -14 q 138 206 179 97 q 97 471 97 315 q 139 738 97 628 q 256 903 181 847 q 431 960 331 960 m 431 931 q 210 813 292 931 q 129 471 129 696 q 210 133 129 249 q 431 17 292 17 q 653 132 575 17 q 732 472 732 247 q 652 815 732 700 q 431 931 572 931 m 504 1051 q 465 1060 483 1051 q 419 1085 447 1068 q 385 1106 399 1099 q 357 1113 371 1113 q 319 1101 336 1113 q 283 1064 303 1090 l 264 1075 q 308 1123 286 1107 q 357 1139 331 1139 q 390 1132 374 1139 q 431 1110 406 1125 q 470 1087 454 1094 q 504 1079 486 1079 q 542 1092 525 1079 q 578 1135 558 1104 l 597 1125 q 554 1069 576 1086 q 504 1051 532 1051 m 558 1219 l 296 1219 l 296 1249 l 558 1249 l 558 1219 z "},"Œ":{"ha":1060,"x_min":97,"x_max":1006,"o":"m 1006 0 l 497 0 q 415 -14 460 -14 q 249 43 321 -14 q 138 209 178 100 q 97 471 97 318 q 138 734 97 624 q 250 902 178 844 q 415 960 322 960 q 504 946 467 960 l 996 946 l 992 917 l 561 917 q 688 765 642 868 q 738 514 733 663 l 942 514 l 942 485 l 738 485 q 689 192 736 307 q 556 29 642 76 l 1006 29 l 1006 0 m 129 471 q 165 224 129 326 q 266 69 201 122 q 415 17 331 17 q 628 138 551 17 q 704 489 704 258 q 668 728 704 629 q 567 879 632 828 q 415 931 501 931 q 266 877 331 931 q 165 720 201 824 q 129 471 129 617 z "},"P":{"ha":696,"x_min":153,"x_max":628,"o":"m 303 946 q 548 880 468 946 q 628 672 628 814 q 542 459 628 526 q 297 392 457 392 l 185 392 l 185 0 l 153 0 l 153 946 l 303 946 m 300 421 q 521 479 446 421 q 596 671 596 538 q 525 859 596 801 q 303 917 454 917 l 185 917 l 185 421 l 300 421 z "},"Ṕ":{"ha":696,"x_min":153,"x_max":628,"o":"m 303 946 q 548 880 468 946 q 628 672 628 814 q 542 459 628 526 q 297 392 457 392 l 185 392 l 185 0 l 153 0 l 153 946 l 303 946 m 300 421 q 521 479 446 421 q 596 671 596 538 q 525 859 596 801 q 303 917 454 917 l 185 917 l 185 421 l 300 421 m 450 1193 l 465 1163 l 242 1061 l 232 1082 l 450 1193 z "},"Ṗ":{"ha":696,"x_min":153,"x_max":628,"o":"m 303 946 q 548 880 468 946 q 628 672 628 814 q 542 459 628 526 q 297 392 457 392 l 185 392 l 185 0 l 153 0 l 153 946 l 303 946 m 300 421 q 521 479 446 421 q 596 671 596 538 q 525 859 596 801 q 303 917 454 917 l 185 917 l 185 421 l 300 421 m 351 1181 q 372 1172 364 1181 q 379 1153 379 1164 q 372 1134 379 1142 q 351 1126 364 1126 q 331 1134 339 1126 q 324 1153 324 1142 q 331 1172 324 1164 q 351 1181 339 1181 z "},"Ƥ":{"ha":750,"x_min":28,"x_max":682,"o":"m 357 946 q 602 880 522 946 q 682 672 682 814 q 597 459 682 526 q 351 392 511 392 l 239 392 l 239 0 l 207 0 l 207 918 l 169 918 q 86 890 114 918 q 58 813 58 861 q 67 756 58 781 q 92 706 75 732 l 68 692 q 38 748 49 722 q 28 813 28 774 q 65 910 28 875 q 172 946 101 946 l 357 946 m 354 421 q 575 479 500 421 q 650 671 650 538 q 579 859 650 801 q 357 917 508 917 l 239 917 l 239 421 l 354 421 z "},"Þ":{"ha":696,"x_min":153,"x_max":628,"o":"m 306 769 q 549 703 469 769 q 628 493 628 636 q 544 273 628 342 q 301 204 460 204 l 185 204 l 185 0 l 153 0 l 153 946 l 185 946 l 185 769 l 306 769 m 303 233 q 522 293 447 233 q 596 493 596 353 q 526 683 596 625 q 306 740 456 740 l 185 740 l 185 233 l 303 233 z "},"Q":{"ha":861,"x_min":97,"x_max":789,"o":"m 518 8 q 671 -15 604 6 q 789 -87 738 -36 l 767 -112 q 629 -33 704 -54 q 431 -11 554 -11 q 187 113 276 -11 q 97 471 97 236 q 139 738 97 628 q 256 903 181 847 q 431 960 331 960 q 676 835 586 960 q 765 472 765 711 q 699 148 765 261 q 518 8 633 35 m 129 471 q 210 133 129 249 q 431 17 292 17 q 653 132 575 17 q 732 472 732 247 q 652 815 732 700 q 431 931 572 931 q 210 813 292 931 q 129 471 129 696 z "},"Ɋ":{"ha":814,"x_min":97,"x_max":863,"o":"m 863 -232 q 750 -274 815 -274 q 661 -237 694 -274 q 628 -132 628 -201 l 628 99 q 410 -14 544 -14 q 249 38 319 -14 q 138 197 178 90 q 97 457 97 303 q 138 733 97 621 q 251 903 179 846 q 414 960 322 960 q 629 858 547 960 l 632 946 l 658 946 l 658 -132 q 684 -217 658 -190 q 751 -244 710 -244 q 804 -235 782 -244 q 847 -210 826 -226 l 863 -232 m 410 17 q 628 143 549 17 l 628 819 q 535 901 589 872 q 414 931 481 931 q 267 878 331 931 q 166 720 203 826 q 129 457 129 614 q 166 212 129 311 q 266 65 203 113 q 410 17 329 17 z "},"R":{"ha":717,"x_min":153,"x_max":663,"o":"m 626 0 l 390 451 l 364 450 l 185 450 l 185 0 l 153 0 l 153 946 l 328 946 q 552 883 482 946 q 622 700 622 821 q 569 535 622 596 q 424 457 517 474 l 663 0 l 626 0 m 344 479 q 526 534 461 479 q 590 700 590 589 q 529 862 590 807 q 324 917 468 917 l 185 917 l 185 479 l 344 479 z "},"Ŕ":{"ha":717,"x_min":153,"x_max":663,"o":"m 626 0 l 390 451 l 364 450 l 185 450 l 185 0 l 153 0 l 153 946 l 328 946 q 552 883 482 946 q 622 700 622 821 q 569 535 622 596 q 424 457 517 474 l 663 0 l 626 0 m 344 479 q 526 534 461 479 q 590 700 590 589 q 529 862 590 807 q 324 917 468 917 l 185 917 l 185 479 l 344 479 m 456 1193 l 471 1163 l 247 1061 l 238 1082 l 456 1193 z "},"Ř":{"ha":717,"x_min":153,"x_max":663,"o":"m 626 0 l 390 451 l 364 450 l 185 450 l 185 0 l 153 0 l 153 946 l 328 946 q 552 883 482 946 q 622 700 622 821 q 569 535 622 596 q 424 457 517 474 l 663 0 l 626 0 m 344 479 q 526 534 461 479 q 590 700 590 589 q 529 862 590 807 q 324 917 468 917 l 185 917 l 185 479 l 344 479 m 499 1199 l 514 1182 l 363 1056 l 346 1056 l 196 1182 l 210 1199 l 354 1088 l 499 1199 z "},"Ŗ":{"ha":717,"x_min":153,"x_max":663,"o":"m 626 0 l 390 451 l 364 450 l 185 450 l 185 0 l 153 0 l 153 946 l 328 946 q 552 883 482 946 q 622 700 622 821 q 569 535 622 596 q 424 457 517 474 l 663 0 l 626 0 m 344 479 q 526 534 461 479 q 590 700 590 589 q 529 862 590 807 q 324 917 468 917 l 185 917 l 185 479 l 344 479 m 378 -133 q 402 -142 393 -133 q 411 -165 411 -151 q 403 -199 411 -179 q 393 -226 396 -218 l 349 -358 l 328 -358 l 367 -197 q 344 -165 344 -189 q 353 -142 344 -151 q 378 -133 363 -133 z "},"Ȑ":{"ha":717,"x_min":153,"x_max":663,"o":"m 626 0 l 390 451 l 364 450 l 185 450 l 185 0 l 153 0 l 153 946 l 328 946 q 552 883 482 946 q 622 700 622 821 q 569 535 622 596 q 424 457 517 474 l 663 0 l 626 0 m 344 479 q 526 534 461 479 q 590 700 590 589 q 529 862 590 807 q 324 917 468 917 l 185 917 l 185 479 l 344 479 m 208 1274 l 299 1092 l 276 1081 l 179 1260 l 208 1274 m 347 1272 l 429 1096 l 408 1086 l 318 1257 l 347 1272 z "},"Ṛ":{"ha":717,"x_min":153,"x_max":663,"o":"m 626 0 l 390 451 l 364 450 l 185 450 l 185 0 l 153 0 l 153 946 l 328 946 q 552 883 482 946 q 622 700 622 821 q 569 535 622 596 q 424 457 517 474 l 663 0 l 626 0 m 344 479 q 526 534 461 479 q 590 700 590 589 q 529 862 590 807 q 324 917 468 917 l 185 917 l 185 479 l 344 479 m 381 -192 q 360 -183 368 -192 q 353 -164 353 -175 q 360 -145 353 -153 q 381 -137 368 -137 q 401 -145 393 -137 q 408 -164 408 -153 q 401 -183 408 -175 q 381 -192 393 -192 z "},"Ȓ":{"ha":717,"x_min":153,"x_max":663,"o":"m 626 0 l 390 451 l 364 450 l 185 450 l 185 0 l 153 0 l 153 946 l 328 946 q 552 883 482 946 q 622 700 622 821 q 569 535 622 596 q 424 457 517 474 l 663 0 l 626 0 m 344 479 q 526 534 461 479 q 590 700 590 589 q 529 862 590 807 q 324 917 468 917 l 185 917 l 185 479 l 344 479 m 356 1232 q 447 1199 410 1232 q 492 1113 483 1167 l 469 1107 q 429 1178 458 1154 q 356 1203 400 1203 q 240 1107 263 1203 l 218 1113 q 263 1199 226 1167 q 356 1232 300 1232 z "},"Ɍ":{"ha":711,"x_min":33,"x_max":658,"o":"m 622 0 l 386 451 l 360 450 l 181 450 l 181 0 l 149 0 l 149 450 l 33 450 l 33 479 l 149 479 l 149 946 l 324 946 q 548 883 478 946 q 618 700 618 821 q 565 535 618 596 q 419 457 513 474 l 658 0 l 622 0 m 340 479 q 522 534 457 479 q 586 700 586 589 q 525 862 586 807 q 319 917 464 917 l 181 917 l 181 479 l 340 479 z "},"Ɽ":{"ha":717,"x_min":153,"x_max":663,"o":"m 183 0 l 183 -132 q 209 -217 183 -190 q 276 -244 235 -244 q 329 -235 307 -244 q 372 -210 351 -226 l 388 -232 q 275 -274 340 -274 q 186 -237 219 -274 q 153 -132 153 -201 l 153 946 l 328 946 q 552 883 482 946 q 622 700 622 821 q 569 535 622 596 q 424 457 517 474 l 663 0 l 626 0 l 390 451 l 364 450 l 185 450 l 185 0 l 183 0 m 185 917 l 185 479 l 344 479 q 526 534 461 479 q 590 700 590 589 q 529 862 590 807 q 324 917 468 917 l 185 917 z "},"S":{"ha":671,"x_min":67,"x_max":585,"o":"m 332 960 q 458 935 406 960 q 558 864 510 911 l 538 843 q 443 910 490 889 q 332 931 396 931 q 186 877 242 931 q 131 742 131 824 q 151 648 131 686 q 217 581 171 610 q 343 524 263 553 q 528 420 472 479 q 585 253 585 361 q 551 116 585 176 q 458 21 518 56 q 322 -14 399 -14 q 182 15 243 -14 q 67 100 121 44 l 88 119 q 192 42 139 68 q 321 17 246 17 q 489 82 425 17 q 553 251 553 147 q 531 363 553 318 q 462 438 508 407 q 332 497 415 468 q 151 597 203 543 q 99 742 99 651 q 128 851 99 801 q 210 931 157 901 q 332 960 264 960 z "},"Ś":{"ha":671,"x_min":67,"x_max":585,"o":"m 332 960 q 458 935 406 960 q 558 864 510 911 l 538 843 q 443 910 490 889 q 332 931 396 931 q 186 877 242 931 q 131 742 131 824 q 151 648 131 686 q 217 581 171 610 q 343 524 263 553 q 528 420 472 479 q 585 253 585 361 q 551 116 585 176 q 458 21 518 56 q 322 -14 399 -14 q 182 15 243 -14 q 67 100 121 44 l 88 119 q 192 42 139 68 q 321 17 246 17 q 489 82 425 17 q 553 251 553 147 q 531 363 553 318 q 462 438 508 407 q 332 497 415 468 q 151 597 203 543 q 99 742 99 651 q 128 851 99 801 q 210 931 157 901 q 332 960 264 960 m 438 1193 l 453 1163 l 229 1061 l 219 1082 l 438 1193 z "},"Ꞌ":{"ha":247,"x_min":107,"x_max":140,"o":"m 111 501 l 107 946 l 140 946 l 136 501 l 111 501 z "},"Š":{"ha":671,"x_min":67,"x_max":585,"o":"m 332 960 q 458 935 406 960 q 558 864 510 911 l 538 843 q 443 910 490 889 q 332 931 396 931 q 186 877 242 931 q 131 742 131 824 q 151 648 131 686 q 217 581 171 610 q 343 524 263 553 q 528 420 472 479 q 585 253 585 361 q 551 116 585 176 q 458 21 518 56 q 322 -14 399 -14 q 182 15 243 -14 q 67 100 121 44 l 88 119 q 192 42 139 68 q 321 17 246 17 q 489 82 425 17 q 553 251 553 147 q 531 363 553 318 q 462 438 508 407 q 332 497 415 468 q 151 597 203 543 q 99 742 99 651 q 128 851 99 801 q 210 931 157 901 q 332 960 264 960 m 481 1199 l 496 1182 l 344 1056 l 328 1056 l 178 1182 l 192 1199 l 336 1088 l 481 1199 z "},"Ş":{"ha":671,"x_min":67,"x_max":585,"o":"m 585 253 q 553 118 585 178 q 463 23 521 58 q 332 -14 406 -12 l 331 -103 q 444 -196 444 -111 q 413 -269 444 -243 q 338 -294 382 -294 q 251 -269 289 -294 l 265 -247 q 338 -268 296 -268 q 392 -250 371 -268 q 414 -196 414 -232 q 387 -143 414 -160 q 301 -125 360 -126 l 308 -14 q 176 18 233 -11 q 67 100 118 47 l 88 119 q 192 42 139 68 q 321 17 246 17 q 489 82 425 17 q 553 251 553 147 q 531 363 553 318 q 462 438 508 407 q 332 497 415 468 q 151 597 203 543 q 99 742 99 651 q 128 851 99 801 q 210 931 157 901 q 332 960 264 960 q 458 935 406 960 q 558 864 510 911 l 538 843 q 443 910 490 889 q 332 931 396 931 q 186 877 242 931 q 131 742 131 824 q 151 648 131 686 q 217 581 171 610 q 343 524 263 553 q 528 420 472 479 q 585 253 585 361 z "},"Ŝ":{"ha":671,"x_min":67,"x_max":585,"o":"m 332 960 q 458 935 406 960 q 558 864 510 911 l 538 843 q 443 910 490 889 q 332 931 396 931 q 186 877 242 931 q 131 742 131 824 q 151 648 131 686 q 217 581 171 610 q 343 524 263 553 q 528 420 472 479 q 585 253 585 361 q 551 116 585 176 q 458 21 518 56 q 322 -14 399 -14 q 182 15 243 -14 q 67 100 121 44 l 88 119 q 192 42 139 68 q 321 17 246 17 q 489 82 425 17 q 553 251 553 147 q 531 363 553 318 q 462 438 508 407 q 332 497 415 468 q 151 597 203 543 q 99 742 99 651 q 128 851 99 801 q 210 931 157 901 q 332 960 264 960 m 193 1065 l 178 1082 l 328 1207 l 344 1207 l 496 1082 l 481 1065 l 336 1175 l 193 1065 z "},"Ș":{"ha":671,"x_min":67,"x_max":585,"o":"m 332 960 q 458 935 406 960 q 558 864 510 911 l 538 843 q 443 910 490 889 q 332 931 396 931 q 186 877 242 931 q 131 742 131 824 q 151 648 131 686 q 217 581 171 610 q 343 524 263 553 q 528 420 472 479 q 585 253 585 361 q 551 116 585 176 q 458 21 518 56 q 322 -14 399 -14 q 182 15 243 -14 q 67 100 121 44 l 88 119 q 192 42 139 68 q 321 17 246 17 q 489 82 425 17 q 553 251 553 147 q 531 363 553 318 q 462 438 508 407 q 332 497 415 468 q 151 597 203 543 q 99 742 99 651 q 128 851 99 801 q 210 931 157 901 q 332 960 264 960 m 325 -133 q 349 -142 340 -133 q 358 -165 358 -151 q 351 -199 358 -179 q 340 -226 343 -218 l 296 -358 l 275 -358 l 314 -197 q 292 -165 292 -189 q 301 -142 292 -151 q 325 -133 310 -133 z "},"Ṡ":{"ha":671,"x_min":67,"x_max":585,"o":"m 332 960 q 458 935 406 960 q 558 864 510 911 l 538 843 q 443 910 490 889 q 332 931 396 931 q 186 877 242 931 q 131 742 131 824 q 151 648 131 686 q 217 581 171 610 q 343 524 263 553 q 528 420 472 479 q 585 253 585 361 q 551 116 585 176 q 458 21 518 56 q 322 -14 399 -14 q 182 15 243 -14 q 67 100 121 44 l 88 119 q 192 42 139 68 q 321 17 246 17 q 489 82 425 17 q 553 251 553 147 q 531 363 553 318 q 462 438 508 407 q 332 497 415 468 q 151 597 203 543 q 99 742 99 651 q 128 851 99 801 q 210 931 157 901 q 332 960 264 960 m 339 1181 q 359 1172 351 1181 q 367 1153 367 1164 q 359 1134 367 1142 q 339 1126 351 1126 q 319 1134 326 1126 q 311 1153 311 1142 q 319 1172 311 1164 q 339 1181 326 1181 z "},"Ṣ":{"ha":671,"x_min":67,"x_max":585,"o":"m 332 960 q 458 935 406 960 q 558 864 510 911 l 538 843 q 443 910 490 889 q 332 931 396 931 q 186 877 242 931 q 131 742 131 824 q 151 648 131 686 q 217 581 171 610 q 343 524 263 553 q 528 420 472 479 q 585 253 585 361 q 551 116 585 176 q 458 21 518 56 q 322 -14 399 -14 q 182 15 243 -14 q 67 100 121 44 l 88 119 q 192 42 139 68 q 321 17 246 17 q 489 82 425 17 q 553 251 553 147 q 531 363 553 318 q 462 438 508 407 q 332 497 415 468 q 151 597 203 543 q 99 742 99 651 q 128 851 99 801 q 210 931 157 901 q 332 960 264 960 m 328 -192 q 308 -183 315 -192 q 300 -164 300 -175 q 308 -145 300 -153 q 328 -137 315 -137 q 348 -145 340 -137 q 356 -164 356 -153 q 348 -183 356 -175 q 328 -192 340 -192 z "},"ẞ":{"ha":797,"x_min":153,"x_max":721,"o":"m 403 960 q 541 939 475 960 q 678 876 607 918 l 678 851 l 415 531 q 646 442 571 511 q 721 249 721 374 q 658 57 721 128 q 486 -14 596 -14 q 344 17 403 -14 l 357 42 q 485 15 417 15 q 635 76 581 15 q 689 249 689 138 q 615 428 689 367 q 382 506 542 489 l 382 535 l 647 861 q 526 913 585 894 q 403 931 468 931 q 241 873 297 931 q 185 700 185 815 l 185 0 l 153 0 l 153 703 q 219 892 153 825 q 403 960 285 960 z "},"Ə":{"ha":807,"x_min":83,"x_max":710,"o":"m 400 960 q 630 844 550 960 q 710 468 710 728 q 626 104 710 222 q 396 -14 542 -14 q 166 103 249 -14 q 83 451 83 221 q 85 499 83 481 l 678 499 q 601 830 672 729 q 400 931 531 931 q 273 907 329 931 q 158 829 217 883 l 139 850 q 260 933 199 907 q 400 960 322 960 m 397 17 q 601 126 526 17 q 678 471 676 235 l 117 471 q 189 128 115 240 q 397 17 263 17 z "},"T":{"ha":596,"x_min":21,"x_max":581,"o":"m 581 946 l 575 917 l 314 917 l 314 0 l 282 0 l 282 917 l 21 917 l 21 946 l 581 946 z "},"Ŧ":{"ha":596,"x_min":21,"x_max":581,"o":"m 575 917 l 314 917 l 314 528 l 469 528 l 469 500 l 314 500 l 314 0 l 282 0 l 282 500 l 128 500 l 128 528 l 282 528 l 282 917 l 21 917 l 21 946 l 581 946 l 575 917 z "},"Ť":{"ha":596,"x_min":21,"x_max":581,"o":"m 581 946 l 575 917 l 314 917 l 314 0 l 282 0 l 282 917 l 21 917 l 21 946 l 581 946 m 442 1199 l 457 1182 l 306 1056 l 289 1056 l 139 1182 l 153 1199 l 297 1088 l 442 1199 z "},"Ţ":{"ha":596,"x_min":21,"x_max":581,"o":"m 313 -103 q 426 -194 426 -110 q 395 -268 426 -242 q 319 -294 364 -294 q 233 -269 271 -294 l 246 -246 q 319 -267 276 -267 q 374 -249 351 -267 q 396 -194 396 -231 q 369 -143 396 -160 q 283 -125 342 -126 l 290 0 l 282 0 l 282 917 l 21 917 l 21 946 l 581 946 l 575 917 l 314 917 l 314 0 l 313 -103 z "},"Ṱ":{"ha":596,"x_min":21,"x_max":581,"o":"m 581 946 l 575 917 l 314 917 l 314 0 l 282 0 l 282 917 l 21 917 l 21 946 l 581 946 m 156 -254 l 140 -237 l 290 -104 l 308 -104 l 458 -237 l 442 -254 l 299 -136 l 156 -254 z "},"Ț":{"ha":596,"x_min":21,"x_max":581,"o":"m 581 946 l 575 917 l 314 917 l 314 0 l 282 0 l 282 917 l 21 917 l 21 946 l 581 946 m 296 -133 q 320 -142 311 -133 q 329 -165 329 -151 q 322 -199 329 -179 q 311 -226 314 -218 l 267 -358 l 246 -358 l 285 -197 q 263 -165 263 -189 q 272 -142 263 -151 q 296 -133 281 -133 z "},"Ⱦ":{"ha":596,"x_min":21,"x_max":581,"o":"m 575 915 l 428 915 l 314 485 l 314 0 l 282 0 l 282 363 l 163 -92 l 140 -86 l 282 453 l 282 915 l 21 915 l 21 946 l 411 946 l 432 1024 l 454 1018 l 435 946 l 581 946 l 575 915 m 314 575 l 403 915 l 314 915 l 314 575 z "},"Ṫ":{"ha":596,"x_min":21,"x_max":581,"o":"m 581 946 l 575 917 l 314 917 l 314 0 l 282 0 l 282 917 l 21 917 l 21 946 l 581 946 m 300 1181 q 320 1172 313 1181 q 328 1153 328 1164 q 320 1134 328 1142 q 300 1126 313 1126 q 280 1134 288 1126 q 272 1153 272 1142 q 280 1172 272 1164 q 300 1181 288 1181 z "},"Ṭ":{"ha":596,"x_min":21,"x_max":581,"o":"m 581 946 l 575 917 l 314 917 l 314 0 l 282 0 l 282 917 l 21 917 l 21 946 l 581 946 m 299 -192 q 278 -183 286 -192 q 271 -164 271 -175 q 278 -145 271 -153 q 299 -137 286 -137 q 319 -145 311 -137 q 326 -164 326 -153 q 319 -183 326 -175 q 299 -192 311 -192 z "},"Ƭ":{"ha":622,"x_min":28,"x_max":607,"o":"m 601 915 l 340 915 l 340 0 l 308 0 l 308 915 l 171 915 q 86 888 114 915 q 58 813 58 861 q 67 756 58 781 q 92 706 75 732 l 68 692 q 38 748 49 722 q 28 813 28 774 q 65 910 28 875 q 178 946 103 946 l 607 946 l 601 915 z "},"Ṯ":{"ha":596,"x_min":21,"x_max":581,"o":"m 581 946 l 575 917 l 314 917 l 314 0 l 282 0 l 282 917 l 21 917 l 21 946 l 581 946 m 431 -193 l 168 -193 l 168 -164 l 431 -164 l 431 -193 z "},"Ƽ":{"ha":606,"x_min":53,"x_max":532,"o":"m 500 918 l 138 918 l 138 536 q 210 576 172 563 q 299 590 249 590 q 470 515 408 590 q 532 304 532 440 q 465 73 532 160 q 281 -14 397 -14 q 153 13 208 -14 q 53 93 99 40 l 76 111 q 166 39 117 63 q 282 15 215 15 q 442 93 383 15 q 500 304 500 171 q 446 496 500 431 q 296 561 392 561 q 211 548 247 561 q 132 506 175 535 l 108 506 l 108 946 l 506 946 l 500 918 z "},"Ƅ":{"ha":689,"x_min":111,"x_max":629,"o":"m 333 567 q 553 499 478 567 q 629 294 629 431 q 552 73 629 146 q 335 0 475 0 l 153 0 l 153 815 l 111 846 q 157 946 146 889 l 185 946 l 185 567 l 333 567 m 342 29 q 531 95 465 29 q 596 296 596 161 q 336 538 596 538 l 185 538 l 185 29 l 342 29 z "},"Ƨ":{"ha":663,"x_min":85,"x_max":596,"o":"m 351 960 q 512 901 453 960 q 571 750 571 843 q 549 641 571 685 q 476 565 526 597 q 338 499 426 532 q 208 435 254 468 q 140 358 161 403 q 118 243 118 313 q 179 78 118 139 q 338 17 240 17 q 470 43 415 17 q 575 121 525 69 l 596 100 q 481 15 542 44 q 338 -14 419 -14 q 208 18 265 -14 q 117 108 150 50 q 85 243 85 167 q 141 416 85 354 q 326 525 197 478 q 453 583 408 554 q 519 651 499 613 q 539 750 539 690 q 489 881 539 832 q 351 931 439 931 q 234 909 285 931 q 132 842 183 888 l 113 864 q 222 936 168 913 q 351 960 276 960 z "},"Ʈ":{"ha":596,"x_min":21,"x_max":581,"o":"m 314 -132 q 340 -217 314 -190 q 407 -244 365 -244 q 460 -235 438 -244 q 503 -210 482 -226 l 518 -232 q 406 -274 471 -274 q 317 -237 350 -274 q 283 -132 283 -201 l 283 0 l 282 0 l 282 917 l 21 917 l 21 946 l 581 946 l 575 917 l 314 917 l 314 -132 z "},"U":{"ha":799,"x_min":139,"x_max":660,"o":"m 660 261 q 595 62 660 138 q 400 -14 531 -14 q 203 62 268 -14 q 139 261 139 138 l 139 946 l 171 946 l 171 264 q 226 83 171 150 q 400 17 282 17 q 572 84 517 17 q 628 264 628 151 l 628 946 l 660 946 l 660 261 z "},"Ú":{"ha":799,"x_min":139,"x_max":660,"o":"m 660 261 q 595 62 660 138 q 400 -14 531 -14 q 203 62 268 -14 q 139 261 139 138 l 139 946 l 171 946 l 171 264 q 226 83 171 150 q 400 17 282 17 q 572 84 517 17 q 628 264 628 151 l 628 946 l 660 946 l 660 261 m 500 1193 l 515 1163 l 292 1061 l 282 1082 l 500 1193 z "},"Ʉ":{"ha":832,"x_min":81,"x_max":751,"o":"m 751 722 l 676 722 l 676 261 q 612 62 676 138 q 417 -14 547 -14 q 220 62 285 -14 q 156 261 156 138 l 156 722 l 81 722 l 81 747 l 156 747 l 156 946 l 188 946 l 188 747 l 644 747 l 644 946 l 676 946 l 676 747 l 751 747 l 751 722 m 644 722 l 188 722 l 188 264 q 243 83 188 150 q 417 17 299 17 q 589 84 533 17 q 644 264 644 151 l 644 722 z "},"Ŭ":{"ha":799,"x_min":139,"x_max":660,"o":"m 660 261 q 595 62 660 138 q 400 -14 531 -14 q 203 62 268 -14 q 139 261 139 138 l 139 946 l 171 946 l 171 264 q 226 83 171 150 q 400 17 282 17 q 572 84 517 17 q 628 264 628 151 l 628 946 l 660 946 l 660 261 m 400 1071 q 308 1101 346 1071 q 263 1176 271 1131 l 285 1182 q 327 1122 297 1144 q 400 1100 357 1100 q 472 1122 442 1100 q 515 1182 503 1144 l 536 1176 q 491 1101 528 1131 q 400 1071 454 1071 z "},"Ǔ":{"ha":799,"x_min":139,"x_max":660,"o":"m 660 261 q 595 62 660 138 q 400 -14 531 -14 q 203 62 268 -14 q 139 261 139 138 l 139 946 l 171 946 l 171 264 q 226 83 171 150 q 400 17 282 17 q 572 84 517 17 q 628 264 628 151 l 628 946 l 660 946 l 660 261 m 543 1199 l 558 1182 l 407 1056 l 390 1056 l 240 1182 l 254 1199 l 399 1088 l 543 1199 z "},"Û":{"ha":799,"x_min":139,"x_max":660,"o":"m 660 261 q 595 62 660 138 q 400 -14 531 -14 q 203 62 268 -14 q 139 261 139 138 l 139 946 l 171 946 l 171 264 q 226 83 171 150 q 400 17 282 17 q 572 84 517 17 q 628 264 628 151 l 628 946 l 660 946 l 660 261 m 256 1065 l 240 1082 l 390 1207 l 407 1207 l 558 1082 l 543 1065 l 399 1175 l 256 1065 z "},"Ȕ":{"ha":799,"x_min":139,"x_max":660,"o":"m 660 261 q 595 62 660 138 q 400 -14 531 -14 q 203 62 268 -14 q 139 261 139 138 l 139 946 l 171 946 l 171 264 q 226 83 171 150 q 400 17 282 17 q 572 84 517 17 q 628 264 628 151 l 628 946 l 660 946 l 660 261 m 253 1274 l 343 1092 l 321 1081 l 224 1260 l 253 1274 m 392 1272 l 474 1096 l 453 1086 l 363 1257 l 392 1272 z "},"Ü":{"ha":799,"x_min":139,"x_max":660,"o":"m 660 261 q 595 62 660 138 q 400 -14 531 -14 q 203 62 268 -14 q 139 261 139 138 l 139 946 l 171 946 l 171 264 q 226 83 171 150 q 400 17 282 17 q 572 84 517 17 q 628 264 628 151 l 628 946 l 660 946 l 660 261 m 299 1164 q 319 1156 311 1164 q 326 1136 326 1149 q 319 1117 326 1125 q 299 1110 311 1110 q 280 1117 288 1110 q 272 1136 272 1125 q 280 1156 272 1147 q 299 1164 288 1164 m 508 1164 q 528 1156 521 1164 q 536 1136 536 1147 q 528 1117 536 1125 q 508 1110 521 1110 q 488 1117 496 1110 q 481 1136 481 1125 q 488 1156 481 1147 q 508 1164 496 1164 z "},"Ǘ":{"ha":799,"x_min":139,"x_max":660,"o":"m 660 261 q 595 62 660 138 q 400 -14 531 -14 q 203 62 268 -14 q 139 261 139 138 l 139 946 l 171 946 l 171 264 q 226 83 171 150 q 400 17 282 17 q 572 84 517 17 q 628 264 628 151 l 628 946 l 660 946 l 660 261 m 496 1279 l 522 1258 l 392 1100 l 374 1114 l 496 1279 m 294 1085 q 315 1077 307 1085 q 322 1058 322 1069 q 315 1038 322 1046 q 294 1031 307 1031 q 276 1039 283 1031 q 268 1058 268 1047 q 276 1077 268 1069 q 294 1085 283 1085 m 504 1085 q 524 1077 517 1085 q 532 1058 532 1069 q 524 1039 532 1047 q 504 1031 517 1031 q 484 1039 492 1031 q 476 1058 476 1047 q 484 1077 476 1069 q 504 1085 492 1085 z "},"Ǚ":{"ha":799,"x_min":139,"x_max":660,"o":"m 660 261 q 595 62 660 138 q 400 -14 531 -14 q 203 62 268 -14 q 139 261 139 138 l 139 946 l 171 946 l 171 264 q 226 83 171 150 q 400 17 282 17 q 572 84 517 17 q 628 264 628 151 l 628 946 l 660 946 l 660 261 m 542 1242 l 557 1225 l 406 1099 l 389 1099 l 239 1225 l 253 1242 l 397 1131 l 542 1242 m 294 1085 q 315 1077 307 1085 q 322 1058 322 1069 q 315 1038 322 1046 q 294 1031 307 1031 q 276 1039 283 1031 q 268 1058 268 1047 q 276 1077 268 1069 q 294 1085 283 1085 m 504 1085 q 524 1077 517 1085 q 531 1058 531 1069 q 524 1038 531 1046 q 504 1031 517 1031 q 484 1039 492 1031 q 476 1058 476 1047 q 484 1077 476 1069 q 504 1085 492 1085 z "},"Ǜ":{"ha":799,"x_min":139,"x_max":660,"o":"m 660 261 q 595 62 660 138 q 400 -14 531 -14 q 203 62 268 -14 q 139 261 139 138 l 139 946 l 171 946 l 171 264 q 226 83 171 150 q 400 17 282 17 q 572 84 517 17 q 628 264 628 151 l 628 946 l 660 946 l 660 261 m 311 1279 l 435 1114 l 417 1100 l 286 1258 l 311 1279 m 294 1085 q 315 1077 307 1085 q 322 1058 322 1069 q 315 1038 322 1046 q 294 1031 307 1031 q 276 1039 283 1031 q 268 1058 268 1047 q 276 1077 268 1069 q 294 1085 283 1085 m 504 1085 q 524 1077 517 1085 q 532 1058 532 1069 q 524 1039 532 1047 q 504 1031 517 1031 q 484 1039 492 1031 q 476 1058 476 1047 q 484 1077 476 1069 q 504 1085 492 1085 z "},"Ǖ":{"ha":799,"x_min":139,"x_max":660,"o":"m 660 261 q 595 62 660 138 q 400 -14 531 -14 q 203 62 268 -14 q 139 261 139 138 l 139 946 l 171 946 l 171 264 q 226 83 171 150 q 400 17 282 17 q 572 84 517 17 q 628 264 628 151 l 628 946 l 660 946 l 660 261 m 294 1085 q 315 1077 307 1085 q 322 1057 322 1069 q 315 1038 322 1046 q 294 1031 307 1031 q 276 1038 283 1031 q 268 1057 268 1046 q 276 1076 268 1068 q 294 1085 283 1085 m 504 1085 q 524 1076 517 1085 q 532 1057 532 1068 q 524 1038 532 1046 q 504 1031 517 1031 q 484 1038 492 1031 q 476 1057 476 1046 q 484 1076 476 1068 q 504 1085 492 1085 m 532 1181 l 269 1181 l 269 1210 l 532 1210 l 532 1181 z "},"Ụ":{"ha":799,"x_min":139,"x_max":660,"o":"m 660 261 q 595 62 660 138 q 400 -14 531 -14 q 203 62 268 -14 q 139 261 139 138 l 139 946 l 171 946 l 171 264 q 226 83 171 150 q 400 17 282 17 q 572 84 517 17 q 628 264 628 151 l 628 946 l 660 946 l 660 261 m 400 -192 q 380 -183 388 -192 q 372 -164 372 -175 q 380 -145 372 -153 q 400 -137 388 -137 q 420 -145 413 -137 q 428 -164 428 -153 q 420 -183 428 -175 q 400 -192 413 -192 z "},"Ù":{"ha":799,"x_min":139,"x_max":660,"o":"m 660 261 q 595 62 660 138 q 400 -14 531 -14 q 203 62 268 -14 q 139 261 139 138 l 139 946 l 171 946 l 171 264 q 226 83 171 150 q 400 17 282 17 q 572 84 517 17 q 628 264 628 151 l 628 946 l 660 946 l 660 261 m 301 1193 l 518 1081 l 508 1060 l 285 1163 l 301 1193 z "},"Ủ":{"ha":799,"x_min":139,"x_max":660,"o":"m 660 261 q 595 62 660 138 q 400 -14 531 -14 q 203 62 268 -14 q 139 261 139 138 l 139 946 l 171 946 l 171 264 q 226 83 171 150 q 400 17 282 17 q 572 84 517 17 q 628 264 628 151 l 628 946 l 660 946 l 660 261 m 386 1165 q 469 1238 469 1168 q 452 1285 469 1268 q 404 1301 435 1301 q 335 1282 367 1301 l 322 1304 q 407 1329 361 1329 q 476 1304 450 1329 q 501 1238 501 1279 q 415 1146 501 1156 l 415 1086 l 386 1086 l 386 1165 z "},"Ư":{"ha":799,"x_min":139,"x_max":760,"o":"m 760 953 q 735 876 760 901 q 660 846 710 850 l 660 261 q 595 62 660 138 q 400 -14 531 -14 q 203 62 268 -14 q 139 261 139 138 l 139 946 l 171 946 l 171 264 q 226 83 171 150 q 400 17 282 17 q 572 84 517 17 q 628 264 628 151 l 628 946 l 660 946 l 660 868 q 715 894 699 875 q 732 953 732 914 q 714 1053 732 999 l 738 1063 q 760 953 760 1007 z "},"Ứ":{"ha":799,"x_min":139,"x_max":760,"o":"m 515 1163 l 292 1061 l 282 1082 l 500 1193 l 515 1163 m 760 953 q 735 876 760 901 q 660 846 710 850 l 660 261 q 595 62 660 138 q 400 -14 531 -14 q 203 62 268 -14 q 139 261 139 138 l 139 946 l 171 946 l 171 264 q 226 83 171 150 q 400 17 282 17 q 572 84 517 17 q 628 264 628 151 l 628 946 l 660 946 l 660 868 q 715 894 699 875 q 732 953 732 914 q 714 1053 732 999 l 738 1063 q 760 953 760 1007 z "},"Ự":{"ha":799,"x_min":139,"x_max":760,"o":"m 760 953 q 735 876 760 901 q 660 846 710 850 l 660 261 q 595 62 660 138 q 400 -14 531 -14 q 203 62 268 -14 q 139 261 139 138 l 139 946 l 171 946 l 171 264 q 226 83 171 150 q 400 17 282 17 q 572 84 517 17 q 628 264 628 151 l 628 946 l 660 946 l 660 868 q 715 894 699 875 q 732 953 732 914 q 714 1053 732 999 l 738 1063 q 760 953 760 1007 m 400 -137 q 420 -145 413 -137 q 428 -164 428 -153 q 420 -183 428 -175 q 400 -192 413 -192 q 380 -183 388 -192 q 372 -164 372 -175 q 380 -145 372 -153 q 400 -137 388 -137 z "},"Ừ":{"ha":799,"x_min":139,"x_max":760,"o":"m 518 1081 l 508 1060 l 285 1163 l 301 1193 l 518 1081 m 760 953 q 735 876 760 901 q 660 846 710 850 l 660 261 q 595 62 660 138 q 400 -14 531 -14 q 203 62 268 -14 q 139 261 139 138 l 139 946 l 171 946 l 171 264 q 226 83 171 150 q 400 17 282 17 q 572 84 517 17 q 628 264 628 151 l 628 946 l 660 946 l 660 868 q 715 894 699 875 q 732 953 732 914 q 714 1053 732 999 l 738 1063 q 760 953 760 1007 z "},"Ử":{"ha":799,"x_min":139,"x_max":760,"o":"m 404 1301 q 335 1282 367 1301 l 322 1304 q 407 1329 361 1329 q 476 1304 450 1329 q 501 1238 501 1279 q 415 1146 501 1156 l 415 1086 l 386 1086 l 386 1165 q 469 1238 469 1168 q 452 1285 469 1268 q 404 1301 435 1301 m 760 953 q 735 876 760 901 q 660 846 710 850 l 660 261 q 595 62 660 138 q 400 -14 531 -14 q 203 62 268 -14 q 139 261 139 138 l 139 946 l 171 946 l 171 264 q 226 83 171 150 q 400 17 282 17 q 572 84 517 17 q 628 264 628 151 l 628 946 l 660 946 l 660 868 q 715 894 699 875 q 732 953 732 914 q 714 1053 732 999 l 738 1063 q 760 953 760 1007 z "},"Ữ":{"ha":799,"x_min":139,"x_max":760,"o":"m 326 1178 q 289 1167 306 1178 q 253 1129 272 1156 l 233 1140 q 278 1188 256 1172 q 326 1204 300 1204 q 358 1197 343 1204 q 400 1175 374 1190 q 440 1152 422 1160 q 474 1144 457 1144 q 511 1157 494 1144 q 547 1200 528 1169 l 567 1190 q 524 1134 546 1151 q 474 1117 501 1117 q 435 1125 453 1117 q 389 1150 417 1133 q 354 1171 368 1164 q 326 1178 340 1178 m 760 953 q 735 876 760 901 q 660 846 710 850 l 660 261 q 595 62 660 138 q 400 -14 531 -14 q 203 62 268 -14 q 139 261 139 138 l 139 946 l 171 946 l 171 264 q 226 83 171 150 q 400 17 282 17 q 572 84 517 17 q 628 264 628 151 l 628 946 l 660 946 l 660 868 q 715 894 699 875 q 732 953 732 914 q 714 1053 732 999 l 738 1063 q 760 953 760 1007 z "},"Ű":{"ha":799,"x_min":139,"x_max":660,"o":"m 660 261 q 595 62 660 138 q 400 -14 531 -14 q 203 62 268 -14 q 139 261 139 138 l 139 946 l 171 946 l 171 264 q 226 83 171 150 q 400 17 282 17 q 572 84 517 17 q 628 264 628 151 l 628 946 l 660 946 l 660 261 m 533 1274 l 563 1260 l 465 1081 l 443 1092 l 533 1274 m 394 1272 l 424 1257 l 333 1086 l 313 1096 l 394 1272 z "},"Ȗ":{"ha":799,"x_min":139,"x_max":660,"o":"m 660 261 q 595 62 660 138 q 400 -14 531 -14 q 203 62 268 -14 q 139 261 139 138 l 139 946 l 171 946 l 171 264 q 226 83 171 150 q 400 17 282 17 q 572 84 517 17 q 628 264 628 151 l 628 946 l 660 946 l 660 261 m 400 1232 q 491 1199 454 1232 q 536 1113 528 1167 l 514 1107 q 474 1178 503 1154 q 400 1203 444 1203 q 285 1107 307 1203 l 263 1113 q 308 1199 271 1167 q 400 1232 344 1232 z "},"Ū":{"ha":799,"x_min":139,"x_max":660,"o":"m 660 261 q 595 62 660 138 q 400 -14 531 -14 q 203 62 268 -14 q 139 261 139 138 l 139 946 l 171 946 l 171 264 q 226 83 171 150 q 400 17 282 17 q 572 84 517 17 q 628 264 628 151 l 628 946 l 660 946 l 660 261 m 532 1126 l 269 1126 l 269 1156 l 532 1156 l 532 1126 z "},"Ų":{"ha":799,"x_min":139,"x_max":660,"o":"m 660 946 l 660 261 q 617 91 660 161 q 486 -3 574 21 q 374 -76 411 -39 q 336 -168 336 -114 q 360 -229 336 -207 q 426 -251 383 -251 q 493 -242 456 -251 l 490 -272 q 422 -282 453 -282 q 335 -251 365 -282 q 304 -168 304 -219 q 335 -82 304 -119 q 426 -12 367 -44 q 400 -14 418 -14 q 203 62 268 -14 q 139 261 139 138 l 139 946 l 171 946 l 171 264 q 226 83 171 150 q 400 17 282 17 q 572 84 517 17 q 628 264 628 151 l 628 946 l 660 946 z "},"Ʊ":{"ha":861,"x_min":97,"x_max":765,"o":"m 431 -14 q 254 39 329 -14 q 138 193 179 92 q 97 436 97 294 q 282 917 97 764 l 126 917 l 126 946 l 329 946 l 329 918 q 184 739 239 856 q 129 436 129 622 q 210 124 129 233 q 431 15 292 15 q 651 124 569 15 q 732 438 732 233 q 677 740 732 624 q 533 918 622 856 l 533 946 l 736 946 l 736 917 l 581 917 q 715 737 664 850 q 765 438 765 624 q 724 193 765 294 q 607 39 682 92 q 431 -14 532 -14 z "},"Ů":{"ha":799,"x_min":139,"x_max":660,"o":"m 660 261 q 595 62 660 138 q 400 -14 531 -14 q 203 62 268 -14 q 139 261 139 138 l 139 946 l 171 946 l 171 264 q 226 83 171 150 q 400 17 282 17 q 572 84 517 17 q 628 264 628 151 l 628 946 l 660 946 l 660 261 m 400 1288 q 474 1258 446 1288 q 501 1179 501 1229 q 474 1099 501 1128 q 400 1069 446 1069 q 327 1099 354 1069 q 300 1178 300 1128 q 327 1258 300 1229 q 400 1288 354 1288 m 400 1263 q 347 1241 365 1263 q 328 1178 328 1219 q 347 1115 328 1136 q 400 1094 365 1094 q 455 1116 436 1094 q 474 1179 474 1138 q 400 1263 474 1263 z "},"Ũ":{"ha":799,"x_min":139,"x_max":660,"o":"m 660 261 q 595 62 660 138 q 400 -14 531 -14 q 203 62 268 -14 q 139 261 139 138 l 139 946 l 171 946 l 171 264 q 226 83 171 150 q 400 17 282 17 q 572 84 517 17 q 628 264 628 151 l 628 946 l 660 946 l 660 261 m 474 1117 q 435 1125 453 1117 q 389 1150 417 1133 q 354 1171 368 1164 q 326 1178 340 1178 q 289 1167 306 1178 q 253 1129 272 1156 l 233 1140 q 278 1188 256 1172 q 326 1204 300 1204 q 359 1197 343 1204 q 400 1175 375 1190 q 440 1152 424 1160 q 474 1144 456 1144 q 511 1157 494 1144 q 547 1200 528 1169 l 567 1190 q 524 1134 546 1151 q 474 1117 501 1117 z "},"Ṹ":{"ha":799,"x_min":139,"x_max":660,"o":"m 660 261 q 595 62 660 138 q 400 -14 531 -14 q 203 62 268 -14 q 139 261 139 138 l 139 946 l 171 946 l 171 264 q 226 83 171 150 q 400 17 282 17 q 572 84 517 17 q 628 264 628 151 l 628 946 l 660 946 l 660 261 m 474 1051 q 435 1060 453 1051 q 389 1085 417 1068 q 354 1106 368 1099 q 326 1113 340 1113 q 289 1101 306 1113 q 253 1064 272 1090 l 233 1075 q 278 1123 256 1107 q 326 1139 300 1139 q 359 1132 343 1139 q 400 1110 375 1125 q 440 1087 424 1094 q 474 1079 456 1079 q 511 1092 494 1079 q 547 1135 528 1104 l 567 1125 q 524 1069 546 1086 q 474 1051 501 1051 m 500 1328 l 515 1297 l 292 1196 l 282 1217 l 500 1328 z "},"V":{"ha":678,"x_min":39,"x_max":639,"o":"m 639 946 l 358 0 l 319 0 l 39 946 l 71 946 l 340 31 l 607 946 l 639 946 z "},"Ʋ":{"ha":799,"x_min":139,"x_max":660,"o":"m 563 960 q 660 843 660 960 l 660 376 q 580 86 660 186 q 368 -14 500 -14 q 201 51 263 -14 q 139 228 139 117 l 139 946 l 171 946 l 171 231 q 223 73 171 129 q 368 17 275 17 q 558 108 488 17 q 628 379 628 200 l 628 843 q 561 933 628 933 q 506 918 529 933 l 493 942 q 563 960 525 960 z "},"Ʌ":{"ha":707,"x_min":39,"x_max":668,"o":"m 372 946 l 668 0 l 636 0 l 353 921 l 69 0 l 39 0 l 333 946 l 372 946 z "},"W":{"ha":996,"x_min":50,"x_max":946,"o":"m 946 946 l 747 0 l 710 0 l 497 915 l 286 0 l 249 0 l 50 946 l 82 946 l 268 33 l 478 946 l 517 946 l 729 33 l 914 946 l 946 946 z "},"Ẃ":{"ha":996,"x_min":50,"x_max":946,"o":"m 946 946 l 747 0 l 710 0 l 497 915 l 286 0 l 249 0 l 50 946 l 82 946 l 268 33 l 478 946 l 517 946 l 729 33 l 914 946 l 946 946 m 597 1193 l 613 1163 l 389 1061 l 379 1082 l 597 1193 z "},"Ŵ":{"ha":996,"x_min":50,"x_max":946,"o":"m 946 946 l 747 0 l 710 0 l 497 915 l 286 0 l 249 0 l 50 946 l 82 946 l 268 33 l 478 946 l 517 946 l 729 33 l 914 946 l 946 946 m 353 1065 l 338 1082 l 488 1207 l 504 1207 l 656 1082 l 640 1065 l 496 1175 l 353 1065 z "},"Ẅ":{"ha":996,"x_min":50,"x_max":946,"o":"m 946 946 l 747 0 l 710 0 l 497 915 l 286 0 l 249 0 l 50 946 l 82 946 l 268 33 l 478 946 l 517 946 l 729 33 l 914 946 l 946 946 m 396 1164 q 416 1156 408 1164 q 424 1136 424 1149 q 416 1117 424 1125 q 396 1110 408 1110 q 377 1117 385 1110 q 369 1136 369 1125 q 377 1156 369 1147 q 396 1164 385 1164 m 606 1164 q 626 1156 618 1164 q 633 1136 633 1147 q 626 1117 633 1125 q 606 1110 618 1110 q 585 1117 593 1110 q 578 1136 578 1125 q 585 1156 578 1147 q 606 1164 593 1164 z "},"Ẁ":{"ha":996,"x_min":50,"x_max":946,"o":"m 946 946 l 747 0 l 710 0 l 497 915 l 286 0 l 249 0 l 50 946 l 82 946 l 268 33 l 478 946 l 517 946 l 729 33 l 914 946 l 946 946 m 399 1193 l 615 1081 l 606 1060 l 382 1163 l 399 1193 z "},"Ⱳ":{"ha":1032,"x_min":50,"x_max":1111,"o":"m 249 0 l 286 0 l 497 915 l 710 0 l 747 0 l 918 840 q 951 913 929 892 q 1008 933 972 933 q 1054 924 1036 933 q 1094 892 1072 914 l 1111 910 q 1065 947 1089 933 q 1008 960 1040 960 q 892 851 914 960 l 729 33 l 517 946 l 478 946 l 268 32 l 82 946 l 50 946 l 249 0 z "},"Ƿ":{"ha":696,"x_min":153,"x_max":628,"o":"m 407 960 q 567 894 507 960 q 628 717 628 829 q 549 499 628 578 q 321 364 469 421 l 185 311 l 185 0 l 153 0 l 153 946 l 185 946 l 185 858 q 285 933 232 906 q 407 960 338 960 m 324 394 q 526 517 456 444 q 596 717 596 589 q 544 874 596 818 q 407 931 493 931 q 284 903 336 931 q 185 826 232 875 l 185 340 l 324 394 z "},"X":{"ha":608,"x_min":19,"x_max":589,"o":"m 321 514 l 589 0 l 556 0 l 301 493 l 53 0 l 19 0 l 282 513 l 50 946 l 85 946 l 301 533 l 517 946 l 550 946 l 321 514 z "},"Y":{"ha":619,"x_min":26,"x_max":593,"o":"m 593 946 l 328 376 l 328 0 l 296 0 l 296 375 l 26 946 l 60 946 l 313 406 l 560 946 l 593 946 z "},"Ý":{"ha":619,"x_min":26,"x_max":593,"o":"m 593 946 l 328 376 l 328 0 l 296 0 l 296 375 l 26 946 l 60 946 l 313 406 l 560 946 l 593 946 m 410 1193 l 425 1163 l 201 1061 l 192 1082 l 410 1193 z "},"Ŷ":{"ha":619,"x_min":26,"x_max":593,"o":"m 593 946 l 328 376 l 328 0 l 296 0 l 296 375 l 26 946 l 60 946 l 313 406 l 560 946 l 593 946 m 165 1065 l 150 1082 l 300 1207 l 317 1207 l 468 1082 l 453 1065 l 308 1175 l 165 1065 z "},"Ÿ":{"ha":619,"x_min":26,"x_max":593,"o":"m 593 946 l 328 376 l 328 0 l 296 0 l 296 375 l 26 946 l 60 946 l 313 406 l 560 946 l 593 946 m 208 1164 q 228 1156 221 1164 q 236 1136 236 1149 q 228 1117 236 1125 q 208 1110 221 1110 q 190 1117 197 1110 q 182 1136 182 1125 q 190 1156 182 1147 q 208 1164 197 1164 m 418 1164 q 438 1156 431 1164 q 446 1136 446 1147 q 438 1117 446 1125 q 418 1110 431 1110 q 398 1117 406 1110 q 390 1136 390 1125 q 398 1156 390 1147 q 418 1164 406 1164 z "},"Ỵ":{"ha":619,"x_min":26,"x_max":593,"o":"m 593 946 l 328 376 l 328 0 l 296 0 l 296 375 l 26 946 l 60 946 l 313 406 l 560 946 l 593 946 m 313 -192 q 292 -183 300 -192 q 285 -164 285 -175 q 292 -145 285 -153 q 313 -137 300 -137 q 333 -145 325 -137 q 340 -164 340 -153 q 333 -183 340 -175 q 313 -192 325 -192 z "},"Ỳ":{"ha":619,"x_min":26,"x_max":593,"o":"m 593 946 l 328 376 l 328 0 l 296 0 l 296 375 l 26 946 l 60 946 l 313 406 l 560 946 l 593 946 m 211 1193 l 428 1081 l 418 1060 l 194 1163 l 211 1193 z "},"Ƴ":{"ha":644,"x_min":26,"x_max":724,"o":"m 296 375 l 26 946 l 60 946 l 313 404 l 501 860 q 551 935 524 911 q 621 960 578 960 q 677 947 653 960 q 724 910 701 933 l 707 892 q 667 924 685 914 q 621 933 649 933 q 567 915 588 933 q 526 846 547 896 l 328 375 l 328 0 l 296 0 l 296 375 z "},"Ỷ":{"ha":619,"x_min":26,"x_max":593,"o":"m 593 946 l 328 376 l 328 0 l 296 0 l 296 375 l 26 946 l 60 946 l 313 406 l 560 946 l 593 946 m 296 1165 q 379 1238 379 1168 q 362 1285 379 1268 q 314 1301 344 1301 q 244 1282 276 1301 l 232 1304 q 317 1329 271 1329 q 385 1304 360 1329 q 411 1238 411 1279 q 325 1146 411 1156 l 325 1086 l 296 1086 l 296 1165 z "},"Ȳ":{"ha":619,"x_min":26,"x_max":593,"o":"m 593 946 l 328 376 l 328 0 l 296 0 l 296 375 l 26 946 l 60 946 l 313 406 l 560 946 l 593 946 m 442 1126 l 179 1126 l 179 1156 l 442 1156 l 442 1126 z "},"Ʀ":{"ha":717,"x_min":153,"x_max":663,"o":"m 626 -183 l 390 268 l 364 267 l 185 267 l 185 0 l 153 0 l 153 946 l 185 946 l 185 763 l 328 763 q 552 699 482 763 q 622 515 622 636 q 569 351 622 411 q 424 274 517 290 l 663 -183 l 626 -183 m 344 296 q 526 350 461 296 q 590 515 590 404 q 529 679 590 624 q 324 733 468 735 l 185 732 l 185 296 l 344 296 z "},"Ɏ":{"ha":621,"x_min":26,"x_max":594,"o":"m 594 811 l 594 788 l 519 788 l 328 376 l 328 0 l 296 0 l 296 375 l 101 788 l 26 788 l 26 811 l 90 811 l 26 946 l 60 946 l 122 811 l 499 811 l 560 946 l 593 946 l 531 811 l 594 811 m 313 404 l 488 788 l 133 788 l 313 404 z "},"Ỹ":{"ha":619,"x_min":26,"x_max":593,"o":"m 593 946 l 328 376 l 328 0 l 296 0 l 296 375 l 26 946 l 60 946 l 313 406 l 560 946 l 593 946 m 383 1117 q 344 1125 363 1117 q 299 1150 326 1133 q 264 1171 278 1164 q 236 1178 250 1178 q 199 1167 215 1178 q 163 1129 182 1156 l 143 1140 q 188 1188 165 1172 q 236 1204 210 1204 q 269 1197 253 1204 q 310 1175 285 1190 q 349 1152 333 1160 q 383 1144 365 1144 q 421 1157 404 1144 q 457 1200 438 1169 l 476 1190 q 433 1134 456 1151 q 383 1117 411 1117 z "},"Z":{"ha":638,"x_min":51,"x_max":575,"o":"m 575 946 l 575 919 l 86 31 l 558 31 l 554 0 l 51 0 l 51 29 l 540 917 l 99 917 l 99 946 l 575 946 z "},"Ź":{"ha":638,"x_min":51,"x_max":575,"o":"m 575 946 l 575 919 l 86 31 l 558 31 l 554 0 l 51 0 l 51 29 l 540 917 l 99 917 l 99 946 l 575 946 m 419 1193 l 435 1163 l 211 1061 l 201 1082 l 419 1193 z "},"Ž":{"ha":638,"x_min":51,"x_max":575,"o":"m 575 946 l 575 919 l 86 31 l 558 31 l 554 0 l 51 0 l 51 29 l 540 917 l 99 917 l 99 946 l 575 946 m 463 1199 l 478 1182 l 326 1056 l 310 1056 l 160 1182 l 174 1199 l 318 1088 l 463 1199 z "},"Ż":{"ha":638,"x_min":51,"x_max":575,"o":"m 575 946 l 575 919 l 86 31 l 558 31 l 554 0 l 51 0 l 51 29 l 540 917 l 99 917 l 99 946 l 575 946 m 321 1181 q 341 1172 333 1181 q 349 1153 349 1164 q 341 1134 349 1142 q 321 1126 333 1126 q 301 1134 308 1126 q 293 1153 293 1142 q 301 1172 293 1164 q 321 1181 308 1181 z "},"Ẓ":{"ha":638,"x_min":51,"x_max":575,"o":"m 575 946 l 575 919 l 86 31 l 558 31 l 554 0 l 51 0 l 51 29 l 540 917 l 99 917 l 99 946 l 575 946 m 322 -192 q 302 -183 310 -192 q 294 -164 294 -175 q 302 -145 294 -153 q 322 -137 310 -137 q 342 -145 335 -137 q 350 -164 350 -153 q 342 -183 350 -175 q 322 -192 335 -192 z "},"Ȥ":{"ha":638,"x_min":51,"x_max":575,"o":"m 575 919 l 86 31 l 557 31 l 557 -132 q 523 -237 557 -201 q 433 -274 489 -274 q 321 -232 371 -274 l 336 -210 q 380 -235 357 -226 q 433 -244 403 -244 q 500 -217 475 -244 q 525 -132 525 -190 l 525 0 l 51 0 l 51 29 l 540 917 l 99 917 l 99 946 l 575 946 l 575 919 z "},"Ƶ":{"ha":638,"x_min":51,"x_max":575,"o":"m 575 946 l 575 919 l 339 490 l 485 490 l 485 461 l 324 461 l 86 31 l 558 31 l 554 0 l 51 0 l 51 29 l 289 461 l 149 461 l 149 490 l 306 490 l 540 917 l 99 917 l 99 946 l 575 946 z "},"ʙ":{"ha":671,"x_min":146,"x_max":581,"o":"m 414 390 q 537 340 493 386 q 581 211 581 294 q 513 54 581 108 q 331 0 444 0 l 146 0 l 146 715 q 331 735 251 735 q 489 684 435 735 q 543 551 543 633 q 509 442 543 483 q 414 390 475 401 m 331 708 q 176 692 265 708 l 176 403 l 363 403 q 473 442 433 403 q 513 551 513 482 q 467 665 513 622 q 331 708 422 708 m 329 28 q 490 72 429 28 q 550 211 550 117 q 369 375 550 375 l 176 375 l 176 28 l 329 28 z "},"ɢ":{"ha":686,"x_min":90,"x_max":568,"o":"m 368 738 q 466 721 422 738 q 551 669 510 704 l 532 647 q 454 694 493 679 q 367 710 415 710 q 246 674 301 710 q 156 562 190 639 q 122 367 122 485 q 372 18 122 18 q 538 63 463 18 l 538 350 l 382 350 l 379 378 l 568 378 l 568 46 q 476 3 526 18 q 372 -11 425 -11 q 166 81 242 -11 q 90 367 90 174 q 128 574 90 490 q 230 697 167 657 q 368 738 293 738 z "},"ʛ":{"ha":686,"x_min":90,"x_max":757,"o":"m 646 1024 q 757 981 706 1024 l 740 961 q 646 996 696 996 q 577 967 603 996 q 551 876 551 939 l 551 669 l 533 651 q 453 695 493 681 q 367 710 414 710 q 246 674 301 710 q 156 562 190 639 q 122 367 122 485 q 372 18 122 18 q 538 63 465 18 l 538 350 l 382 350 l 379 378 l 568 378 l 568 46 q 476 3 526 18 q 372 -11 425 -11 q 166 81 242 -11 q 90 367 90 174 q 128 574 90 490 q 230 697 167 657 q 368 738 293 738 q 450 726 414 738 q 521 690 486 715 l 521 876 q 554 985 521 947 q 646 1024 588 1024 z "},"ʜ":{"ha":729,"x_min":146,"x_max":582,"o":"m 551 0 l 551 364 l 176 364 l 176 0 l 146 0 l 146 721 l 176 721 l 176 392 l 551 392 l 551 721 l 582 721 l 582 0 l 551 0 z "},"ɪ":{"ha":389,"x_min":42,"x_max":347,"o":"m 347 693 l 210 693 l 210 29 l 347 29 l 347 0 l 42 0 l 42 29 l 179 29 l 179 693 l 42 693 l 42 721 l 347 721 l 347 693 z "},"ʟ":{"ha":501,"x_min":146,"x_max":485,"o":"m 176 721 l 176 29 l 485 29 l 479 0 l 146 0 l 146 721 l 176 721 z "},"ɴ":{"ha":729,"x_min":146,"x_max":583,"o":"m 583 0 l 543 0 l 174 690 q 176 467 176 596 l 176 0 l 146 0 l 146 721 l 186 721 l 557 31 q 554 249 554 128 l 554 721 l 583 721 l 583 0 z "},"ɶ":{"ha":894,"x_min":90,"x_max":833,"o":"m 833 0 l 426 0 q 349 -14 388 -14 q 159 83 228 -14 q 90 360 90 179 q 160 639 90 543 q 351 735 231 735 q 431 721 392 735 l 826 721 l 822 693 l 483 693 q 574 583 539 658 q 613 396 608 507 l 779 396 l 779 368 l 613 368 q 575 149 611 232 q 478 29 539 67 l 833 29 l 833 0 m 122 360 q 182 103 122 190 q 349 15 242 15 q 520 108 458 15 q 582 374 582 200 q 519 619 582 532 q 351 707 456 707 q 183 620 244 707 q 122 360 122 533 z "},"ʀ":{"ha":654,"x_min":146,"x_max":567,"o":"m 532 0 l 343 326 q 318 325 335 325 l 176 325 l 176 0 l 146 0 l 146 721 l 290 721 q 540 522 540 721 q 497 394 540 443 q 374 331 453 344 l 567 0 l 532 0 m 315 353 q 457 396 406 353 q 508 522 508 439 q 458 650 508 607 q 290 693 407 693 l 176 693 l 176 353 l 315 353 z "},"ʁ":{"ha":654,"x_min":146,"x_max":567,"o":"m 375 392 q 497 329 453 378 q 540 203 540 281 q 480 52 540 104 q 290 0 419 0 l 146 0 l 146 721 l 176 721 l 176 396 l 318 396 q 343 394 335 396 l 532 721 l 567 721 l 375 392 m 290 29 q 458 73 407 29 q 508 203 508 117 q 458 327 508 286 q 315 368 408 368 l 176 368 l 176 29 l 290 29 z "},"ʏ":{"ha":500,"x_min":15,"x_max":485,"o":"m 485 721 l 267 294 l 267 0 l 236 0 l 236 293 l 15 721 l 47 721 l 253 319 l 453 721 l 485 721 z "},"a":{"ha":661,"x_min":82,"x_max":572,"o":"m 515 142 q 528 50 515 79 q 572 8 540 21 l 565 -14 q 507 31 525 0 q 488 124 489 63 q 401 20 451 54 q 279 -14 350 -14 q 135 45 188 -14 q 82 200 82 104 q 152 369 82 310 q 344 428 222 428 l 485 428 l 485 519 q 447 660 485 613 q 322 707 408 707 q 140 663 238 707 l 129 688 q 322 735 232 735 q 515 522 515 735 l 515 142 m 279 15 q 485 168 417 15 l 485 400 l 349 400 q 175 349 235 400 q 115 200 115 299 q 159 65 115 114 q 279 15 203 15 z "},"á":{"ha":661,"x_min":82,"x_max":572,"o":"m 515 142 q 528 50 515 79 q 572 8 540 21 l 565 -14 q 507 31 525 0 q 488 124 489 63 q 401 20 451 54 q 279 -14 350 -14 q 135 45 188 -14 q 82 200 82 104 q 152 369 82 310 q 344 428 222 428 l 485 428 l 485 519 q 447 660 485 613 q 322 707 408 707 q 140 663 238 707 l 129 688 q 322 735 232 735 q 515 522 515 735 l 515 142 m 279 15 q 485 168 417 15 l 485 400 l 349 400 q 175 349 235 400 q 115 200 115 299 q 159 65 115 114 q 279 15 203 15 m 413 1056 l 428 1025 l 204 908 l 193 929 l 413 1056 z "},"ă":{"ha":661,"x_min":82,"x_max":572,"o":"m 515 142 q 528 50 515 79 q 572 8 540 21 l 565 -14 q 507 31 525 0 q 488 124 489 63 q 401 20 451 54 q 279 -14 350 -14 q 135 45 188 -14 q 82 200 82 104 q 152 369 82 310 q 344 428 222 428 l 485 428 l 485 519 q 447 660 485 613 q 322 707 408 707 q 140 663 238 707 l 129 688 q 322 735 232 735 q 515 522 515 735 l 515 142 m 279 15 q 485 168 417 15 l 485 400 l 349 400 q 175 349 235 400 q 115 200 115 299 q 159 65 115 114 q 279 15 203 15 m 321 919 q 228 952 265 919 q 183 1039 192 985 l 206 1044 q 321 949 228 949 q 394 973 365 949 q 435 1044 424 997 l 457 1039 q 412 952 449 985 q 321 919 375 919 z "},"ắ":{"ha":661,"x_min":82,"x_max":572,"o":"m 515 142 q 528 50 515 79 q 572 8 540 21 l 565 -14 q 507 31 525 0 q 488 124 489 63 q 401 20 451 54 q 279 -14 350 -14 q 135 45 188 -14 q 82 200 82 104 q 152 369 82 310 q 344 428 222 428 l 485 428 l 485 519 q 447 660 485 613 q 322 707 408 707 q 140 663 238 707 l 129 688 q 322 735 232 735 q 515 522 515 735 l 515 142 m 279 15 q 485 168 417 15 l 485 400 l 349 400 q 175 349 235 400 q 115 200 115 299 q 159 65 115 114 q 279 15 203 15 m 317 826 q 225 856 263 826 q 179 932 188 886 l 201 938 q 244 878 214 900 q 317 856 274 856 q 389 878 358 856 q 432 938 419 900 l 453 932 q 408 856 444 886 q 317 826 371 826 m 421 1151 l 447 1131 l 317 972 l 299 986 l 421 1151 z "},"ặ":{"ha":661,"x_min":82,"x_max":572,"o":"m 515 142 q 528 50 515 79 q 572 8 540 21 l 565 -14 q 507 31 525 0 q 488 124 489 63 q 401 20 451 54 q 279 -14 350 -14 q 135 45 188 -14 q 82 200 82 104 q 152 369 82 310 q 344 428 222 428 l 485 428 l 485 519 q 447 660 485 613 q 322 707 408 707 q 140 663 238 707 l 129 688 q 322 735 232 735 q 515 522 515 735 l 515 142 m 279 15 q 485 168 417 15 l 485 400 l 349 400 q 175 349 235 400 q 115 200 115 299 q 159 65 115 114 q 279 15 203 15 m 321 919 q 228 952 265 919 q 183 1039 192 985 l 206 1044 q 321 949 228 949 q 394 973 365 949 q 435 1044 424 997 l 457 1039 q 412 952 449 985 q 321 919 375 919 m 318 -192 q 298 -183 306 -192 q 290 -164 290 -175 q 298 -145 290 -153 q 318 -137 306 -137 q 338 -145 331 -137 q 346 -164 346 -153 q 338 -183 346 -175 q 318 -192 331 -192 z "},"ằ":{"ha":661,"x_min":82,"x_max":572,"o":"m 515 142 q 528 50 515 79 q 572 8 540 21 l 565 -14 q 507 31 525 0 q 488 124 489 63 q 401 20 451 54 q 279 -14 350 -14 q 135 45 188 -14 q 82 200 82 104 q 152 369 82 310 q 344 428 222 428 l 485 428 l 485 519 q 447 660 485 613 q 322 707 408 707 q 140 663 238 707 l 129 688 q 322 735 232 735 q 515 522 515 735 l 515 142 m 279 15 q 485 168 417 15 l 485 400 l 349 400 q 175 349 235 400 q 115 200 115 299 q 159 65 115 114 q 279 15 203 15 m 325 826 q 233 856 271 826 q 188 932 196 886 l 210 938 q 252 878 222 900 q 325 856 282 856 q 397 878 367 856 q 440 938 428 900 l 461 932 q 416 856 453 886 q 325 826 379 826 m 228 1151 l 351 986 l 333 972 l 203 1131 l 228 1151 z "},"ẳ":{"ha":661,"x_min":82,"x_max":572,"o":"m 515 142 q 528 50 515 79 q 572 8 540 21 l 565 -14 q 507 31 525 0 q 488 124 489 63 q 401 20 451 54 q 279 -14 350 -14 q 135 45 188 -14 q 82 200 82 104 q 152 369 82 310 q 344 428 222 428 l 485 428 l 485 519 q 447 660 485 613 q 322 707 408 707 q 140 663 238 707 l 129 688 q 322 735 232 735 q 515 522 515 735 l 515 142 m 279 15 q 485 168 417 15 l 485 400 l 349 400 q 175 349 235 400 q 115 200 115 299 q 159 65 115 114 q 279 15 203 15 m 321 826 q 229 856 267 826 q 183 932 192 886 l 206 938 q 248 878 218 900 q 321 856 278 856 q 393 878 363 856 q 436 938 424 900 l 457 932 q 412 856 449 886 q 321 826 375 826 m 304 1038 q 388 1110 388 1043 q 370 1158 388 1142 q 322 1175 353 1175 q 253 1154 288 1175 l 240 1176 q 325 1203 281 1203 q 394 1178 368 1203 q 419 1111 419 1153 q 333 1018 419 1029 l 333 940 l 304 940 l 304 1038 z "},"ẵ":{"ha":661,"x_min":82,"x_max":572,"o":"m 515 142 q 528 50 515 79 q 572 8 540 21 l 565 -14 q 507 31 525 0 q 488 124 489 63 q 401 20 451 54 q 279 -14 350 -14 q 135 45 188 -14 q 82 200 82 104 q 152 369 82 310 q 344 428 222 428 l 485 428 l 485 519 q 447 660 485 613 q 322 707 408 707 q 140 663 238 707 l 129 688 q 322 735 232 735 q 515 522 515 735 l 515 142 m 279 15 q 485 168 417 15 l 485 400 l 349 400 q 175 349 235 400 q 115 200 115 299 q 159 65 115 114 q 279 15 203 15 m 324 826 q 232 856 269 826 q 186 932 194 886 l 208 938 q 251 878 221 900 q 324 856 281 856 q 396 878 365 856 q 439 938 426 900 l 460 932 q 415 856 451 886 q 324 826 378 826 m 396 1018 q 357 1026 375 1018 q 311 1051 339 1035 q 276 1072 290 1065 q 249 1079 263 1079 q 211 1068 228 1079 q 175 1031 194 1057 l 156 1042 q 200 1090 178 1074 q 249 1106 222 1106 q 281 1099 265 1106 q 322 1076 296 1092 q 362 1053 344 1061 q 396 1046 379 1046 q 433 1058 417 1046 q 469 1101 450 1071 l 489 1092 q 446 1035 468 1053 q 396 1018 424 1018 z "},"ǎ":{"ha":661,"x_min":82,"x_max":572,"o":"m 515 142 q 528 50 515 79 q 572 8 540 21 l 565 -14 q 507 31 525 0 q 488 124 489 63 q 401 20 451 54 q 279 -14 350 -14 q 135 45 188 -14 q 82 200 82 104 q 152 369 82 310 q 344 428 222 428 l 485 428 l 485 519 q 447 660 485 613 q 322 707 408 707 q 140 663 238 707 l 129 688 q 322 735 232 735 q 515 522 515 735 l 515 142 m 279 15 q 485 168 417 15 l 485 400 l 349 400 q 175 349 235 400 q 115 200 115 299 q 159 65 115 114 q 279 15 203 15 m 464 1040 l 481 1024 l 329 890 l 313 890 l 163 1024 l 178 1040 l 321 922 l 464 1040 z "},"â":{"ha":661,"x_min":82,"x_max":572,"o":"m 515 142 q 528 50 515 79 q 572 8 540 21 l 565 -14 q 507 31 525 0 q 488 124 489 63 q 401 20 451 54 q 279 -14 350 -14 q 135 45 188 -14 q 82 200 82 104 q 152 369 82 310 q 344 428 222 428 l 485 428 l 485 519 q 447 660 485 613 q 322 707 408 707 q 140 663 238 707 l 129 688 q 322 735 232 735 q 515 522 515 735 l 515 142 m 279 15 q 485 168 417 15 l 485 400 l 349 400 q 175 349 235 400 q 115 200 115 299 q 159 65 115 114 q 279 15 203 15 m 176 908 l 161 925 l 311 1058 l 329 1058 l 479 925 l 463 908 l 319 1026 l 176 908 z "},"ấ":{"ha":661,"x_min":82,"x_max":572,"o":"m 515 142 q 528 50 515 79 q 572 8 540 21 l 565 -14 q 507 31 525 0 q 488 124 489 63 q 401 20 451 54 q 279 -14 350 -14 q 135 45 188 -14 q 82 200 82 104 q 152 369 82 310 q 344 428 222 428 l 485 428 l 485 519 q 447 660 485 613 q 322 707 408 707 q 140 663 238 707 l 129 688 q 322 735 232 735 q 515 522 515 735 l 515 142 m 279 15 q 485 168 417 15 l 485 400 l 349 400 q 175 349 235 400 q 115 200 115 299 q 159 65 115 114 q 279 15 203 15 m 176 815 l 161 832 l 311 957 l 328 957 l 479 832 l 464 815 l 319 925 l 176 815 m 546 1114 l 572 1093 l 442 935 l 424 949 l 546 1114 z "},"ậ":{"ha":661,"x_min":82,"x_max":572,"o":"m 515 142 q 528 50 515 79 q 572 8 540 21 l 565 -14 q 507 31 525 0 q 488 124 489 63 q 401 20 451 54 q 279 -14 350 -14 q 135 45 188 -14 q 82 200 82 104 q 152 369 82 310 q 344 428 222 428 l 485 428 l 485 519 q 447 660 485 613 q 322 707 408 707 q 140 663 238 707 l 129 688 q 322 735 232 735 q 515 522 515 735 l 515 142 m 279 15 q 485 168 417 15 l 485 400 l 349 400 q 175 349 235 400 q 115 200 115 299 q 159 65 115 114 q 279 15 203 15 m 176 908 l 161 925 l 311 1058 l 329 1058 l 479 925 l 463 908 l 319 1026 l 176 908 m 318 -192 q 298 -183 306 -192 q 290 -164 290 -175 q 298 -145 290 -153 q 318 -137 306 -137 q 338 -145 331 -137 q 346 -164 346 -153 q 338 -183 346 -175 q 318 -192 331 -192 z "},"ầ":{"ha":661,"x_min":74,"x_max":572,"o":"m 515 142 q 528 50 515 79 q 572 8 540 21 l 565 -14 q 507 31 525 0 q 488 124 489 63 q 401 20 451 54 q 279 -14 350 -14 q 135 45 188 -14 q 82 200 82 104 q 152 369 82 310 q 344 428 222 428 l 485 428 l 485 519 q 447 660 485 613 q 322 707 408 707 q 140 663 238 707 l 129 688 q 322 735 232 735 q 515 522 515 735 l 515 142 m 279 15 q 485 168 417 15 l 485 400 l 349 400 q 175 349 235 400 q 115 200 115 299 q 159 65 115 114 q 279 15 203 15 m 176 815 l 161 832 l 311 957 l 328 957 l 479 832 l 464 815 l 319 925 l 176 815 m 99 1114 l 222 949 l 204 935 l 74 1093 l 99 1114 z "},"ẩ":{"ha":661,"x_min":82,"x_max":572,"o":"m 515 142 q 528 50 515 79 q 572 8 540 21 l 565 -14 q 507 31 525 0 q 488 124 489 63 q 401 20 451 54 q 279 -14 350 -14 q 135 45 188 -14 q 82 200 82 104 q 152 369 82 310 q 344 428 222 428 l 485 428 l 485 519 q 447 660 485 613 q 322 707 408 707 q 140 663 238 707 l 129 688 q 322 735 232 735 q 515 522 515 735 l 515 142 m 279 15 q 485 168 417 15 l 485 400 l 349 400 q 175 349 235 400 q 115 200 115 299 q 159 65 115 114 q 279 15 203 15 m 176 815 l 161 832 l 311 957 l 328 957 l 479 832 l 464 815 l 319 925 l 176 815 m 435 1019 q 518 1092 518 1025 q 501 1140 518 1124 q 453 1157 483 1157 q 383 1136 418 1157 l 371 1158 q 456 1185 411 1185 q 524 1160 499 1185 q 550 1093 550 1135 q 464 1000 550 1011 l 464 922 l 435 922 l 435 1019 z "},"ẫ":{"ha":661,"x_min":82,"x_max":572,"o":"m 515 142 q 528 50 515 79 q 572 8 540 21 l 565 -14 q 507 31 525 0 q 488 124 489 63 q 401 20 451 54 q 279 -14 350 -14 q 135 45 188 -14 q 82 200 82 104 q 152 369 82 310 q 344 428 222 428 l 485 428 l 485 519 q 447 660 485 613 q 322 707 408 707 q 140 663 238 707 l 129 688 q 322 735 232 735 q 515 522 515 735 l 515 142 m 279 15 q 485 168 417 15 l 485 400 l 349 400 q 175 349 235 400 q 115 200 115 299 q 159 65 115 114 q 279 15 203 15 m 176 803 l 161 819 l 311 944 l 328 944 l 479 819 l 464 803 l 319 913 l 176 803 m 393 1010 q 354 1018 372 1010 q 308 1043 336 1026 q 274 1064 288 1057 q 246 1071 260 1071 q 208 1060 225 1071 q 172 1022 192 1049 l 153 1033 q 197 1081 175 1065 q 246 1097 219 1097 q 278 1090 263 1097 q 319 1068 293 1083 q 359 1045 342 1053 q 393 1038 376 1038 q 431 1050 414 1038 q 467 1093 447 1063 l 486 1083 q 443 1027 465 1044 q 393 1010 421 1010 z "},"ȁ":{"ha":661,"x_min":82,"x_max":572,"o":"m 515 142 q 528 50 515 79 q 572 8 540 21 l 565 -14 q 507 31 525 0 q 488 124 489 63 q 401 20 451 54 q 279 -14 350 -14 q 135 45 188 -14 q 82 200 82 104 q 152 369 82 310 q 344 428 222 428 l 485 428 l 485 519 q 447 660 485 613 q 322 707 408 707 q 140 663 238 707 l 129 688 q 322 735 232 735 q 515 522 515 735 l 515 142 m 279 15 q 485 168 417 15 l 485 400 l 349 400 q 175 349 235 400 q 115 200 115 299 q 159 65 115 114 q 279 15 203 15 m 182 1099 l 272 917 l 250 906 l 153 1085 l 182 1099 m 321 1097 l 403 921 l 382 911 l 292 1082 l 321 1097 z "},"ä":{"ha":661,"x_min":82,"x_max":572,"o":"m 515 142 q 528 50 515 79 q 572 8 540 21 l 565 -14 q 507 31 525 0 q 488 124 489 63 q 401 20 451 54 q 279 -14 350 -14 q 135 45 188 -14 q 82 200 82 104 q 152 369 82 310 q 344 428 222 428 l 485 428 l 485 519 q 447 660 485 613 q 322 707 408 707 q 140 663 238 707 l 129 688 q 322 735 232 735 q 515 522 515 735 l 515 142 m 279 15 q 485 168 417 15 l 485 400 l 349 400 q 175 349 235 400 q 115 200 115 299 q 159 65 115 114 q 279 15 203 15 m 215 989 q 235 981 228 989 q 243 961 243 974 q 235 942 243 950 q 215 935 228 935 q 197 942 204 935 q 189 961 189 950 q 197 981 189 972 q 215 989 204 989 m 425 989 q 445 981 438 989 q 453 961 453 972 q 445 942 453 950 q 425 935 438 935 q 405 942 413 935 q 397 961 397 950 q 405 981 397 972 q 425 989 413 989 z "},"ǟ":{"ha":661,"x_min":82,"x_max":572,"o":"m 515 142 q 528 50 515 79 q 572 8 540 21 l 565 -14 q 507 31 525 0 q 488 124 489 63 q 401 20 451 54 q 279 -14 350 -14 q 135 45 188 -14 q 82 200 82 104 q 152 369 82 310 q 344 428 222 428 l 485 428 l 485 519 q 447 660 485 613 q 322 707 408 707 q 140 663 238 707 l 129 688 q 322 735 232 735 q 515 522 515 735 l 515 142 m 279 15 q 485 168 417 15 l 485 400 l 349 400 q 175 349 235 400 q 115 200 115 299 q 159 65 115 114 q 279 15 203 15 m 217 947 q 237 940 229 947 q 244 919 244 932 q 237 901 244 908 q 217 893 229 893 q 198 901 206 893 q 190 919 190 908 q 198 939 190 931 q 217 947 206 947 m 426 947 q 447 939 439 947 q 454 919 454 931 q 447 901 454 908 q 426 893 439 893 q 406 901 414 893 q 399 919 399 908 q 406 939 399 931 q 426 947 414 947 m 453 1046 l 190 1046 l 190 1075 l 453 1075 l 453 1046 z "},"ȧ":{"ha":661,"x_min":82,"x_max":572,"o":"m 515 142 q 528 50 515 79 q 572 8 540 21 l 565 -14 q 507 31 525 0 q 488 124 489 63 q 401 20 451 54 q 279 -14 350 -14 q 135 45 188 -14 q 82 200 82 104 q 152 369 82 310 q 344 428 222 428 l 485 428 l 485 519 q 447 660 485 613 q 322 707 408 707 q 140 663 238 707 l 129 688 q 322 735 232 735 q 515 522 515 735 l 515 142 m 279 15 q 485 168 417 15 l 485 400 l 349 400 q 175 349 235 400 q 115 200 115 299 q 159 65 115 114 q 279 15 203 15 m 321 1006 q 341 997 333 1006 q 349 978 349 989 q 341 959 349 967 q 321 951 333 951 q 301 959 308 951 q 293 978 293 967 q 301 997 293 989 q 321 1006 308 1006 z "},"ạ":{"ha":661,"x_min":82,"x_max":572,"o":"m 515 142 q 528 50 515 79 q 572 8 540 21 l 565 -14 q 507 31 525 0 q 488 124 489 63 q 401 20 451 54 q 279 -14 350 -14 q 135 45 188 -14 q 82 200 82 104 q 152 369 82 310 q 344 428 222 428 l 485 428 l 485 519 q 447 660 485 613 q 322 707 408 707 q 140 663 238 707 l 129 688 q 322 735 232 735 q 515 522 515 735 l 515 142 m 279 15 q 485 168 417 15 l 485 400 l 349 400 q 175 349 235 400 q 115 200 115 299 q 159 65 115 114 q 279 15 203 15 m 318 -192 q 298 -183 306 -192 q 290 -164 290 -175 q 298 -145 290 -153 q 318 -137 306 -137 q 338 -145 331 -137 q 346 -164 346 -153 q 338 -183 346 -175 q 318 -192 331 -192 z "},"ǡ":{"ha":661,"x_min":82,"x_max":572,"o":"m 515 142 q 528 50 515 79 q 572 8 540 21 l 565 -14 q 507 31 525 0 q 488 124 489 63 q 401 20 451 54 q 279 -14 350 -14 q 135 45 188 -14 q 82 200 82 104 q 152 369 82 310 q 344 428 222 428 l 485 428 l 485 519 q 447 660 485 613 q 322 707 408 707 q 140 663 238 707 l 129 688 q 322 735 232 735 q 515 522 515 735 l 515 142 m 279 15 q 485 168 417 15 l 485 400 l 349 400 q 175 349 235 400 q 115 200 115 299 q 159 65 115 114 q 279 15 203 15 m 322 932 q 342 924 335 932 q 350 904 350 915 q 342 885 350 893 q 322 878 335 878 q 302 885 310 878 q 294 904 294 893 q 302 924 294 915 q 322 932 310 932 m 453 1035 l 190 1035 l 190 1064 l 453 1064 l 453 1035 z "},"à":{"ha":661,"x_min":82,"x_max":572,"o":"m 515 142 q 528 50 515 79 q 572 8 540 21 l 565 -14 q 507 31 525 0 q 488 124 489 63 q 401 20 451 54 q 279 -14 350 -14 q 135 45 188 -14 q 82 200 82 104 q 152 369 82 310 q 344 428 222 428 l 485 428 l 485 519 q 447 660 485 613 q 322 707 408 707 q 140 663 238 707 l 129 688 q 322 735 232 735 q 515 522 515 735 l 515 142 m 279 15 q 485 168 417 15 l 485 400 l 349 400 q 175 349 235 400 q 115 200 115 299 q 159 65 115 114 q 279 15 203 15 m 222 1056 l 442 929 l 429 908 l 206 1025 l 222 1056 z "},"ả":{"ha":661,"x_min":82,"x_max":572,"o":"m 515 142 q 528 50 515 79 q 572 8 540 21 l 565 -14 q 507 31 525 0 q 488 124 489 63 q 401 20 451 54 q 279 -14 350 -14 q 135 45 188 -14 q 82 200 82 104 q 152 369 82 310 q 344 428 222 428 l 485 428 l 485 519 q 447 660 485 613 q 322 707 408 707 q 140 663 238 707 l 129 688 q 322 735 232 735 q 515 522 515 735 l 515 142 m 279 15 q 485 168 417 15 l 485 400 l 349 400 q 175 349 235 400 q 115 200 115 299 q 159 65 115 114 q 279 15 203 15 m 306 961 q 389 1033 389 967 q 372 1082 389 1065 q 324 1099 354 1099 q 254 1078 289 1099 l 242 1100 q 326 1126 282 1126 q 395 1101 369 1126 q 421 1035 421 1076 q 335 942 421 953 l 335 864 l 306 864 l 306 961 z "},"ȃ":{"ha":661,"x_min":82,"x_max":572,"o":"m 515 142 q 528 50 515 79 q 572 8 540 21 l 565 -14 q 507 31 525 0 q 488 124 489 63 q 401 20 451 54 q 279 -14 350 -14 q 135 45 188 -14 q 82 200 82 104 q 152 369 82 310 q 344 428 222 428 l 485 428 l 485 519 q 447 660 485 613 q 322 707 408 707 q 140 663 238 707 l 129 688 q 322 735 232 735 q 515 522 515 735 l 515 142 m 279 15 q 485 168 417 15 l 485 400 l 349 400 q 175 349 235 400 q 115 200 115 299 q 159 65 115 114 q 279 15 203 15 m 321 1007 q 412 974 375 1007 q 457 888 449 942 l 435 882 q 394 953 424 929 q 321 978 365 978 q 206 882 228 978 l 183 888 q 228 974 192 942 q 321 1007 265 1007 z "},"ɑ":{"ha":717,"x_min":90,"x_max":629,"o":"m 567 136 q 580 60 567 85 q 629 19 593 35 l 619 -7 q 558 40 576 11 q 536 119 539 68 q 336 -14 467 -14 q 156 81 221 -14 q 90 358 90 176 q 159 634 90 533 q 346 735 228 735 q 461 702 414 735 q 538 621 508 669 l 540 721 l 567 721 l 567 136 m 336 15 q 453 53 406 15 q 536 168 500 92 l 536 581 q 346 707 468 707 q 184 617 246 707 q 122 364 122 526 q 178 103 122 192 q 336 15 235 15 z "},"ɒ":{"ha":717,"x_min":88,"x_max":626,"o":"m 381 735 q 561 640 496 735 q 626 363 626 544 q 558 87 626 188 q 371 -14 489 -14 q 256 19 303 -14 q 179 100 208 51 l 176 0 l 150 0 l 150 585 q 137 661 150 636 q 88 701 124 686 l 97 728 q 159 681 140 710 q 181 601 178 653 q 381 735 250 735 m 371 14 q 533 104 471 14 q 594 357 594 194 q 538 617 594 529 q 381 706 482 706 q 264 667 311 706 q 181 553 217 629 l 181 140 q 371 14 249 14 z "},"ā":{"ha":661,"x_min":82,"x_max":572,"o":"m 515 142 q 528 50 515 79 q 572 8 540 21 l 565 -14 q 507 31 525 0 q 488 124 489 63 q 401 20 451 54 q 279 -14 350 -14 q 135 45 188 -14 q 82 200 82 104 q 152 369 82 310 q 344 428 222 428 l 485 428 l 485 519 q 447 660 485 613 q 322 707 408 707 q 140 663 238 707 l 129 688 q 322 735 232 735 q 515 522 515 735 l 515 142 m 279 15 q 485 168 417 15 l 485 400 l 349 400 q 175 349 235 400 q 115 200 115 299 q 159 65 115 114 q 279 15 203 15 m 453 951 l 190 951 l 190 981 l 453 981 l 453 951 z "},"ą":{"ha":661,"x_min":82,"x_max":572,"o":"m 565 -14 q 448 -90 488 -51 q 408 -185 408 -128 q 431 -244 408 -224 q 496 -265 453 -265 q 565 -256 528 -265 l 563 -286 q 494 -296 525 -296 q 407 -265 438 -296 q 376 -185 376 -235 q 418 -83 376 -126 q 540 -3 460 -40 q 501 43 513 14 q 488 124 489 72 q 401 20 451 54 q 279 -14 350 -14 q 135 45 188 -14 q 82 200 82 104 q 152 369 82 310 q 344 428 222 428 l 485 428 l 485 519 q 447 660 485 613 q 322 707 408 707 q 140 663 238 707 l 129 688 q 322 735 232 735 q 515 522 515 735 l 515 142 q 528 50 515 79 q 572 8 540 21 l 565 -14 m 279 15 q 485 168 417 15 l 485 400 l 349 400 q 175 349 235 400 q 115 200 115 299 q 159 65 115 114 q 279 15 203 15 z "},"å":{"ha":661,"x_min":82,"x_max":572,"o":"m 515 142 q 528 50 515 79 q 572 8 540 21 l 565 -14 q 507 31 525 0 q 488 124 489 63 q 401 20 451 54 q 279 -14 350 -14 q 135 45 188 -14 q 82 200 82 104 q 152 369 82 310 q 344 428 222 428 l 485 428 l 485 519 q 447 660 485 613 q 322 707 408 707 q 140 663 238 707 l 129 688 q 322 735 232 735 q 515 522 515 735 l 515 142 m 279 15 q 485 168 417 15 l 485 400 l 349 400 q 175 349 235 400 q 115 200 115 299 q 159 65 115 114 q 279 15 203 15 m 321 1113 q 394 1083 367 1113 q 422 1004 422 1054 q 394 924 422 953 q 321 894 367 894 q 248 924 275 894 q 221 1003 221 953 q 248 1083 221 1054 q 321 1113 275 1113 m 321 1088 q 267 1066 286 1088 q 249 1003 249 1044 q 267 940 249 961 q 321 919 286 919 q 376 941 357 919 q 394 1004 394 963 q 321 1088 394 1088 z "},"ǻ":{"ha":661,"x_min":82,"x_max":572,"o":"m 438 1157 l 214 1056 l 204 1076 l 422 1188 l 438 1157 m 221 925 q 248 1006 221 976 q 321 1035 275 1035 q 394 1006 367 1035 q 422 926 422 976 q 394 846 422 875 q 321 817 367 817 q 248 846 275 817 q 221 925 221 875 m 394 926 q 321 1010 394 1010 q 267 988 286 1010 q 249 925 249 967 q 267 863 249 883 q 321 842 286 842 q 376 863 357 842 q 394 926 394 885 m 515 142 q 528 50 515 79 q 572 8 540 21 l 565 -14 q 507 31 525 0 q 488 124 489 63 q 401 20 451 54 q 279 -14 350 -14 q 135 45 188 -14 q 82 200 82 104 q 152 369 82 310 q 344 428 222 428 l 485 428 l 485 519 q 447 660 485 613 q 322 707 408 707 q 140 663 238 707 l 129 688 q 322 735 232 735 q 515 522 515 735 l 515 142 m 279 15 q 485 168 417 15 l 485 400 l 349 400 q 175 349 235 400 q 115 200 115 299 q 159 65 115 114 q 279 15 203 15 z "},"ⱥ":{"ha":661,"x_min":82,"x_max":572,"o":"m 515 142 q 528 50 515 79 q 572 8 540 21 l 565 -14 q 507 31 525 0 q 488 124 489 63 q 401 20 451 54 q 279 -14 350 -14 q 251 -12 260 -14 l 232 -92 l 211 -87 l 231 -8 q 122 62 161 6 q 82 200 82 118 q 150 367 82 308 q 338 428 218 425 l 403 692 q 322 707 369 707 q 140 663 238 707 l 129 688 q 322 735 232 735 q 410 721 371 735 l 433 814 l 454 810 l 431 711 q 515 522 515 665 l 515 142 m 485 519 q 422 682 485 639 l 360 428 l 485 428 l 485 519 m 279 15 q 485 168 417 15 l 485 400 l 353 400 l 258 17 q 279 15 265 15 m 115 200 q 147 79 115 126 q 238 19 179 32 l 331 400 q 171 345 226 396 q 115 200 115 294 z "},"ã":{"ha":661,"x_min":82,"x_max":572,"o":"m 515 142 q 528 50 515 79 q 572 8 540 21 l 565 -14 q 507 31 525 0 q 488 124 489 63 q 401 20 451 54 q 279 -14 350 -14 q 135 45 188 -14 q 82 200 82 104 q 152 369 82 310 q 344 428 222 428 l 485 428 l 485 519 q 447 660 485 613 q 322 707 408 707 q 140 663 238 707 l 129 688 q 322 735 232 735 q 515 522 515 735 l 515 142 m 279 15 q 485 168 417 15 l 485 400 l 349 400 q 175 349 235 400 q 115 200 115 299 q 159 65 115 114 q 279 15 203 15 m 394 942 q 356 950 374 942 q 310 975 338 958 q 275 996 289 989 q 247 1003 261 1003 q 210 992 226 1003 q 174 954 193 981 l 154 965 q 199 1013 176 997 q 247 1029 221 1029 q 280 1022 264 1029 q 321 1000 296 1015 q 360 977 344 985 q 394 969 376 969 q 432 982 415 969 q 468 1025 449 994 l 488 1015 q 444 959 467 976 q 394 942 422 942 z "},"ɐ":{"ha":661,"x_min":89,"x_max":579,"o":"m 339 14 q 521 58 424 14 l 532 33 q 339 -14 429 -14 q 146 199 146 -14 l 146 579 q 133 671 146 642 q 89 713 121 700 l 96 735 q 154 690 136 721 q 174 597 172 658 q 260 701 210 667 q 382 735 311 735 q 526 676 474 735 q 579 521 579 617 q 509 352 579 411 q 317 293 439 293 l 176 293 l 176 201 q 215 61 176 108 q 339 14 253 14 m 382 706 q 176 553 244 706 l 176 321 l 313 321 q 486 372 426 321 q 546 521 546 422 q 502 656 546 607 q 382 706 458 706 z "},"æ":{"ha":1054,"x_min":82,"x_max":971,"o":"m 971 394 q 969 342 971 357 l 515 342 q 581 97 519 179 q 744 15 643 15 q 841 34 800 15 q 926 92 882 53 l 944 71 q 851 7 897 28 q 744 -14 804 -14 q 608 28 665 -14 q 518 153 550 71 q 407 24 463 63 q 278 -14 351 -14 q 134 44 186 -14 q 82 200 82 103 q 152 368 82 308 q 343 428 222 428 l 485 428 l 485 514 q 447 659 485 611 q 319 707 408 707 q 140 663 243 707 l 131 688 q 319 735 233 735 q 461 686 415 735 q 513 540 507 638 q 600 685 543 636 q 738 735 657 735 q 912 645 853 735 q 971 394 971 556 m 940 406 q 890 627 940 547 q 739 707 840 707 q 579 621 640 707 q 515 368 518 535 l 940 368 l 940 406 m 279 15 q 402 56 349 15 q 507 183 456 96 q 485 354 485 261 l 485 400 l 344 400 q 175 349 236 400 q 114 200 114 297 q 158 65 114 114 q 279 15 203 15 z "},"ǽ":{"ha":1054,"x_min":82,"x_max":971,"o":"m 971 394 q 969 342 971 357 l 515 342 q 581 97 519 179 q 744 15 643 15 q 841 34 800 15 q 926 92 882 53 l 944 71 q 851 7 897 28 q 744 -14 804 -14 q 608 28 665 -14 q 518 153 550 71 q 407 24 463 63 q 278 -14 351 -14 q 134 44 186 -14 q 82 200 82 103 q 152 368 82 308 q 343 428 222 428 l 485 428 l 485 514 q 447 659 485 611 q 319 707 408 707 q 140 663 243 707 l 131 688 q 319 735 233 735 q 461 686 415 735 q 513 540 507 638 q 600 685 543 636 q 738 735 657 735 q 912 645 853 735 q 971 394 971 556 m 940 406 q 890 627 940 547 q 739 707 840 707 q 579 621 640 707 q 515 368 518 535 l 940 368 l 940 406 m 279 15 q 402 56 349 15 q 507 183 456 96 q 485 354 485 261 l 485 400 l 344 400 q 175 349 236 400 q 114 200 114 297 q 158 65 114 114 q 279 15 203 15 m 621 1056 l 636 1025 l 413 908 l 401 929 l 621 1056 z "},"ǣ":{"ha":1054,"x_min":82,"x_max":971,"o":"m 971 394 q 969 342 971 357 l 515 342 q 581 97 519 179 q 744 15 643 15 q 841 34 800 15 q 926 92 882 53 l 944 71 q 851 7 897 28 q 744 -14 804 -14 q 608 28 665 -14 q 518 153 550 71 q 407 24 463 63 q 278 -14 351 -14 q 134 44 186 -14 q 82 200 82 103 q 152 368 82 308 q 343 428 222 428 l 485 428 l 485 514 q 447 659 485 611 q 319 707 408 707 q 140 663 243 707 l 131 688 q 319 735 233 735 q 461 686 415 735 q 513 540 507 638 q 600 685 543 636 q 738 735 657 735 q 912 645 853 735 q 971 394 971 556 m 940 406 q 890 627 940 547 q 739 707 840 707 q 579 621 640 707 q 515 368 518 535 l 940 368 l 940 406 m 279 15 q 402 56 349 15 q 507 183 456 96 q 485 354 485 261 l 485 400 l 344 400 q 175 349 236 400 q 114 200 114 297 q 158 65 114 114 q 279 15 203 15 m 661 951 l 399 951 l 399 981 l 661 981 l 661 951 z "},"b":{"ha":710,"x_min":146,"x_max":617,"o":"m 386 735 q 558 642 499 735 q 617 367 617 549 q 555 85 617 183 q 378 -14 493 -14 q 263 21 314 -14 q 176 111 211 56 l 174 0 l 146 0 l 146 1018 l 176 1022 l 176 604 q 386 735 261 735 m 376 15 q 532 105 479 15 q 585 367 585 194 q 385 707 585 707 q 270 672 318 707 q 176 568 222 638 l 176 149 q 376 15 258 15 z "},"ḃ":{"ha":710,"x_min":146,"x_max":617,"o":"m 386 735 q 558 642 499 735 q 617 367 617 549 q 555 85 617 183 q 378 -14 493 -14 q 263 21 314 -14 q 176 111 211 56 l 174 0 l 146 0 l 146 1018 l 176 1022 l 176 604 q 386 735 261 735 m 376 15 q 532 105 479 15 q 585 367 585 194 q 385 707 585 707 q 270 672 318 707 q 176 568 222 638 l 176 149 q 376 15 258 15 m 368 1251 q 388 1243 381 1251 q 396 1224 396 1235 q 388 1205 396 1213 q 368 1197 381 1197 q 348 1205 356 1197 q 340 1224 340 1213 q 348 1243 340 1235 q 368 1251 356 1251 z "},"ḅ":{"ha":710,"x_min":146,"x_max":617,"o":"m 386 735 q 558 642 499 735 q 617 367 617 549 q 555 85 617 183 q 378 -14 493 -14 q 263 21 314 -14 q 176 111 211 56 l 174 0 l 146 0 l 146 1018 l 176 1022 l 176 604 q 386 735 261 735 m 376 15 q 532 105 479 15 q 585 367 585 194 q 385 707 585 707 q 270 672 318 707 q 176 568 222 638 l 176 149 q 376 15 258 15 m 368 -192 q 348 -183 356 -192 q 340 -164 340 -175 q 348 -145 340 -153 q 368 -137 356 -137 q 388 -145 381 -137 q 396 -164 396 -153 q 388 -183 396 -175 q 368 -192 381 -192 z "},"ꞵ":{"ha":718,"x_min":146,"x_max":646,"o":"m 383 554 q 573 480 500 551 q 646 278 646 408 q 613 122 646 188 q 524 21 579 56 q 400 -14 468 -14 q 275 13 329 -14 q 178 99 221 40 l 178 -267 l 146 -274 l 146 751 q 208 953 146 883 q 375 1024 271 1024 q 528 963 468 1024 q 589 792 588 903 q 535 624 589 685 q 383 554 481 564 m 400 15 q 510 47 461 15 q 587 138 558 79 q 615 275 615 196 q 540 472 614 403 q 338 540 467 540 l 274 540 l 278 568 l 339 568 q 493 620 428 568 q 558 789 558 672 q 508 943 558 892 q 375 994 458 994 q 231 934 285 994 q 178 750 178 874 l 178 133 q 278 43 228 71 q 400 15 329 15 z "},"ɓ":{"ha":710,"x_min":146,"x_max":617,"o":"m 388 735 q 558 642 499 735 q 617 367 617 549 q 555 85 617 183 q 378 -14 493 -14 q 263 21 314 -14 q 176 111 211 56 l 174 0 l 146 0 l 146 728 l 147 728 l 147 860 q 190 981 147 939 q 303 1024 232 1024 q 449 981 381 1024 l 436 957 q 306 994 365 994 q 212 960 246 994 q 178 857 178 926 l 178 719 l 176 719 l 176 604 q 388 735 261 735 m 378 15 q 532 105 479 15 q 585 367 585 194 q 534 622 585 538 q 386 707 483 707 q 271 672 319 707 q 176 568 222 638 l 176 149 q 378 15 258 15 z "},"ʭ":{"ha":392,"x_min":42,"x_max":350,"o":"m 42 557 l 42 710 l 350 710 l 350 556 l 321 556 l 321 682 l 71 682 l 71 557 l 42 557 m 42 1 l 42 154 l 350 154 l 350 0 l 321 0 l 321 126 l 71 126 l 71 1 l 42 1 z "},"ʘ":{"ha":986,"x_min":97,"x_max":890,"o":"m 493 960 q 703 904 614 960 q 841 739 792 849 q 890 472 890 629 q 842 209 890 318 q 705 43 794 100 q 493 -14 615 -14 q 285 42 374 -14 q 147 207 196 99 q 97 469 97 315 q 147 734 97 624 q 285 902 196 844 q 493 960 375 960 m 493 932 q 301 879 383 932 q 173 722 218 826 q 128 469 128 618 q 173 222 128 324 q 301 67 218 119 q 493 15 383 15 q 763 133 667 15 q 860 472 860 250 q 762 815 860 697 q 493 932 664 932 m 493 499 q 513 490 506 499 q 521 471 521 482 q 513 452 521 460 q 493 444 506 444 q 473 452 481 444 q 465 471 465 460 q 473 490 465 482 q 493 499 481 499 z "},"ʬ":{"ha":572,"x_min":65,"x_max":507,"o":"m 507 917 l 414 556 l 378 556 l 288 890 l 196 556 l 160 556 l 65 917 l 94 917 l 179 578 l 271 917 l 304 917 l 396 578 l 479 917 l 507 917 m 507 361 l 414 0 l 378 0 l 288 335 l 196 0 l 160 0 l 65 361 l 94 361 l 179 22 l 271 361 l 304 361 l 396 22 l 479 361 l 507 361 z "},"ƀ":{"ha":715,"x_min":58,"x_max":622,"o":"m 392 735 q 563 642 504 735 q 622 367 622 549 q 560 85 622 183 q 383 -14 499 -14 q 268 21 319 -14 q 182 111 217 56 l 179 0 l 151 0 l 151 874 l 58 874 l 58 901 l 151 901 l 151 1018 l 182 1022 l 182 901 l 410 901 l 410 874 l 182 874 l 182 604 q 392 735 267 735 m 382 15 q 538 105 485 15 q 590 367 590 194 q 390 707 590 707 q 276 672 324 707 q 182 568 228 638 l 182 149 q 382 15 264 15 z "},"ƃ":{"ha":710,"x_min":146,"x_max":617,"o":"m 386 735 q 558 642 499 735 q 617 367 617 549 q 555 85 617 183 q 378 -14 493 -14 q 263 21 314 -14 q 176 111 211 56 l 174 0 l 146 0 l 146 1017 l 482 1017 l 475 988 l 176 988 l 176 604 q 386 735 261 735 m 376 15 q 532 105 479 15 q 585 367 585 194 q 385 707 585 707 q 270 672 318 707 q 176 568 222 638 l 176 149 q 376 15 258 15 z "},"c":{"ha":576,"x_min":90,"x_max":531,"o":"m 356 735 q 447 718 407 735 q 524 665 486 701 l 506 644 q 438 692 474 676 q 356 707 401 707 q 185 618 249 707 q 122 357 122 529 q 185 101 122 188 q 354 15 249 15 q 513 81 443 15 l 531 61 q 356 -14 453 -14 q 163 82 235 -14 q 90 357 90 178 q 162 636 90 538 q 356 735 233 735 z "},"ć":{"ha":576,"x_min":90,"x_max":531,"o":"m 356 735 q 447 718 407 735 q 524 665 486 701 l 506 644 q 438 692 474 676 q 356 707 401 707 q 185 618 249 707 q 122 357 122 529 q 185 101 122 188 q 354 15 249 15 q 513 81 443 15 l 531 61 q 356 -14 453 -14 q 163 82 235 -14 q 90 357 90 178 q 162 636 90 538 q 356 735 233 735 m 443 1056 l 458 1025 l 235 908 l 224 929 l 443 1056 z "},"č":{"ha":576,"x_min":90,"x_max":531,"o":"m 356 735 q 447 718 407 735 q 524 665 486 701 l 506 644 q 438 692 474 676 q 356 707 401 707 q 185 618 249 707 q 122 357 122 529 q 185 101 122 188 q 354 15 249 15 q 513 81 443 15 l 531 61 q 356 -14 453 -14 q 163 82 235 -14 q 90 357 90 178 q 162 636 90 538 q 356 735 233 735 m 494 1040 l 511 1024 l 360 890 l 343 890 l 193 1024 l 208 1040 l 351 922 l 494 1040 z "},"ç":{"ha":576,"x_min":90,"x_max":531,"o":"m 358 -103 q 472 -196 472 -111 q 441 -269 472 -243 q 365 -294 410 -294 q 279 -269 317 -294 l 293 -247 q 365 -268 325 -268 q 420 -250 399 -268 q 442 -196 442 -232 q 415 -143 442 -160 q 329 -125 388 -126 l 336 -14 q 157 90 224 -6 q 90 357 90 185 q 162 636 90 538 q 356 735 233 735 q 447 718 407 735 q 524 665 486 701 l 506 644 q 438 692 474 676 q 356 707 401 707 q 185 618 249 707 q 122 357 122 529 q 185 101 122 188 q 354 15 249 15 q 513 81 443 15 l 531 61 q 360 -14 456 -12 l 358 -103 z "},"ĉ":{"ha":576,"x_min":90,"x_max":531,"o":"m 356 735 q 447 718 407 735 q 524 665 486 701 l 506 644 q 438 692 474 676 q 356 707 401 707 q 185 618 249 707 q 122 357 122 529 q 185 101 122 188 q 354 15 249 15 q 513 81 443 15 l 531 61 q 356 -14 453 -14 q 163 82 235 -14 q 90 357 90 178 q 162 636 90 538 q 356 735 233 735 m 207 908 l 192 925 l 342 1058 l 360 1058 l 510 925 l 493 908 l 350 1026 l 207 908 z "},"ɕ":{"ha":593,"x_min":90,"x_max":551,"o":"m 425 281 q 518 244 485 281 q 551 149 551 207 q 501 31 551 75 q 361 -14 450 -14 q 290 -5 322 -14 q 228 24 258 4 l 186 -76 l 161 -65 l 204 39 q 120 167 150 86 q 90 357 90 247 q 162 636 90 538 q 356 735 233 735 q 447 718 407 735 q 524 665 486 701 l 506 644 q 438 692 474 676 q 356 707 401 707 q 185 618 249 707 q 122 357 122 529 q 217 67 122 157 q 312 231 263 181 q 425 281 361 281 m 363 15 q 476 49 431 15 q 521 149 521 82 q 497 225 521 197 q 425 253 472 253 q 326 208 368 253 q 239 51 285 163 q 296 24 267 33 q 363 15 325 15 z "},"ċ":{"ha":576,"x_min":90,"x_max":531,"o":"m 356 735 q 447 718 407 735 q 524 665 486 701 l 506 644 q 438 692 474 676 q 356 707 401 707 q 185 618 249 707 q 122 357 122 529 q 185 101 122 188 q 354 15 249 15 q 513 81 443 15 l 531 61 q 356 -14 453 -14 q 163 82 235 -14 q 90 357 90 178 q 162 636 90 538 q 356 735 233 735 m 351 1006 q 372 997 364 1006 q 379 978 379 989 q 372 959 379 967 q 351 951 364 951 q 331 959 339 951 q 324 978 324 967 q 331 997 324 989 q 351 1006 339 1006 z "},"ƈ":{"ha":576,"x_min":90,"x_max":728,"o":"m 617 1024 q 728 981 679 1024 l 713 961 q 669 987 692 978 q 617 996 646 996 q 549 967 574 996 q 524 876 524 939 l 524 667 l 521 668 l 524 665 l 507 647 q 436 692 472 676 q 356 707 400 707 q 185 618 249 707 q 122 357 122 529 q 185 101 122 188 q 354 15 249 15 q 513 81 443 15 l 531 61 q 356 -14 453 -14 q 163 82 235 -14 q 90 357 90 178 q 162 636 90 538 q 356 735 233 735 q 493 690 432 735 l 493 876 q 526 985 493 947 q 617 1024 560 1024 z "},"ʗ":{"ha":604,"x_min":118,"x_max":558,"o":"m 386 735 q 474 718 435 735 q 551 665 514 701 l 533 644 q 466 692 501 676 q 386 707 431 707 q 214 583 278 707 q 150 224 150 458 q 213 -130 150 -8 q 385 -251 276 -251 q 540 -186 471 -251 l 558 -206 q 385 -279 482 -279 q 190 -149 261 -279 q 118 224 118 -19 q 151 500 118 385 q 244 675 183 615 q 386 735 304 735 z "},"ȼ":{"ha":576,"x_min":90,"x_max":531,"o":"m 531 61 q 356 -14 453 -14 q 256 6 303 -14 l 232 -92 l 210 -87 l 235 17 q 128 142 167 56 q 90 357 90 228 q 162 636 90 538 q 356 735 233 735 q 413 729 389 735 l 433 814 l 454 810 l 433 724 q 524 665 479 708 l 506 644 q 426 696 471 679 l 263 35 q 354 15 306 15 q 513 81 443 15 l 531 61 m 122 357 q 154 160 122 239 q 243 46 186 82 l 406 701 q 356 707 385 707 q 185 618 249 707 q 122 357 122 529 z "},"d":{"ha":715,"x_min":93,"x_max":569,"o":"m 569 1018 l 569 0 l 542 0 l 539 122 q 335 -14 469 -14 q 158 84 224 -14 q 93 358 93 182 q 161 633 93 531 q 347 735 229 735 q 539 619 469 735 l 539 1022 l 569 1018 m 336 15 q 456 55 408 15 q 539 172 503 94 l 539 576 q 347 707 469 707 q 185 615 246 707 q 125 358 125 522 q 182 104 126 193 q 336 15 238 15 z "},"ð":{"ha":681,"x_min":90,"x_max":583,"o":"m 383 924 q 533 721 482 842 q 583 418 583 600 q 518 93 583 200 q 335 -14 453 -14 q 155 76 219 -14 q 90 319 90 165 q 118 481 90 407 q 199 597 146 554 q 326 640 253 640 q 549 506 451 640 q 495 733 539 636 q 365 904 451 831 l 261 786 l 238 796 l 346 919 q 267 967 311 946 q 179 997 222 988 l 186 1025 q 364 939 283 1000 l 447 1036 l 468 1021 l 383 924 m 335 15 q 495 117 439 15 q 551 421 551 218 q 550 467 551 456 q 328 613 450 613 q 177 529 232 613 q 122 318 122 446 q 178 96 122 176 q 335 15 235 15 z "},"ȸ":{"ha":1051,"x_min":93,"x_max":958,"o":"m 739 735 q 901 642 844 735 q 958 367 958 550 q 899 85 958 183 q 735 -14 840 -14 q 626 23 675 -14 q 544 117 576 60 l 540 0 l 518 0 l 514 119 q 435 24 483 61 q 322 -14 388 -14 q 156 83 219 -14 q 93 358 93 179 q 158 634 93 533 q 333 735 222 735 q 514 618 444 735 l 514 1018 l 544 1022 l 544 613 q 629 701 579 667 q 739 735 679 735 m 324 15 q 431 53 386 15 q 514 163 476 92 l 514 579 q 431 674 472 640 q 333 707 390 707 q 226 667 274 707 q 152 547 179 626 q 125 358 125 468 q 180 103 126 192 q 324 15 233 15 m 733 15 q 876 104 825 15 q 926 367 926 193 q 878 622 926 538 q 739 707 829 707 q 633 672 679 707 q 544 576 586 638 l 544 163 q 733 15 621 15 z "},"ď":{"ha":715,"x_min":93,"x_max":717,"o":"m 569 1018 l 569 0 l 542 0 l 539 122 q 335 -14 469 -14 q 158 84 224 -14 q 93 358 93 182 q 161 633 93 531 q 347 735 229 735 q 539 619 469 735 l 539 1022 l 569 1018 m 336 15 q 456 55 408 15 q 539 172 503 94 l 539 576 q 347 707 469 707 q 185 615 246 707 q 125 358 125 522 q 182 104 126 193 q 336 15 238 15 m 682 817 l 717 1018 l 685 1021 l 661 821 l 682 817 z "},"ḓ":{"ha":715,"x_min":93,"x_max":569,"o":"m 569 1018 l 569 0 l 542 0 l 539 122 q 335 -14 469 -14 q 158 84 224 -14 q 93 358 93 182 q 161 633 93 531 q 347 735 229 735 q 539 619 469 735 l 539 1022 l 569 1018 m 336 15 q 456 55 408 15 q 539 172 503 94 l 539 576 q 347 707 469 707 q 185 615 246 707 q 125 358 125 522 q 182 104 126 193 q 336 15 238 15 m 224 -254 l 208 -237 l 358 -104 l 376 -104 l 526 -237 l 510 -254 l 367 -136 l 224 -254 z "},"đ":{"ha":722,"x_min":93,"x_max":664,"o":"m 664 901 l 664 874 l 569 874 l 569 0 l 542 0 l 539 122 q 335 -14 469 -14 q 158 84 224 -14 q 93 358 93 182 q 161 633 93 531 q 347 735 229 735 q 539 619 469 735 l 539 874 l 324 874 l 324 901 l 539 901 l 539 1022 l 569 1018 l 569 901 l 664 901 m 336 15 q 456 55 408 15 q 539 172 503 94 l 539 576 q 347 707 469 707 q 185 615 246 707 q 125 358 125 522 q 182 104 126 193 q 336 15 238 15 z "},"ȡ":{"ha":818,"x_min":93,"x_max":860,"o":"m 747 253 q 829 219 799 253 q 860 136 860 186 q 813 28 860 69 q 696 -14 767 -14 q 572 40 615 -14 l 519 -76 l 494 -64 l 557 65 q 540 125 542 97 q 335 -14 471 -14 q 158 84 224 -14 q 93 358 93 182 q 161 633 93 531 q 347 735 229 735 q 539 619 469 735 l 539 1022 l 569 1018 l 569 147 q 575 103 569 121 q 649 215 610 176 q 747 253 689 253 m 335 15 q 456 55 408 15 q 539 172 503 94 l 539 576 q 347 707 469 707 q 185 615 246 707 q 125 358 125 522 q 182 104 126 193 q 335 15 238 15 m 696 15 q 793 48 756 15 q 831 136 831 81 q 808 201 831 176 q 746 225 785 225 q 659 189 693 225 q 588 71 625 153 q 696 15 618 15 z "},"ḋ":{"ha":715,"x_min":93,"x_max":569,"o":"m 569 1018 l 569 0 l 542 0 l 539 122 q 335 -14 469 -14 q 158 84 224 -14 q 93 358 93 182 q 161 633 93 531 q 347 735 229 735 q 539 619 469 735 l 539 1022 l 569 1018 m 336 15 q 456 55 408 15 q 539 172 503 94 l 539 576 q 347 707 469 707 q 185 615 246 707 q 125 358 125 522 q 182 104 126 193 q 336 15 238 15 m 349 1251 q 369 1243 361 1251 q 376 1224 376 1235 q 369 1205 376 1213 q 349 1197 361 1197 q 328 1205 336 1197 q 321 1224 321 1213 q 328 1243 321 1235 q 349 1251 336 1251 z "},"ḍ":{"ha":715,"x_min":93,"x_max":569,"o":"m 569 1018 l 569 0 l 542 0 l 539 122 q 335 -14 469 -14 q 158 84 224 -14 q 93 358 93 182 q 161 633 93 531 q 347 735 229 735 q 539 619 469 735 l 539 1022 l 569 1018 m 336 15 q 456 55 408 15 q 539 172 503 94 l 539 576 q 347 707 469 707 q 185 615 246 707 q 125 358 125 522 q 182 104 126 193 q 336 15 238 15 m 367 -192 q 347 -183 354 -192 q 339 -164 339 -175 q 347 -145 339 -153 q 367 -137 354 -137 q 387 -145 379 -137 q 394 -164 394 -153 q 387 -183 394 -175 q 367 -192 379 -192 z "},"ƍ":{"ha":697,"x_min":90,"x_max":607,"o":"m 392 64 q 505 -12 471 28 q 540 -115 539 -53 q 486 -237 540 -189 q 344 -286 432 -286 q 246 -271 289 -286 q 158 -224 203 -256 l 176 -203 q 255 -244 217 -232 q 343 -257 293 -257 q 464 -218 419 -257 q 508 -115 508 -179 q 493 -47 508 -75 q 441 7 478 -18 q 333 61 404 32 q 192 142 244 97 q 115 251 140 186 q 90 413 90 317 q 160 650 90 565 q 353 735 229 735 q 540 651 472 735 q 607 413 607 567 q 551 195 607 282 q 392 64 494 108 m 122 413 q 144 261 122 321 q 218 158 167 201 q 363 76 269 115 q 517 199 460 115 q 575 413 575 282 q 516 630 575 554 q 353 706 457 706 q 182 630 242 706 q 122 413 122 554 z "},"ʤ":{"ha":1075,"x_min":93,"x_max":1029,"o":"m 744 269 q 1029 3 1029 269 q 961 -197 1029 -121 q 776 -274 893 -274 q 648 -245 703 -274 q 546 -160 593 -217 l 567 -143 q 662 -220 613 -196 q 776 -244 711 -244 q 940 -177 882 -244 q 997 3 997 -110 q 935 183 997 126 q 746 240 874 240 l 681 240 l 681 269 l 960 693 l 569 693 l 569 0 l 542 0 l 539 122 q 335 -14 469 -14 q 158 84 224 -14 q 93 358 93 182 q 161 633 93 531 q 347 735 229 735 q 539 619 469 735 l 539 1022 l 569 1018 l 569 721 l 996 721 l 996 696 l 714 269 l 744 269 m 336 15 q 456 55 408 15 q 539 172 503 94 l 539 576 q 347 707 469 707 q 185 615 246 707 q 125 358 125 522 q 182 104 126 193 q 336 15 238 15 z "},"ɗ":{"ha":715,"x_min":93,"x_max":774,"o":"m 663 1024 q 774 981 725 1024 l 758 961 q 715 987 738 978 q 663 996 692 996 q 594 967 619 996 q 569 876 569 939 l 569 0 l 542 0 l 539 122 q 335 -14 469 -14 q 158 84 224 -14 q 93 358 93 182 q 160 632 93 529 q 346 735 228 735 q 539 619 469 735 l 539 876 q 572 985 539 947 q 663 1024 606 1024 m 335 15 q 456 55 408 15 q 539 172 503 94 l 539 578 q 347 707 469 707 q 185 614 246 707 q 125 358 125 521 q 182 104 126 193 q 335 15 238 15 z "},"ḏ":{"ha":715,"x_min":93,"x_max":569,"o":"m 569 1018 l 569 0 l 542 0 l 539 122 q 335 -14 469 -14 q 158 84 224 -14 q 93 358 93 182 q 161 633 93 531 q 347 735 229 735 q 539 619 469 735 l 539 1022 l 569 1018 m 336 15 q 456 55 408 15 q 539 172 503 94 l 539 576 q 347 707 469 707 q 185 615 246 707 q 125 358 125 522 q 182 104 126 193 q 336 15 238 15 m 499 -193 l 236 -193 l 236 -164 l 499 -164 l 499 -193 z "},"ɖ":{"ha":715,"x_min":93,"x_max":774,"o":"m 774 -232 q 661 -274 726 -274 q 572 -237 606 -274 q 539 -132 539 -201 l 539 122 q 335 -14 469 -14 q 158 84 224 -14 q 93 358 93 182 q 161 633 93 531 q 347 735 229 735 q 539 619 469 735 l 539 1022 l 569 1018 l 569 -132 q 595 -219 569 -192 q 663 -246 621 -246 q 715 -237 693 -246 q 758 -211 738 -228 l 774 -232 m 335 15 q 456 55 408 15 q 539 172 503 94 l 539 578 q 347 707 469 707 q 185 615 246 707 q 125 358 125 522 q 182 104 126 193 q 335 15 238 15 z "},"ƌ":{"ha":715,"x_min":93,"x_max":569,"o":"m 569 0 l 542 0 l 539 122 q 335 -14 469 -14 q 158 84 224 -14 q 93 358 93 182 q 161 633 93 531 q 347 735 229 735 q 539 619 469 735 l 539 988 l 236 988 l 236 1017 l 569 1017 l 569 0 m 335 15 q 456 55 408 15 q 539 172 503 94 l 539 578 q 347 707 469 707 q 185 615 246 707 q 125 358 125 522 q 182 104 126 193 q 335 15 238 15 z "},"ǳ":{"ha":1229,"x_min":93,"x_max":1183,"o":"m 569 1018 l 569 0 l 542 0 l 539 122 q 335 -14 469 -14 q 158 84 224 -14 q 93 358 93 182 q 161 633 93 531 q 347 735 229 735 q 539 619 469 735 l 539 1022 l 569 1018 m 336 15 q 456 55 408 15 q 539 172 503 94 l 539 576 q 347 707 469 707 q 185 615 246 707 q 125 358 125 522 q 182 104 126 193 q 336 15 238 15 m 1183 721 l 1183 696 l 790 29 l 1175 29 l 1172 0 l 754 0 l 754 25 l 1149 693 l 788 693 l 788 721 l 1183 721 z "},"ʣ":{"ha":1061,"x_min":93,"x_max":1017,"o":"m 1017 696 l 604 29 l 1007 29 l 1004 0 l 542 0 l 539 122 q 335 -14 469 -14 q 158 84 224 -14 q 93 358 93 182 q 161 633 93 531 q 347 735 229 735 q 539 619 469 735 l 539 1022 l 569 1018 l 569 721 l 1017 721 l 1017 696 m 336 15 q 456 55 408 15 q 539 172 503 94 l 539 576 q 347 707 469 707 q 185 615 246 707 q 125 358 125 522 q 182 104 126 193 q 336 15 238 15 m 569 28 l 981 693 l 569 693 l 569 28 z "},"ǆ":{"ha":1229,"x_min":93,"x_max":1183,"o":"m 569 1018 l 569 0 l 542 0 l 539 122 q 335 -14 469 -14 q 158 84 224 -14 q 93 358 93 182 q 161 633 93 531 q 347 735 229 735 q 539 619 469 735 l 539 1022 l 569 1018 m 336 15 q 456 55 408 15 q 539 172 503 94 l 539 576 q 347 707 469 707 q 185 615 246 707 q 125 358 125 522 q 182 104 126 193 q 336 15 238 15 m 1183 721 l 1183 696 l 790 29 l 1175 29 l 1172 0 l 754 0 l 754 25 l 1149 693 l 788 693 l 788 721 l 1183 721 m 1126 1040 l 1143 1024 l 992 890 l 975 890 l 825 1024 l 840 1040 l 983 922 l 1126 1040 z "},"ʥ":{"ha":1065,"x_min":93,"x_max":1085,"o":"m 1085 146 q 1029 35 1085 69 q 849 0 974 1 q 846 -85 846 -58 l 847 -142 l 819 -142 l 818 -83 q 821 0 818 -56 l 542 0 l 539 122 q 335 -14 469 -14 q 158 84 224 -14 q 93 358 93 182 q 161 633 93 531 q 347 735 229 735 q 539 619 469 735 l 539 1022 l 569 1018 l 569 721 l 1013 721 l 1013 696 l 604 29 l 822 29 q 866 206 828 146 q 974 267 904 267 q 1053 234 1022 267 q 1085 146 1085 201 m 336 15 q 456 55 408 15 q 539 172 503 94 l 539 576 q 347 707 469 707 q 185 615 246 707 q 125 358 125 522 q 182 104 126 193 q 336 15 238 15 m 569 693 l 569 28 l 976 693 l 569 693 m 974 239 q 887 190 918 239 q 850 29 856 140 q 1008 55 961 28 q 1054 146 1054 82 q 1033 214 1054 189 q 974 239 1011 239 z "},"e":{"ha":661,"x_min":90,"x_max":578,"o":"m 578 394 q 575 342 578 372 l 122 342 q 187 97 125 178 q 351 15 249 15 q 447 34 406 15 q 532 92 488 53 l 550 71 q 458 8 504 29 q 351 -14 411 -14 q 160 82 231 -14 q 90 354 90 178 q 158 635 90 536 q 342 735 226 735 q 518 644 458 735 q 578 394 578 554 m 546 368 q 547 406 547 379 q 496 626 547 546 q 343 707 444 707 q 185 622 246 707 q 122 368 125 536 l 546 368 z "},"é":{"ha":661,"x_min":90,"x_max":578,"o":"m 578 394 q 575 342 578 372 l 122 342 q 187 97 125 178 q 351 15 249 15 q 447 34 406 15 q 532 92 488 53 l 550 71 q 458 8 504 29 q 351 -14 411 -14 q 160 82 231 -14 q 90 354 90 178 q 158 635 90 536 q 342 735 226 735 q 518 644 458 735 q 578 394 578 554 m 546 368 q 547 406 547 379 q 496 626 547 546 q 343 707 444 707 q 185 622 246 707 q 122 368 125 536 l 546 368 m 435 1056 l 450 1025 l 226 908 l 215 929 l 435 1056 z "},"ĕ":{"ha":661,"x_min":90,"x_max":578,"o":"m 578 394 q 575 342 578 372 l 122 342 q 187 97 125 178 q 351 15 249 15 q 447 34 406 15 q 532 92 488 53 l 550 71 q 458 8 504 29 q 351 -14 411 -14 q 160 82 231 -14 q 90 354 90 178 q 158 635 90 536 q 342 735 226 735 q 518 644 458 735 q 578 394 578 554 m 546 368 q 547 406 547 379 q 496 626 547 546 q 343 707 444 707 q 185 622 246 707 q 122 368 125 536 l 546 368 m 343 919 q 251 952 288 919 q 206 1039 214 985 l 228 1044 q 343 949 250 949 q 417 973 388 949 q 457 1044 446 997 l 479 1039 q 434 952 471 985 q 343 919 397 919 z "},"ě":{"ha":661,"x_min":90,"x_max":578,"o":"m 578 394 q 575 342 578 372 l 122 342 q 187 97 125 178 q 351 15 249 15 q 447 34 406 15 q 532 92 488 53 l 550 71 q 458 8 504 29 q 351 -14 411 -14 q 160 82 231 -14 q 90 354 90 178 q 158 635 90 536 q 342 735 226 735 q 518 644 458 735 q 578 394 578 554 m 546 368 q 547 406 547 379 q 496 626 547 546 q 343 707 444 707 q 185 622 246 707 q 122 368 125 536 l 546 368 m 486 1040 l 503 1024 l 351 890 l 335 890 l 185 1024 l 200 1040 l 343 922 l 486 1040 z "},"ȩ":{"ha":661,"x_min":90,"x_max":578,"o":"m 578 394 q 575 342 578 372 l 122 342 q 187 97 125 178 q 351 15 249 15 q 447 34 406 15 q 532 92 488 53 l 550 71 q 461 9 506 31 q 360 -14 417 -12 l 358 -103 q 472 -196 472 -111 q 441 -269 472 -243 q 365 -294 410 -294 q 279 -269 317 -294 l 293 -247 q 365 -268 325 -268 q 420 -250 399 -268 q 442 -196 442 -232 q 415 -143 442 -160 q 329 -125 388 -126 l 336 -14 q 156 88 222 -7 q 90 354 90 183 q 158 635 90 536 q 342 735 226 735 q 518 644 458 735 q 578 394 578 554 m 546 368 q 547 406 547 379 q 496 626 547 546 q 343 707 444 707 q 185 622 246 707 q 122 368 125 536 l 546 368 z "},"ê":{"ha":661,"x_min":90,"x_max":578,"o":"m 578 394 q 575 342 578 372 l 122 342 q 187 97 125 178 q 351 15 249 15 q 447 34 406 15 q 532 92 488 53 l 550 71 q 458 8 504 29 q 351 -14 411 -14 q 160 82 231 -14 q 90 354 90 178 q 158 635 90 536 q 342 735 226 735 q 518 644 458 735 q 578 394 578 554 m 546 368 q 547 406 547 379 q 496 626 547 546 q 343 707 444 707 q 185 622 246 707 q 122 368 125 536 l 546 368 m 199 908 l 183 925 l 333 1058 l 351 1058 l 501 925 l 485 908 l 342 1026 l 199 908 z "},"ế":{"ha":661,"x_min":90,"x_max":594,"o":"m 578 394 q 575 342 578 372 l 122 342 q 187 97 125 178 q 351 15 249 15 q 447 34 406 15 q 532 92 488 53 l 550 71 q 458 8 504 29 q 351 -14 411 -14 q 160 82 231 -14 q 90 354 90 178 q 158 635 90 536 q 342 735 226 735 q 518 644 458 735 q 578 394 578 554 m 546 368 q 547 406 547 379 q 496 626 547 546 q 343 707 444 707 q 185 622 246 707 q 122 368 125 536 l 546 368 m 199 815 l 183 832 l 333 957 l 350 957 l 501 832 l 486 815 l 342 925 l 199 815 m 568 1114 l 594 1093 l 464 935 l 446 949 l 568 1114 z "},"ệ":{"ha":661,"x_min":90,"x_max":578,"o":"m 578 394 q 575 342 578 372 l 122 342 q 187 97 125 178 q 351 15 249 15 q 447 34 406 15 q 532 92 488 53 l 550 71 q 458 8 504 29 q 351 -14 411 -14 q 160 82 231 -14 q 90 354 90 178 q 158 635 90 536 q 342 735 226 735 q 518 644 458 735 q 578 394 578 554 m 546 368 q 547 406 547 379 q 496 626 547 546 q 343 707 444 707 q 185 622 246 707 q 122 368 125 536 l 546 368 m 199 908 l 183 925 l 333 1058 l 351 1058 l 501 925 l 485 908 l 342 1026 l 199 908 m 354 -192 q 334 -183 342 -192 q 326 -164 326 -175 q 334 -145 326 -153 q 354 -137 342 -137 q 374 -145 367 -137 q 382 -164 382 -153 q 374 -183 382 -175 q 354 -192 367 -192 z "},"ề":{"ha":661,"x_min":90,"x_max":578,"o":"m 578 394 q 575 342 578 372 l 122 342 q 187 97 125 178 q 351 15 249 15 q 447 34 406 15 q 532 92 488 53 l 550 71 q 458 8 504 29 q 351 -14 411 -14 q 160 82 231 -14 q 90 354 90 178 q 158 635 90 536 q 342 735 226 735 q 518 644 458 735 q 578 394 578 554 m 546 368 q 547 406 547 379 q 496 626 547 546 q 343 707 444 707 q 185 622 246 707 q 122 368 125 536 l 546 368 m 199 815 l 183 832 l 333 957 l 350 957 l 501 832 l 486 815 l 342 925 l 199 815 m 121 1114 l 244 949 l 226 935 l 96 1093 l 121 1114 z "},"ể":{"ha":661,"x_min":90,"x_max":578,"o":"m 578 394 q 575 342 578 372 l 122 342 q 187 97 125 178 q 351 15 249 15 q 447 34 406 15 q 532 92 488 53 l 550 71 q 458 8 504 29 q 351 -14 411 -14 q 160 82 231 -14 q 90 354 90 178 q 158 635 90 536 q 342 735 226 735 q 518 644 458 735 q 578 394 578 554 m 546 368 q 547 406 547 379 q 496 626 547 546 q 343 707 444 707 q 185 622 246 707 q 122 368 125 536 l 546 368 m 199 815 l 183 832 l 333 957 l 350 957 l 501 832 l 486 815 l 342 925 l 199 815 m 457 1019 q 540 1092 540 1025 q 523 1140 540 1124 q 475 1157 506 1157 q 406 1136 440 1157 l 393 1158 q 478 1185 433 1185 q 547 1160 521 1185 q 572 1093 572 1135 q 486 1000 572 1011 l 486 922 l 457 922 l 457 1019 z "},"ễ":{"ha":661,"x_min":90,"x_max":578,"o":"m 578 394 q 575 342 578 372 l 122 342 q 187 97 125 178 q 351 15 249 15 q 447 34 406 15 q 532 92 488 53 l 550 71 q 458 8 504 29 q 351 -14 411 -14 q 160 82 231 -14 q 90 354 90 178 q 158 635 90 536 q 342 735 226 735 q 518 644 458 735 q 578 394 578 554 m 546 368 q 547 406 547 379 q 496 626 547 546 q 343 707 444 707 q 185 622 246 707 q 122 368 125 536 l 546 368 m 199 803 l 183 819 l 333 944 l 350 944 l 501 819 l 486 803 l 342 913 l 199 803 m 415 1010 q 376 1018 394 1010 q 331 1043 358 1026 q 296 1064 310 1057 q 268 1071 282 1071 q 231 1060 247 1071 q 194 1022 214 1049 l 175 1033 q 219 1081 197 1065 q 268 1097 242 1097 q 300 1090 285 1097 q 342 1068 315 1083 q 381 1045 364 1053 q 415 1038 399 1038 q 453 1050 436 1038 q 489 1093 469 1063 l 508 1083 q 465 1027 488 1044 q 415 1010 443 1010 z "},"ȅ":{"ha":661,"x_min":90,"x_max":578,"o":"m 578 394 q 575 342 578 372 l 122 342 q 187 97 125 178 q 351 15 249 15 q 447 34 406 15 q 532 92 488 53 l 550 71 q 458 8 504 29 q 351 -14 411 -14 q 160 82 231 -14 q 90 354 90 178 q 158 635 90 536 q 342 735 226 735 q 518 644 458 735 q 578 394 578 554 m 546 368 q 547 406 547 379 q 496 626 547 546 q 343 707 444 707 q 185 622 246 707 q 122 368 125 536 l 546 368 m 204 1099 l 294 917 l 272 906 l 175 1085 l 204 1099 m 343 1097 l 425 921 l 404 911 l 314 1082 l 343 1097 z "},"ë":{"ha":661,"x_min":90,"x_max":578,"o":"m 578 394 q 575 342 578 372 l 122 342 q 187 97 125 178 q 351 15 249 15 q 447 34 406 15 q 532 92 488 53 l 550 71 q 458 8 504 29 q 351 -14 411 -14 q 160 82 231 -14 q 90 354 90 178 q 158 635 90 536 q 342 735 226 735 q 518 644 458 735 q 578 394 578 554 m 546 368 q 547 406 547 379 q 496 626 547 546 q 343 707 444 707 q 185 622 246 707 q 122 368 125 536 l 546 368 m 238 989 q 258 981 250 989 q 265 961 265 974 q 258 942 265 950 q 238 935 250 935 q 219 942 226 935 q 211 961 211 950 q 219 981 211 972 q 238 989 226 989 m 447 989 q 467 981 460 989 q 475 961 475 972 q 467 942 475 950 q 447 935 460 935 q 427 942 435 935 q 419 961 419 950 q 427 981 419 972 q 447 989 435 989 z "},"ė":{"ha":661,"x_min":90,"x_max":578,"o":"m 578 394 q 575 342 578 372 l 122 342 q 187 97 125 178 q 351 15 249 15 q 447 34 406 15 q 532 92 488 53 l 550 71 q 458 8 504 29 q 351 -14 411 -14 q 160 82 231 -14 q 90 354 90 178 q 158 635 90 536 q 342 735 226 735 q 518 644 458 735 q 578 394 578 554 m 546 368 q 547 406 547 379 q 496 626 547 546 q 343 707 444 707 q 185 622 246 707 q 122 368 125 536 l 546 368 m 343 1006 q 363 997 356 1006 q 371 978 371 989 q 363 959 371 967 q 343 951 356 951 q 323 959 331 951 q 315 978 315 967 q 323 997 315 989 q 343 1006 331 1006 z "},"ẹ":{"ha":661,"x_min":90,"x_max":578,"o":"m 578 394 q 575 342 578 372 l 122 342 q 187 97 125 178 q 351 15 249 15 q 447 34 406 15 q 532 92 488 53 l 550 71 q 458 8 504 29 q 351 -14 411 -14 q 160 82 231 -14 q 90 354 90 178 q 158 635 90 536 q 342 735 226 735 q 518 644 458 735 q 578 394 578 554 m 546 368 q 547 406 547 379 q 496 626 547 546 q 343 707 444 707 q 185 622 246 707 q 122 368 125 536 l 546 368 m 354 -192 q 334 -183 342 -192 q 326 -164 326 -175 q 334 -145 326 -153 q 354 -137 342 -137 q 374 -145 367 -137 q 382 -164 382 -153 q 374 -183 382 -175 q 354 -192 367 -192 z "},"è":{"ha":661,"x_min":90,"x_max":578,"o":"m 578 394 q 575 342 578 372 l 122 342 q 187 97 125 178 q 351 15 249 15 q 447 34 406 15 q 532 92 488 53 l 550 71 q 458 8 504 29 q 351 -14 411 -14 q 160 82 231 -14 q 90 354 90 178 q 158 635 90 536 q 342 735 226 735 q 518 644 458 735 q 578 394 578 554 m 546 368 q 547 406 547 379 q 496 626 547 546 q 343 707 444 707 q 185 622 246 707 q 122 368 125 536 l 546 368 m 244 1056 l 464 929 l 451 908 l 228 1025 l 244 1056 z "},"ẻ":{"ha":661,"x_min":90,"x_max":578,"o":"m 578 394 q 575 342 578 372 l 122 342 q 187 97 125 178 q 351 15 249 15 q 447 34 406 15 q 532 92 488 53 l 550 71 q 458 8 504 29 q 351 -14 411 -14 q 160 82 231 -14 q 90 354 90 178 q 158 635 90 536 q 342 735 226 735 q 518 644 458 735 q 578 394 578 554 m 546 368 q 547 406 547 379 q 496 626 547 546 q 343 707 444 707 q 185 622 246 707 q 122 368 125 536 l 546 368 m 328 961 q 411 1033 411 967 q 394 1082 411 1065 q 346 1099 376 1099 q 276 1078 311 1099 l 264 1100 q 349 1126 304 1126 q 417 1101 392 1126 q 443 1035 443 1076 q 357 942 443 953 l 357 864 l 328 864 l 328 961 z "},"ȇ":{"ha":661,"x_min":90,"x_max":578,"o":"m 578 394 q 575 342 578 372 l 122 342 q 187 97 125 178 q 351 15 249 15 q 447 34 406 15 q 532 92 488 53 l 550 71 q 458 8 504 29 q 351 -14 411 -14 q 160 82 231 -14 q 90 354 90 178 q 158 635 90 536 q 342 735 226 735 q 518 644 458 735 q 578 394 578 554 m 546 368 q 547 406 547 379 q 496 626 547 546 q 343 707 444 707 q 185 622 246 707 q 122 368 125 536 l 546 368 m 343 1007 q 434 974 397 1007 q 479 888 471 942 l 457 882 q 417 953 446 929 q 343 978 388 978 q 228 882 250 978 l 206 888 q 251 974 214 942 q 343 1007 288 1007 z "},"ē":{"ha":661,"x_min":90,"x_max":578,"o":"m 578 394 q 575 342 578 372 l 122 342 q 187 97 125 178 q 351 15 249 15 q 447 34 406 15 q 532 92 488 53 l 550 71 q 458 8 504 29 q 351 -14 411 -14 q 160 82 231 -14 q 90 354 90 178 q 158 635 90 536 q 342 735 226 735 q 518 644 458 735 q 578 394 578 554 m 546 368 q 547 406 547 379 q 496 626 547 546 q 343 707 444 707 q 185 622 246 707 q 122 368 125 536 l 546 368 m 475 951 l 213 951 l 213 981 l 475 981 l 475 951 z "},"ę":{"ha":661,"x_min":90,"x_max":578,"o":"m 578 394 q 575 342 578 372 l 122 342 q 187 97 125 178 q 351 15 249 15 q 447 34 406 15 q 532 92 488 53 l 550 71 q 438 0 493 18 q 332 -72 368 -36 q 296 -161 296 -108 q 319 -222 296 -200 q 386 -244 343 -244 q 453 -235 415 -244 l 450 -265 q 382 -275 413 -275 q 294 -244 325 -275 q 264 -161 264 -212 q 292 -79 264 -115 q 372 -12 319 -43 q 351 -14 365 -14 q 160 82 231 -14 q 90 354 90 178 q 158 635 90 536 q 342 735 226 735 q 518 644 458 735 q 578 394 578 554 m 546 368 q 547 406 547 379 q 496 626 547 546 q 343 707 444 707 q 185 622 246 707 q 122 368 125 536 l 546 368 z "},"ɛ":{"ha":564,"x_min":90,"x_max":524,"o":"m 322 735 q 510 672 426 735 l 493 650 q 415 692 456 678 q 324 707 375 707 q 194 664 242 707 q 147 549 147 621 q 194 437 147 481 q 324 393 242 393 l 396 393 l 392 365 l 319 365 q 172 321 222 365 q 122 190 122 276 q 174 61 122 107 q 315 15 226 15 q 422 34 379 15 q 506 92 464 53 l 524 72 q 431 8 481 31 q 314 -14 382 -14 q 153 41 215 -14 q 90 190 90 96 q 137 325 90 278 q 263 381 183 372 q 154 438 192 394 q 117 549 117 482 q 174 685 117 635 q 322 735 231 735 z "},"ʚ":{"ha":683,"x_min":90,"x_max":593,"o":"m 322 -14 q 151 43 213 -14 q 90 203 90 100 q 136 334 90 292 q 268 383 182 376 q 121 547 121 406 q 175 683 121 632 q 324 735 229 735 q 522 638 450 735 q 593 360 593 542 q 523 83 593 179 q 322 -14 453 -14 m 322 15 q 500 103 439 15 q 561 360 561 190 q 499 619 561 532 q 324 707 436 707 q 197 663 242 707 q 153 547 153 619 q 199 435 153 475 q 338 394 244 394 l 375 394 l 378 368 l 331 368 q 174 329 225 368 q 122 203 122 290 q 175 63 122 110 q 322 15 228 15 z "},"ɜ":{"ha":585,"x_min":40,"x_max":494,"o":"m 268 735 q 410 685 357 735 q 463 551 463 635 q 424 437 463 479 q 317 383 386 394 q 448 333 401 375 q 494 203 494 290 q 433 44 494 101 q 272 -14 372 -14 q 142 12 196 -14 q 40 83 88 38 l 60 101 q 153 38 106 60 q 271 15 201 15 q 411 63 360 15 q 463 203 463 110 q 410 328 463 289 q 253 368 358 368 l 183 368 l 188 394 l 249 394 q 385 436 340 394 q 431 551 431 478 q 388 665 431 622 q 268 707 344 707 q 167 692 210 707 q 75 642 125 676 l 60 663 q 158 717 108 699 q 268 735 207 735 z "},"ɞ":{"ha":683,"x_min":90,"x_max":593,"o":"m 361 -14 q 160 83 231 -14 q 90 360 90 179 q 162 638 90 542 q 360 735 233 735 q 508 683 454 735 q 563 547 563 632 q 415 383 563 406 q 547 334 501 376 q 593 203 593 292 q 532 43 593 100 q 361 -14 471 -14 m 361 15 q 508 63 456 15 q 561 203 561 110 q 510 329 561 290 q 353 368 458 368 l 306 368 l 308 394 l 346 394 q 485 435 439 394 q 531 547 531 475 q 486 663 531 619 q 360 707 442 707 q 185 619 247 707 q 122 360 122 532 q 183 103 122 190 q 361 15 244 15 z "},"ɝ":{"ha":760,"x_min":40,"x_max":806,"o":"m 806 506 q 694 464 756 464 q 603 501 636 464 q 569 607 569 538 l 569 692 l 447 631 q 463 551 463 593 q 424 437 463 479 q 317 383 386 394 q 448 333 401 375 q 494 203 494 290 q 433 44 494 101 q 272 -14 372 -14 q 142 12 196 -14 q 40 83 88 38 l 60 101 q 153 38 106 60 q 271 15 201 15 q 411 63 360 15 q 463 203 463 110 q 410 328 463 289 q 253 368 358 368 l 183 368 l 188 394 l 249 394 q 385 436 340 394 q 431 551 431 478 q 388 665 431 622 q 268 707 344 707 q 167 692 210 707 q 75 642 125 676 l 60 663 q 158 717 108 699 q 268 735 207 735 q 368 714 325 735 q 435 654 411 693 l 569 721 l 600 721 l 600 608 q 626 519 600 547 q 694 490 651 490 q 746 499 724 490 q 789 525 768 508 l 806 506 z "},"ɘ":{"ha":661,"x_min":83,"x_max":571,"o":"m 326 735 q 508 640 444 735 q 571 354 571 544 q 500 82 571 178 q 310 -14 429 -14 q 202 8 249 -14 q 110 71 156 29 l 129 92 q 213 34 172 53 q 310 15 254 15 q 474 96 413 15 q 539 342 535 176 l 86 342 q 83 394 83 372 q 147 644 83 553 q 326 735 210 735 m 114 368 l 539 368 q 481 626 538 546 q 326 707 425 707 q 168 626 222 707 q 114 406 114 544 l 114 368 z "},"ʃ":{"ha":324,"x_min":-58,"x_max":382,"o":"m 271 1024 q 382 981 333 1024 l 367 961 q 323 987 346 978 q 271 996 300 996 q 203 967 228 996 q 178 876 178 939 l 178 719 l 176 719 l 176 -132 q 143 -237 176 -201 q 54 -274 110 -274 q -58 -232 -11 -274 l -43 -211 q 0 -237 -22 -228 q 53 -246 22 -246 q 120 -219 94 -246 q 146 -132 146 -192 l 146 721 l 147 721 l 147 876 q 181 985 147 947 q 271 1024 214 1024 z "},"ʆ":{"ha":340,"x_min":-96,"x_max":399,"o":"m 194 -37 q 311 -85 257 -56 l 301 -108 q 194 -65 244 -79 q 154 -219 194 -165 q 33 -274 114 -274 q -60 -240 -25 -274 q -96 -153 -96 -207 q -54 -54 -96 -90 q 57 -18 -12 -18 q 164 -31 111 -18 l 164 876 q 197 985 164 947 q 288 1024 231 1024 q 399 981 350 1024 l 383 961 q 340 987 363 978 q 288 996 317 996 q 219 967 244 996 q 194 876 194 939 l 194 -37 m 33 -247 q 131 -201 99 -247 q 164 -58 164 -154 q 58 -44 106 -44 q -34 -74 -1 -44 q -67 -153 -67 -103 q -40 -222 -67 -196 q 33 -247 -14 -247 z "},"ƪ":{"ha":331,"x_min":-53,"x_max":389,"o":"m 389 -232 q 276 -274 342 -274 q 188 -237 221 -274 q 154 -132 154 -201 l 154 0 l 153 0 l 153 749 q 69 724 117 724 q -19 760 14 724 q -53 869 -53 797 q -19 983 -53 942 q 69 1024 14 1024 q 153 987 124 1024 q 183 889 183 950 l 183 1 l 185 1 l 185 -132 q 210 -219 185 -192 q 278 -246 236 -246 q 331 -237 308 -246 q 374 -211 353 -228 l 389 -232 m 69 751 q 153 776 117 751 l 153 889 q 131 968 153 940 q 69 996 110 996 q 2 963 26 996 q -22 871 -22 931 q 69 751 -22 751 z "},"ʅ":{"ha":467,"x_min":14,"x_max":454,"o":"m 454 28 q 342 -14 407 -14 q 253 22 286 -14 q 219 128 219 58 l 219 260 l 218 260 l 218 589 q 193 680 218 651 q 125 708 168 708 q 73 699 96 708 q 29 674 50 690 l 14 693 q 125 736 63 736 q 215 698 182 736 q 249 589 249 660 l 249 261 l 250 261 l 250 128 q 276 41 250 68 q 343 14 301 14 q 396 23 374 14 q 439 49 418 32 l 454 28 z "},"ɇ":{"ha":661,"x_min":90,"x_max":578,"o":"m 339 342 l 263 33 q 351 15 303 15 q 447 34 406 15 q 533 92 489 53 l 550 71 q 458 8 504 29 q 351 -14 411 -14 q 256 4 297 -14 l 232 -92 l 210 -87 l 235 15 q 128 140 165 53 q 90 354 90 226 q 158 635 90 535 q 342 735 225 735 q 411 725 382 735 l 433 814 l 454 810 l 432 718 q 541 602 504 686 q 578 394 578 518 q 575 342 578 372 l 339 342 m 343 707 q 185 622 246 707 q 122 368 125 536 l 322 368 l 404 699 q 343 707 378 707 m 547 406 q 517 588 547 514 q 425 690 486 661 l 346 368 l 546 368 q 547 406 547 379 m 317 342 l 122 342 q 156 153 124 228 q 243 44 188 79 l 317 342 z "},"ẽ":{"ha":661,"x_min":90,"x_max":578,"o":"m 578 394 q 575 342 578 372 l 122 342 q 187 97 125 178 q 351 15 249 15 q 447 34 406 15 q 532 92 488 53 l 550 71 q 458 8 504 29 q 351 -14 411 -14 q 160 82 231 -14 q 90 354 90 178 q 158 635 90 536 q 342 735 226 735 q 518 644 458 735 q 578 394 578 554 m 546 368 q 547 406 547 379 q 496 626 547 546 q 343 707 444 707 q 185 622 246 707 q 122 368 125 536 l 546 368 m 417 942 q 378 950 396 942 q 332 975 360 958 q 297 996 311 989 q 269 1003 283 1003 q 232 992 249 1003 q 196 954 215 981 l 176 965 q 221 1013 199 997 q 269 1029 243 1029 q 302 1022 286 1029 q 343 1000 318 1015 q 383 977 367 985 q 417 969 399 969 q 454 982 438 969 q 490 1025 471 994 l 510 1015 q 467 959 489 976 q 417 942 444 942 z "},"ǝ":{"ha":665,"x_min":83,"x_max":575,"o":"m 332 735 q 512 644 449 735 q 575 367 575 553 q 510 78 575 169 q 326 -14 444 -14 q 148 78 213 -14 q 83 338 83 169 q 86 379 83 354 l 543 379 q 486 626 542 546 q 332 707 431 707 q 233 689 278 707 q 142 635 189 671 l 125 656 q 332 735 219 735 m 326 15 q 486 94 431 15 q 543 351 542 174 l 115 351 l 115 338 q 170 97 115 179 q 326 15 225 15 z "},"ə":{"ha":665,"x_min":83,"x_max":575,"o":"m 332 735 q 512 644 449 735 q 575 367 575 553 q 510 78 575 169 q 326 -14 444 -14 q 148 78 213 -14 q 83 338 83 169 q 86 379 83 354 l 543 379 q 486 626 542 546 q 332 707 431 707 q 233 689 278 707 q 142 635 189 671 l 125 656 q 332 735 219 735 m 326 15 q 486 94 431 15 q 543 351 542 174 l 115 351 l 115 338 q 170 97 115 179 q 326 15 225 15 z "},"ɚ":{"ha":831,"x_min":83,"x_max":876,"o":"m 876 506 q 765 464 826 464 q 674 501 707 464 q 640 607 640 538 l 640 692 l 519 631 q 575 367 575 539 q 510 78 575 169 q 326 -14 444 -14 q 148 78 213 -14 q 83 338 83 169 q 86 379 83 354 l 543 379 q 486 626 542 546 q 332 707 431 707 q 233 689 278 707 q 142 635 189 671 l 125 656 q 332 735 219 735 q 504 654 442 735 l 640 721 l 671 721 l 671 608 q 697 519 671 547 q 765 490 722 490 q 817 499 794 490 q 860 525 839 508 l 876 506 m 326 15 q 486 94 431 15 q 543 351 542 174 l 115 351 l 115 338 q 170 97 115 179 q 326 15 225 15 z "},"ʒ":{"ha":556,"x_min":28,"x_max":511,"o":"m 226 269 q 511 3 511 269 q 443 -197 511 -121 q 258 -274 375 -274 q 130 -245 185 -274 q 28 -160 75 -217 l 49 -143 q 144 -220 94 -196 q 258 -244 193 -244 q 422 -177 364 -244 q 479 3 479 -110 q 417 183 479 126 q 228 240 356 240 l 163 240 l 163 269 l 442 693 l 50 693 l 50 721 l 478 721 l 478 696 l 196 269 l 226 269 z "},"ǯ":{"ha":556,"x_min":28,"x_max":511,"o":"m 226 269 q 511 3 511 269 q 443 -197 511 -121 q 258 -274 375 -274 q 130 -245 185 -274 q 28 -160 75 -217 l 49 -143 q 144 -220 94 -196 q 258 -244 193 -244 q 422 -177 364 -244 q 479 3 479 -110 q 417 183 479 126 q 228 240 356 240 l 163 240 l 163 269 l 442 693 l 50 693 l 50 721 l 478 721 l 478 696 l 196 269 l 226 269 m 407 1040 l 424 1024 l 272 890 l 256 890 l 106 1024 l 121 1040 l 264 922 l 407 1040 z "},"ʓ":{"ha":556,"x_min":3,"x_max":511,"o":"m 511 8 q 472 -144 511 -79 q 360 -243 433 -210 l 394 -325 l 368 -336 l 333 -254 q 207 -274 275 -274 q 55 -232 107 -274 q 3 -117 3 -190 q 38 -19 3 -57 q 131 19 72 19 q 210 -1 175 19 q 278 -74 244 -22 q 349 -218 311 -125 q 447 -131 414 -189 q 479 7 479 -72 q 417 183 479 126 q 226 240 354 240 l 163 240 l 163 269 l 440 693 l 50 693 l 50 721 l 476 721 l 476 696 l 196 269 l 229 269 q 442 202 372 269 q 511 8 511 135 m 32 -117 q 79 -214 32 -183 q 207 -244 126 -244 q 322 -228 272 -244 q 258 -93 288 -140 q 199 -26 228 -46 q 131 -7 169 -7 q 58 -37 85 -7 q 32 -117 32 -67 z "},"ƹ":{"ha":556,"x_min":46,"x_max":528,"o":"m 528 -160 q 425 -245 481 -217 q 293 -274 369 -274 q 113 -201 179 -274 q 46 -7 46 -128 q 117 196 46 122 q 331 269 188 269 l 361 269 l 78 696 l 78 721 l 507 721 l 507 693 l 115 693 l 394 269 l 394 240 l 329 240 q 78 -8 78 240 q 134 -181 78 -117 q 292 -244 190 -244 q 410 -220 360 -244 q 508 -143 461 -196 l 528 -160 z "},"ƺ":{"ha":554,"x_min":49,"x_max":506,"o":"m 178 -272 q 81 -210 114 -244 q 49 -124 49 -175 q 99 -30 49 -62 q 264 19 150 3 q 427 76 379 36 q 475 200 475 115 q 433 309 475 275 q 304 343 390 343 l 146 343 l 146 371 l 428 693 l 49 693 l 49 721 l 468 721 l 468 696 l 181 371 l 304 371 q 455 328 404 371 q 506 200 506 285 q 451 58 506 104 q 271 -7 396 13 q 125 -49 168 -24 q 82 -124 82 -74 q 107 -194 82 -167 q 189 -249 132 -222 l 178 -272 z "},"f":{"ha":385,"x_min":39,"x_max":453,"o":"m 310 994 q 215 962 249 994 q 181 861 181 929 l 181 721 l 364 721 l 360 693 l 181 693 l 181 0 l 150 0 l 150 693 l 39 693 l 39 721 l 150 721 l 150 865 q 193 982 150 940 q 307 1024 236 1024 q 453 981 382 1024 l 439 957 q 310 994 375 994 z "},"ḟ":{"ha":385,"x_min":39,"x_max":453,"o":"m 310 994 q 215 962 249 994 q 181 861 181 929 l 181 721 l 364 721 l 360 693 l 181 693 l 181 0 l 150 0 l 150 693 l 39 693 l 39 721 l 150 721 l 150 865 q 193 982 150 940 q 307 1024 236 1024 q 453 981 382 1024 l 439 957 q 310 994 375 994 m 311 1251 q 331 1243 324 1251 q 339 1224 339 1235 q 331 1205 339 1213 q 311 1197 324 1197 q 291 1205 299 1197 q 283 1224 283 1213 q 291 1243 283 1235 q 311 1251 299 1251 z "},"ʩ":{"ha":1081,"x_min":39,"x_max":942,"o":"m 942 0 l 940 0 l 940 -132 q 907 -237 940 -201 q 818 -274 874 -274 q 706 -232 753 -274 l 721 -211 q 764 -237 742 -228 q 817 -246 786 -246 q 884 -219 858 -246 q 910 -132 910 -192 l 910 1 l 911 1 l 911 517 q 765 707 911 707 q 636 661 693 707 q 531 531 579 615 l 531 0 l 500 0 l 500 693 l 181 693 l 181 0 l 150 0 l 150 693 l 39 693 l 39 721 l 150 721 l 150 865 q 193 982 150 940 q 307 1024 236 1024 q 453 981 382 1024 l 439 957 q 310 994 375 994 q 215 962 249 994 q 181 861 181 929 l 181 721 l 528 721 l 531 574 q 768 735 625 735 q 898 679 854 735 q 942 521 942 624 l 942 0 z "},"g":{"ha":611,"x_min":54,"x_max":590,"o":"m 590 731 q 399 710 524 711 q 495 633 461 688 q 529 494 529 579 q 469 325 529 386 q 307 264 410 264 q 214 283 263 264 q 150 179 150 242 q 281 88 150 88 l 374 88 q 522 42 469 88 q 575 -79 575 -3 q 509 -222 575 -169 q 314 -274 443 -274 q 115 -228 176 -274 q 54 -81 54 -183 l 83 -81 q 138 -208 86 -171 q 314 -244 189 -244 q 487 -201 431 -244 q 543 -81 543 -158 q 499 23 543 -14 q 372 60 454 60 l 278 60 q 160 91 200 60 q 119 175 119 122 q 190 294 119 244 q 81 497 81 356 q 142 671 81 607 q 306 735 203 735 q 483 741 433 735 q 581 764 533 747 l 590 731 m 306 707 q 163 651 213 707 q 113 497 113 594 q 167 345 113 399 q 307 292 222 292 q 447 344 397 292 q 497 494 497 396 q 447 651 497 594 q 306 707 396 707 z "},"ǵ":{"ha":611,"x_min":54,"x_max":590,"o":"m 590 731 q 399 710 524 711 q 495 633 461 688 q 529 494 529 579 q 469 325 529 386 q 307 264 410 264 q 214 283 263 264 q 150 179 150 242 q 281 88 150 88 l 374 88 q 522 42 469 88 q 575 -79 575 -3 q 509 -222 575 -169 q 314 -274 443 -274 q 115 -228 176 -274 q 54 -81 54 -183 l 83 -81 q 138 -208 86 -171 q 314 -244 189 -244 q 487 -201 431 -244 q 543 -81 543 -158 q 499 23 543 -14 q 372 60 454 60 l 278 60 q 160 91 200 60 q 119 175 119 122 q 190 294 119 244 q 81 497 81 356 q 142 671 81 607 q 306 735 203 735 q 483 741 433 735 q 581 764 533 747 l 590 731 m 306 707 q 163 651 213 707 q 113 497 113 594 q 167 345 113 399 q 307 292 222 292 q 447 344 397 292 q 497 494 497 396 q 447 651 497 594 q 306 707 396 707 m 399 1056 l 414 1025 l 190 908 l 179 929 l 399 1056 z "},"ɣ":{"ha":564,"x_min":32,"x_max":532,"o":"m 299 61 q 353 -72 335 -18 q 371 -172 371 -126 q 348 -246 371 -218 q 282 -274 325 -274 q 217 -246 240 -274 q 193 -172 193 -218 q 211 -72 193 -126 q 265 61 229 -17 l 32 721 l 64 721 l 282 88 l 500 721 l 532 721 l 299 61 m 342 -172 q 328 -85 342 -129 q 282 38 314 -40 q 236 -83 250 -39 q 222 -172 222 -128 q 238 -226 222 -207 q 282 -246 253 -246 q 326 -226 311 -246 q 342 -172 342 -207 z "}}}
